%TF.GenerationSoftware,KiCad,Pcbnew,10.0.6*%
%TF.CreationDate,2026-10-02T12:35:44-04:00*%
%TF.ProjectId,sbc_89c51,7362635f-3839-4633-9531-2e6b69636164,rev?*%
%TF.SameCoordinates,Original*%
%TF.FileFunction,Soldermask,Top*%
%TF.FilePolarity,Negative*%
%FSLAX46Y46*%
G04 Gerber Fmt 4.6, Leading zero omitted, Abs format (unit mm)*
G04 Created by KiCad (PCBNEW 10.0.6) date 2026-10-02 12:35:44*
%MOMM*%
%LPD*%
G01*
G04 APERTURE LIST*
G04 Aperture macros list*
%AMRoundRect*
0 Rectangle with rounded corners*
0 $1 Rounding radius*
0 $2 $3 $4 $5 $6 $7 $8 $9 X,Y pos of 4 corners*
0 Add a 4 corners polygon primitive as box body*
4,1,4,$2,$3,$4,$5,$6,$7,$8,$9,$2,$3,0*
0 Add four circle primitives for the rounded corners*
1,1,$1+$1,$2,$3*
1,1,$1+$1,$4,$5*
1,1,$1+$1,$6,$7*
1,1,$1+$1,$8,$9*
0 Add four rect primitives between the rounded corners*
20,1,$1+$1,$2,$3,$4,$5,0*
20,1,$1+$1,$4,$5,$6,$7,0*
20,1,$1+$1,$6,$7,$8,$9,0*
20,1,$1+$1,$8,$9,$2,$3,0*%
G04 Aperture macros list end*
%ADD10R,2.000000X2.000000*%
%ADD11C,2.000000*%
%ADD12RoundRect,0.250000X-0.950000X-0.550000X0.950000X-0.550000X0.950000X0.550000X-0.950000X0.550000X0*%
%ADD13O,2.400000X1.600000*%
%ADD14RoundRect,0.250000X-0.600000X-0.600000X0.600000X-0.600000X0.600000X0.600000X-0.600000X0.600000X0*%
%ADD15C,1.700000*%
%ADD16C,1.600000*%
%ADD17RoundRect,0.250000X-0.550000X-0.550000X0.550000X-0.550000X0.550000X0.550000X-0.550000X0.550000X0*%
%ADD18RoundRect,0.250000X-0.550000X0.550000X-0.550000X-0.550000X0.550000X-0.550000X0.550000X0.550000X0*%
%ADD19C,4.000000*%
%ADD20R,1.700000X1.700000*%
%ADD21R,1.800000X1.800000*%
%ADD22C,1.800000*%
%ADD23R,1.300000X1.300000*%
%ADD24C,1.300000*%
%ADD25C,1.500000*%
G04 APERTURE END LIST*
D10*
%TO.C,BZ1*%
X104010000Y-56000000D03*
D11*
X111610000Y-56000000D03*
%TD*%
D12*
%TO.C,U1*%
X113010000Y-65570000D03*
D13*
X113010000Y-68110000D03*
X113010000Y-70650000D03*
X113010000Y-73190000D03*
X113010000Y-75730000D03*
X113010000Y-78270000D03*
X113010000Y-80810000D03*
X113010000Y-83350000D03*
X113010000Y-85890000D03*
X113010000Y-88430000D03*
X113010000Y-90970000D03*
X113010000Y-93510000D03*
X113010000Y-96050000D03*
X113010000Y-98590000D03*
X113010000Y-101130000D03*
X113010000Y-103670000D03*
X113010000Y-106210000D03*
X113010000Y-108750000D03*
X113010000Y-111290000D03*
X113010000Y-113830000D03*
X128250000Y-113830000D03*
X128250000Y-111290000D03*
X128250000Y-108750000D03*
X128250000Y-106210000D03*
X128250000Y-103670000D03*
X128250000Y-101130000D03*
X128250000Y-98590000D03*
X128250000Y-96050000D03*
X128250000Y-93510000D03*
X128250000Y-90970000D03*
X128250000Y-88430000D03*
X128250000Y-85890000D03*
X128250000Y-83350000D03*
X128250000Y-80810000D03*
X128250000Y-78270000D03*
X128250000Y-75730000D03*
X128250000Y-73190000D03*
X128250000Y-70650000D03*
X128250000Y-68110000D03*
X128250000Y-65570000D03*
%TD*%
D14*
%TO.C,J2*%
X184460000Y-54100000D03*
D15*
X187000000Y-54100000D03*
X184460000Y-56640000D03*
X187000000Y-56640000D03*
X184460000Y-59180000D03*
X187000000Y-59180000D03*
X184460000Y-61720000D03*
X187000000Y-61720000D03*
X184460000Y-64260000D03*
X187000000Y-64260000D03*
X184460000Y-66800000D03*
X187000000Y-66800000D03*
X184460000Y-69340000D03*
X187000000Y-69340000D03*
X184460000Y-71880000D03*
X187000000Y-71880000D03*
X184460000Y-74420000D03*
X187000000Y-74420000D03*
X184460000Y-76960000D03*
X187000000Y-76960000D03*
X184460000Y-79500000D03*
X187000000Y-79500000D03*
X184460000Y-82040000D03*
X187000000Y-82040000D03*
X184460000Y-84580000D03*
X187000000Y-84580000D03*
X184460000Y-87120000D03*
X187000000Y-87120000D03*
X184460000Y-89660000D03*
X187000000Y-89660000D03*
X184460000Y-92200000D03*
X187000000Y-92200000D03*
X184460000Y-94740000D03*
X187000000Y-94740000D03*
X184460000Y-97280000D03*
X187000000Y-97280000D03*
X184460000Y-99820000D03*
X187000000Y-99820000D03*
X184460000Y-102360000D03*
X187000000Y-102360000D03*
%TD*%
%TO.C,SW1*%
X95750000Y-67500000D03*
X102250000Y-67500000D03*
X95750000Y-72000000D03*
X102250000Y-72000000D03*
%TD*%
%TO.C,SW2*%
X95750000Y-75250000D03*
X102250000Y-75250000D03*
X95750000Y-79750000D03*
X102250000Y-79750000D03*
%TD*%
D16*
%TO.C,C3*%
X133000000Y-89750000D03*
X133000000Y-87250000D03*
%TD*%
D12*
%TO.C,U4*%
X134880000Y-125050000D03*
D13*
X134880000Y-127590000D03*
X134880000Y-130130000D03*
X134880000Y-132670000D03*
X134880000Y-135210000D03*
X134880000Y-137750000D03*
X134880000Y-140290000D03*
X142500000Y-140290000D03*
X142500000Y-137750000D03*
X142500000Y-135210000D03*
X142500000Y-132670000D03*
X142500000Y-130130000D03*
X142500000Y-127590000D03*
X142500000Y-125050000D03*
%TD*%
D17*
%TO.C,C9*%
X183750000Y-112250000D03*
D16*
X185750000Y-112250000D03*
%TD*%
%TO.C,C12*%
X107750000Y-117500000D03*
X105250000Y-117500000D03*
%TD*%
%TO.C,C8*%
X163000000Y-125000000D03*
X163000000Y-127500000D03*
%TD*%
D18*
%TO.C,J4*%
X107860000Y-134500000D03*
D16*
X107860000Y-132000000D03*
X105860000Y-132000000D03*
X105860000Y-134500000D03*
D19*
X103000000Y-139250000D03*
X103000000Y-127250000D03*
%TD*%
D15*
%TO.C,SW3*%
X95750000Y-83000000D03*
X102250000Y-83000000D03*
X95750000Y-87500000D03*
X102250000Y-87500000D03*
%TD*%
D16*
%TO.C,R4*%
X108500000Y-98310000D03*
X108500000Y-90690000D03*
%TD*%
%TO.C,R3*%
X104450000Y-98310000D03*
X104450000Y-90690000D03*
%TD*%
D12*
%TO.C,U3*%
X156000000Y-65840000D03*
D13*
X156000000Y-68380000D03*
X156000000Y-70920000D03*
X156000000Y-73460000D03*
X156000000Y-76000000D03*
X156000000Y-78540000D03*
X156000000Y-81080000D03*
X156000000Y-83620000D03*
X156000000Y-86160000D03*
X156000000Y-88700000D03*
X156000000Y-91240000D03*
X156000000Y-93780000D03*
X156000000Y-96320000D03*
X156000000Y-98860000D03*
X171240000Y-98860000D03*
X171240000Y-96320000D03*
X171240000Y-93780000D03*
X171240000Y-91240000D03*
X171240000Y-88700000D03*
X171240000Y-86160000D03*
X171240000Y-83620000D03*
X171240000Y-81080000D03*
X171240000Y-78540000D03*
X171240000Y-76000000D03*
X171240000Y-73460000D03*
X171240000Y-70920000D03*
X171240000Y-68380000D03*
X171240000Y-65840000D03*
%TD*%
D12*
%TO.C,U2*%
X139000000Y-65470000D03*
D13*
X139000000Y-68010000D03*
X139000000Y-70550000D03*
X139000000Y-73090000D03*
X139000000Y-75630000D03*
X139000000Y-78170000D03*
X139000000Y-80710000D03*
X139000000Y-83250000D03*
X139000000Y-85790000D03*
X139000000Y-88330000D03*
X146620000Y-88330000D03*
X146620000Y-85790000D03*
X146620000Y-83250000D03*
X146620000Y-80710000D03*
X146620000Y-78170000D03*
X146620000Y-75630000D03*
X146620000Y-73090000D03*
X146620000Y-70550000D03*
X146620000Y-68010000D03*
X146620000Y-65470000D03*
%TD*%
D16*
%TO.C,C11*%
X145500000Y-132750000D03*
X145500000Y-130250000D03*
%TD*%
%TO.C,C4*%
X138000000Y-62500000D03*
X140500000Y-62500000D03*
%TD*%
D12*
%TO.C,U6*%
X169880000Y-121760000D03*
D13*
X169880000Y-124300000D03*
X169880000Y-126840000D03*
X169880000Y-129380000D03*
X169880000Y-131920000D03*
X169880000Y-134460000D03*
X169880000Y-137000000D03*
X169880000Y-139540000D03*
X177500000Y-139540000D03*
X177500000Y-137000000D03*
X177500000Y-134460000D03*
X177500000Y-131920000D03*
X177500000Y-129380000D03*
X177500000Y-126840000D03*
X177500000Y-124300000D03*
X177500000Y-121760000D03*
%TD*%
D20*
%TO.C,SW4*%
X123705000Y-142295000D03*
D15*
X121165000Y-142295000D03*
X118625000Y-142295000D03*
%TD*%
D16*
%TO.C,R5*%
X105750000Y-79940000D03*
X105750000Y-87560000D03*
%TD*%
D12*
%TO.C,U5*%
X152380000Y-125010000D03*
D13*
X152380000Y-127550000D03*
X152380000Y-130090000D03*
X152380000Y-132630000D03*
X152380000Y-135170000D03*
X152380000Y-137710000D03*
X152380000Y-140250000D03*
X160000000Y-140250000D03*
X160000000Y-137710000D03*
X160000000Y-135170000D03*
X160000000Y-132630000D03*
X160000000Y-130090000D03*
X160000000Y-127550000D03*
X160000000Y-125010000D03*
%TD*%
D16*
%TO.C,R1*%
X120880000Y-122500000D03*
X128500000Y-122500000D03*
%TD*%
%TO.C,C2*%
X111250000Y-138500000D03*
X113750000Y-138500000D03*
%TD*%
D17*
%TO.C,D3*%
X123440000Y-51250000D03*
D16*
X131060000Y-51250000D03*
%TD*%
D20*
%TO.C,J3*%
X131725000Y-66000000D03*
D15*
X134265000Y-66000000D03*
%TD*%
D21*
%TO.C,D2*%
X96725000Y-101470000D03*
D22*
X99265000Y-101470000D03*
%TD*%
D16*
%TO.C,R6*%
X131060000Y-55750000D03*
X123440000Y-55750000D03*
%TD*%
D21*
%TO.C,D1*%
X96725000Y-94000000D03*
D22*
X99265000Y-94000000D03*
%TD*%
D16*
%TO.C,C7*%
X134000000Y-122000000D03*
X136500000Y-122000000D03*
%TD*%
%TO.C,C6*%
X167000000Y-135750000D03*
X167000000Y-138250000D03*
%TD*%
%TO.C,C10*%
X179250000Y-52500000D03*
X179250000Y-50000000D03*
%TD*%
D23*
%TO.C,Q1*%
X117270000Y-53500000D03*
D24*
X118540000Y-52230000D03*
X119810000Y-53500000D03*
%TD*%
D20*
%TO.C,J1*%
X96250000Y-111055000D03*
D15*
X96250000Y-113595000D03*
X96250000Y-116135000D03*
%TD*%
D16*
%TO.C,C13*%
X107750000Y-102500000D03*
X105250000Y-102500000D03*
%TD*%
D17*
%TO.C,C1*%
X111750000Y-132500000D03*
D16*
X113750000Y-132500000D03*
%TD*%
%TO.C,R2*%
X105750000Y-64440000D03*
X105750000Y-72060000D03*
%TD*%
D25*
%TO.C,Y1*%
X106500000Y-112650000D03*
X106500000Y-107770000D03*
%TD*%
D16*
%TO.C,C5*%
X170500000Y-63000000D03*
X173000000Y-63000000D03*
%TD*%
%TO.C,R7*%
X171190000Y-57000000D03*
X178810000Y-57000000D03*
%TD*%
M02*
