M48
; DRILL file KiCad 10.0.6 date 2026-10-02T12:35:37
; FORMAT={-:-/ absolute / metric / decimal}
; #@! TF.CreationDate,2026-10-02T12:35:37-04:00
; #@! TF.GenerationSoftware,Kicad,Pcbnew,10.0.6
; #@! TF.FileFunction,Plated,1,4,PTH
FMAT,2
METRIC
; #@! TA.AperFunction,Plated,PTH,ViaDrill
T1C0.300
; #@! TA.AperFunction,Plated,PTH,ComponentDrill
T2C0.750
; #@! TA.AperFunction,Plated,PTH,ComponentDrill
T3C0.800
; #@! TA.AperFunction,Plated,PTH,ComponentDrill
T4C0.900
; #@! TA.AperFunction,Plated,PTH,ComponentDrill
T5C0.950
; #@! TA.AperFunction,Plated,PTH,ComponentDrill
T6C1.000
; #@! TA.AperFunction,Plated,PTH,ComponentDrill
T7C2.300
%
G90
G05
T1
X153.5Y-105.5
X153.5Y-106.5
X153.5Y-107.5
X153.5Y-108.5
X156.75Y-105.75
X156.75Y-106.55
X156.75Y-107.5
X156.75Y-108.5
X158.75Y-84.0
X158.75Y-98.09
X160.25Y-81.0
X162.0Y-72.25
T2
X117.27Y-53.5
X118.54Y-52.23
X119.81Y-53.5
T3
X104.45Y-90.69
X104.45Y-98.31
X105.25Y-102.5
X105.25Y-117.5
X105.75Y-64.44
X105.75Y-72.06
X105.75Y-79.94
X105.75Y-87.56
X106.5Y-107.77
X106.5Y-112.65
X107.75Y-102.5
X107.75Y-117.5
X108.5Y-90.69
X108.5Y-98.31
X111.25Y-138.5
X111.75Y-132.5
X113.01Y-65.57
X113.01Y-68.11
X113.01Y-70.65
X113.01Y-73.19
X113.01Y-75.73
X113.01Y-78.27
X113.01Y-80.81
X113.01Y-83.35
X113.01Y-85.89
X113.01Y-88.43
X113.01Y-90.97
X113.01Y-93.51
X113.01Y-96.05
X113.01Y-98.59
X113.01Y-101.13
X113.01Y-103.67
X113.01Y-106.21
X113.01Y-108.75
X113.01Y-111.29
X113.01Y-113.83
X113.75Y-132.5
X113.75Y-138.5
X120.88Y-122.5
X123.44Y-51.25
X123.44Y-55.75
X128.25Y-65.57
X128.25Y-68.11
X128.25Y-70.65
X128.25Y-73.19
X128.25Y-75.73
X128.25Y-78.27
X128.25Y-80.81
X128.25Y-83.35
X128.25Y-85.89
X128.25Y-88.43
X128.25Y-90.97
X128.25Y-93.51
X128.25Y-96.05
X128.25Y-98.59
X128.25Y-101.13
X128.25Y-103.67
X128.25Y-106.21
X128.25Y-108.75
X128.25Y-111.29
X128.25Y-113.83
X128.5Y-122.5
X131.06Y-51.25
X131.06Y-55.75
X133.0Y-87.25
X133.0Y-89.75
X134.0Y-122.0
X134.88Y-125.05
X134.88Y-127.59
X134.88Y-130.13
X134.88Y-132.67
X134.88Y-135.21
X134.88Y-137.75
X134.88Y-140.29
X136.5Y-122.0
X138.0Y-62.5
X139.0Y-65.47
X139.0Y-68.01
X139.0Y-70.55
X139.0Y-73.09
X139.0Y-75.63
X139.0Y-78.17
X139.0Y-80.71
X139.0Y-83.25
X139.0Y-85.79
X139.0Y-88.33
X140.5Y-62.5
X142.5Y-125.05
X142.5Y-127.59
X142.5Y-130.13
X142.5Y-132.67
X142.5Y-135.21
X142.5Y-137.75
X142.5Y-140.29
X145.5Y-130.25
X145.5Y-132.75
X146.62Y-65.47
X146.62Y-68.01
X146.62Y-70.55
X146.62Y-73.09
X146.62Y-75.63
X146.62Y-78.17
X146.62Y-80.71
X146.62Y-83.25
X146.62Y-85.79
X146.62Y-88.33
X152.38Y-125.01
X152.38Y-127.55
X152.38Y-130.09
X152.38Y-132.63
X152.38Y-135.17
X152.38Y-137.71
X152.38Y-140.25
X156.0Y-65.84
X156.0Y-68.38
X156.0Y-70.92
X156.0Y-73.46
X156.0Y-76.0
X156.0Y-78.54
X156.0Y-81.08
X156.0Y-83.62
X156.0Y-86.16
X156.0Y-88.7
X156.0Y-91.24
X156.0Y-93.78
X156.0Y-96.32
X156.0Y-98.86
X160.0Y-125.01
X160.0Y-127.55
X160.0Y-130.09
X160.0Y-132.63
X160.0Y-135.17
X160.0Y-137.71
X160.0Y-140.25
X163.0Y-125.0
X163.0Y-127.5
X167.0Y-135.75
X167.0Y-138.25
X169.88Y-121.76
X169.88Y-124.3
X169.88Y-126.84
X169.88Y-129.38
X169.88Y-131.92
X169.88Y-134.46
X169.88Y-137.0
X169.88Y-139.54
X170.5Y-63.0
X171.19Y-57.0
X171.24Y-65.84
X171.24Y-68.38
X171.24Y-70.92
X171.24Y-73.46
X171.24Y-76.0
X171.24Y-78.54
X171.24Y-81.08
X171.24Y-83.62
X171.24Y-86.16
X171.24Y-88.7
X171.24Y-91.24
X171.24Y-93.78
X171.24Y-96.32
X171.24Y-98.86
X173.0Y-63.0
X177.5Y-121.76
X177.5Y-124.3
X177.5Y-126.84
X177.5Y-129.38
X177.5Y-131.92
X177.5Y-134.46
X177.5Y-137.0
X177.5Y-139.54
X178.81Y-57.0
X179.25Y-50.0
X179.25Y-52.5
X183.75Y-112.25
X185.75Y-112.25
T4
X96.725Y-94.0
X96.725Y-101.47
X99.265Y-94.0
X99.265Y-101.47
T5
X105.86Y-132.0
X105.86Y-134.5
X107.86Y-132.0
X107.86Y-134.5
T6
X95.75Y-67.5
X95.75Y-72.0
X95.75Y-75.25
X95.75Y-79.75
X95.75Y-83.0
X95.75Y-87.5
X96.25Y-111.055
X96.25Y-113.595
X96.25Y-116.135
X102.25Y-67.5
X102.25Y-72.0
X102.25Y-75.25
X102.25Y-79.75
X102.25Y-83.0
X102.25Y-87.5
X104.01Y-56.0
X111.61Y-56.0
X118.625Y-142.295
X121.165Y-142.295
X123.705Y-142.295
X131.725Y-66.0
X134.265Y-66.0
X184.46Y-54.1
X184.46Y-56.64
X184.46Y-59.18
X184.46Y-61.72
X184.46Y-64.26
X184.46Y-66.8
X184.46Y-69.34
X184.46Y-71.88
X184.46Y-74.42
X184.46Y-76.96
X184.46Y-79.5
X184.46Y-82.04
X184.46Y-84.58
X184.46Y-87.12
X184.46Y-89.66
X184.46Y-92.2
X184.46Y-94.74
X184.46Y-97.28
X184.46Y-99.82
X184.46Y-102.36
X187.0Y-54.1
X187.0Y-56.64
X187.0Y-59.18
X187.0Y-61.72
X187.0Y-64.26
X187.0Y-66.8
X187.0Y-69.34
X187.0Y-71.88
X187.0Y-74.42
X187.0Y-76.96
X187.0Y-79.5
X187.0Y-82.04
X187.0Y-84.58
X187.0Y-87.12
X187.0Y-89.66
X187.0Y-92.2
X187.0Y-94.74
X187.0Y-97.28
X187.0Y-99.82
X187.0Y-102.36
T7
X103.0Y-127.25
X103.0Y-139.25
M30
