%TF.GenerationSoftware,KiCad,Pcbnew,10.0.6*%
%TF.CreationDate,2026-10-02T12:35:44-04:00*%
%TF.ProjectId,sbc_89c51,7362635f-3839-4633-9531-2e6b69636164,rev?*%
%TF.SameCoordinates,Original*%
%TF.FileFunction,Copper,L3,Inr*%
%TF.FilePolarity,Positive*%
%FSLAX46Y46*%
G04 Gerber Fmt 4.6, Leading zero omitted, Abs format (unit mm)*
G04 Created by KiCad (PCBNEW 10.0.6) date 2026-10-02 12:35:44*
%MOMM*%
%LPD*%
G01*
G04 APERTURE LIST*
G04 Aperture macros list*
%AMRoundRect*
0 Rectangle with rounded corners*
0 $1 Rounding radius*
0 $2 $3 $4 $5 $6 $7 $8 $9 X,Y pos of 4 corners*
0 Add a 4 corners polygon primitive as box body*
4,1,4,$2,$3,$4,$5,$6,$7,$8,$9,$2,$3,0*
0 Add four circle primitives for the rounded corners*
1,1,$1+$1,$2,$3*
1,1,$1+$1,$4,$5*
1,1,$1+$1,$6,$7*
1,1,$1+$1,$8,$9*
0 Add four rect primitives between the rounded corners*
20,1,$1+$1,$2,$3,$4,$5,0*
20,1,$1+$1,$4,$5,$6,$7,0*
20,1,$1+$1,$6,$7,$8,$9,0*
20,1,$1+$1,$8,$9,$2,$3,0*%
G04 Aperture macros list end*
%TA.AperFunction,ComponentPad*%
%ADD10R,2.000000X2.000000*%
%TD*%
%TA.AperFunction,ComponentPad*%
%ADD11C,2.000000*%
%TD*%
%TA.AperFunction,ComponentPad*%
%ADD12RoundRect,0.250000X-0.950000X-0.550000X0.950000X-0.550000X0.950000X0.550000X-0.950000X0.550000X0*%
%TD*%
%TA.AperFunction,ComponentPad*%
%ADD13O,2.400000X1.600000*%
%TD*%
%TA.AperFunction,ComponentPad*%
%ADD14RoundRect,0.250000X-0.600000X-0.600000X0.600000X-0.600000X0.600000X0.600000X-0.600000X0.600000X0*%
%TD*%
%TA.AperFunction,ComponentPad*%
%ADD15C,1.700000*%
%TD*%
%TA.AperFunction,ComponentPad*%
%ADD16C,1.600000*%
%TD*%
%TA.AperFunction,ComponentPad*%
%ADD17RoundRect,0.250000X-0.550000X-0.550000X0.550000X-0.550000X0.550000X0.550000X-0.550000X0.550000X0*%
%TD*%
%TA.AperFunction,ComponentPad*%
%ADD18RoundRect,0.250000X-0.550000X0.550000X-0.550000X-0.550000X0.550000X-0.550000X0.550000X0.550000X0*%
%TD*%
%TA.AperFunction,ComponentPad*%
%ADD19C,4.000000*%
%TD*%
%TA.AperFunction,ComponentPad*%
%ADD20R,1.700000X1.700000*%
%TD*%
%TA.AperFunction,ComponentPad*%
%ADD21R,1.800000X1.800000*%
%TD*%
%TA.AperFunction,ComponentPad*%
%ADD22C,1.800000*%
%TD*%
%TA.AperFunction,ComponentPad*%
%ADD23R,1.300000X1.300000*%
%TD*%
%TA.AperFunction,ComponentPad*%
%ADD24C,1.300000*%
%TD*%
%TA.AperFunction,ComponentPad*%
%ADD25C,1.500000*%
%TD*%
%TA.AperFunction,ViaPad*%
%ADD26C,0.600000*%
%TD*%
%TA.AperFunction,Conductor*%
%ADD27C,0.250000*%
%TD*%
%TA.AperFunction,Conductor*%
%ADD28C,0.200000*%
%TD*%
G04 APERTURE END LIST*
D10*
%TO.N,VCC*%
%TO.C,BZ1*%
X104010000Y-56000000D03*
D11*
%TO.N,Net-(BZ1--)*%
X111610000Y-56000000D03*
%TD*%
D12*
%TO.N,/RST_IDE*%
%TO.C,U1*%
X113010000Y-65570000D03*
D13*
%TO.N,/BUZZER*%
X113010000Y-68110000D03*
%TO.N,/USER_BTN*%
X113010000Y-70650000D03*
%TO.N,/USER_LED*%
X113010000Y-73190000D03*
%TO.N,unconnected-(U1-P1.4-Pad5)*%
X113010000Y-75730000D03*
%TO.N,unconnected-(U1-P1.5-Pad6)*%
X113010000Y-78270000D03*
%TO.N,unconnected-(U1-P1.6-Pad7)*%
X113010000Y-80810000D03*
%TO.N,unconnected-(U1-P1.7-Pad8)*%
X113010000Y-83350000D03*
%TO.N,Net-(U1-RST)*%
X113010000Y-85890000D03*
%TO.N,/RxD*%
X113010000Y-88430000D03*
%TO.N,/TxD*%
X113010000Y-90970000D03*
%TO.N,/IRQ_BTN*%
X113010000Y-93510000D03*
%TO.N,unconnected-(U1-P3.3{slash}INT1-Pad13)*%
X113010000Y-96050000D03*
%TO.N,unconnected-(U1-P3.4{slash}T0-Pad14)*%
X113010000Y-98590000D03*
%TO.N,unconnected-(U1-P3.5{slash}T1-Pad15)*%
X113010000Y-101130000D03*
%TO.N,/WR*%
X113010000Y-103670000D03*
%TO.N,/RD*%
X113010000Y-106210000D03*
%TO.N,/X2*%
X113010000Y-108750000D03*
%TO.N,/X1*%
X113010000Y-111290000D03*
%TO.N,GND*%
X113010000Y-113830000D03*
%TO.N,/A8*%
X128250000Y-113830000D03*
%TO.N,/A9*%
X128250000Y-111290000D03*
%TO.N,/A10*%
X128250000Y-108750000D03*
%TO.N,/A11*%
X128250000Y-106210000D03*
%TO.N,/A12*%
X128250000Y-103670000D03*
%TO.N,/A13*%
X128250000Y-101130000D03*
%TO.N,/A14*%
X128250000Y-98590000D03*
%TO.N,/A15*%
X128250000Y-96050000D03*
%TO.N,/PSEN*%
X128250000Y-93510000D03*
%TO.N,/ALE*%
X128250000Y-90970000D03*
%TO.N,VCC*%
X128250000Y-88430000D03*
%TO.N,/D7*%
X128250000Y-85890000D03*
%TO.N,/D6*%
X128250000Y-83350000D03*
%TO.N,/D5*%
X128250000Y-80810000D03*
%TO.N,/D4*%
X128250000Y-78270000D03*
%TO.N,/D3*%
X128250000Y-75730000D03*
%TO.N,/D2*%
X128250000Y-73190000D03*
%TO.N,/D1*%
X128250000Y-70650000D03*
%TO.N,/D0*%
X128250000Y-68110000D03*
%TO.N,/MCU_PWR*%
X128250000Y-65570000D03*
%TD*%
D14*
%TO.N,/RST_IDE*%
%TO.C,J2*%
X184460000Y-54100000D03*
D15*
%TO.N,GND*%
X187000000Y-54100000D03*
%TO.N,/D7*%
X184460000Y-56640000D03*
%TO.N,GND*%
X187000000Y-56640000D03*
%TO.N,/D6*%
X184460000Y-59180000D03*
%TO.N,GND*%
X187000000Y-59180000D03*
%TO.N,/D5*%
X184460000Y-61720000D03*
%TO.N,GND*%
X187000000Y-61720000D03*
%TO.N,/D4*%
X184460000Y-64260000D03*
%TO.N,GND*%
X187000000Y-64260000D03*
%TO.N,/D3*%
X184460000Y-66800000D03*
%TO.N,GND*%
X187000000Y-66800000D03*
%TO.N,/D2*%
X184460000Y-69340000D03*
%TO.N,GND*%
X187000000Y-69340000D03*
%TO.N,/D1*%
X184460000Y-71880000D03*
%TO.N,GND*%
X187000000Y-71880000D03*
%TO.N,/D0*%
X184460000Y-74420000D03*
%TO.N,GND*%
X187000000Y-74420000D03*
X184460000Y-76960000D03*
%TO.N,VCC*%
X187000000Y-76960000D03*
%TO.N,unconnected-(J2-Pin_21-Pad21)*%
X184460000Y-79500000D03*
%TO.N,GND*%
X187000000Y-79500000D03*
%TO.N,/WR*%
X184460000Y-82040000D03*
%TO.N,GND*%
X187000000Y-82040000D03*
%TO.N,/RD*%
X184460000Y-84580000D03*
%TO.N,GND*%
X187000000Y-84580000D03*
%TO.N,unconnected-(J2-Pin_27-Pad27)*%
X184460000Y-87120000D03*
%TO.N,unconnected-(J2-Pin_28-Pad28)*%
X187000000Y-87120000D03*
%TO.N,unconnected-(J2-Pin_29-Pad29)*%
X184460000Y-89660000D03*
%TO.N,GND*%
X187000000Y-89660000D03*
%TO.N,unconnected-(J2-Pin_31-Pad31)*%
X184460000Y-92200000D03*
%TO.N,unconnected-(J2-Pin_32-Pad32)*%
X187000000Y-92200000D03*
%TO.N,/A1*%
X184460000Y-94740000D03*
%TO.N,unconnected-(J2-Pin_34-Pad34)*%
X187000000Y-94740000D03*
%TO.N,/A0*%
X184460000Y-97280000D03*
%TO.N,/A2*%
X187000000Y-97280000D03*
%TO.N,/CS0*%
X184460000Y-99820000D03*
%TO.N,/CS1*%
X187000000Y-99820000D03*
%TO.N,unconnected-(J2-Pin_39-Pad39)*%
X184460000Y-102360000D03*
%TO.N,unconnected-(J2-Pin_40-Pad40)*%
X187000000Y-102360000D03*
%TD*%
%TO.N,VCC*%
%TO.C,SW1*%
X95750000Y-67500000D03*
X102250000Y-67500000D03*
%TO.N,Net-(U1-RST)*%
X95750000Y-72000000D03*
X102250000Y-72000000D03*
%TD*%
%TO.N,GND*%
%TO.C,SW2*%
X95750000Y-75250000D03*
X102250000Y-75250000D03*
%TO.N,/USER_BTN*%
X95750000Y-79750000D03*
X102250000Y-79750000D03*
%TD*%
D16*
%TO.N,VCC*%
%TO.C,C3*%
X133000000Y-89750000D03*
%TO.N,GND*%
X133000000Y-87250000D03*
%TD*%
D12*
%TO.N,VCC*%
%TO.C,U4*%
X134880000Y-125050000D03*
D13*
%TO.N,unconnected-(U4-GP0-Pad2)*%
X134880000Y-127590000D03*
%TO.N,unconnected-(U4-GP1-Pad3)*%
X134880000Y-130130000D03*
%TO.N,Net-(U4-~{RST})*%
X134880000Y-132670000D03*
%TO.N,/TxD*%
X134880000Y-135210000D03*
%TO.N,/RxD*%
X134880000Y-137750000D03*
%TO.N,unconnected-(U4-GP2-Pad7)*%
X134880000Y-140290000D03*
%TO.N,unconnected-(U4-GP3-Pad8)*%
X142500000Y-140290000D03*
%TO.N,unconnected-(U4-SDA-Pad9)*%
X142500000Y-137750000D03*
%TO.N,unconnected-(U4-SCL-Pad10)*%
X142500000Y-135210000D03*
%TO.N,Net-(U4-VUSB)*%
X142500000Y-132670000D03*
%TO.N,Net-(J4-D-)*%
X142500000Y-130130000D03*
%TO.N,Net-(J4-D+)*%
X142500000Y-127590000D03*
%TO.N,GND*%
X142500000Y-125050000D03*
%TD*%
D17*
%TO.N,VCC*%
%TO.C,C9*%
X183750000Y-112250000D03*
D16*
%TO.N,GND*%
X185750000Y-112250000D03*
%TD*%
%TO.N,GND*%
%TO.C,C12*%
X107750000Y-117500000D03*
%TO.N,/X1*%
X105250000Y-117500000D03*
%TD*%
%TO.N,VCC*%
%TO.C,C8*%
X163000000Y-125000000D03*
%TO.N,GND*%
X163000000Y-127500000D03*
%TD*%
D18*
%TO.N,/VBUS*%
%TO.C,J4*%
X107860000Y-134500000D03*
D16*
%TO.N,Net-(J4-D-)*%
X107860000Y-132000000D03*
%TO.N,Net-(J4-D+)*%
X105860000Y-132000000D03*
%TO.N,GND*%
X105860000Y-134500000D03*
D19*
X103000000Y-139250000D03*
X103000000Y-127250000D03*
%TD*%
D15*
%TO.N,GND*%
%TO.C,SW3*%
X95750000Y-83000000D03*
X102250000Y-83000000D03*
%TO.N,/IRQ_BTN*%
X95750000Y-87500000D03*
X102250000Y-87500000D03*
%TD*%
D16*
%TO.N,/USER_LED*%
%TO.C,R4*%
X108500000Y-98310000D03*
%TO.N,Net-(D2-A)*%
X108500000Y-90690000D03*
%TD*%
%TO.N,VCC*%
%TO.C,R3*%
X104450000Y-98310000D03*
%TO.N,Net-(D1-A)*%
X104450000Y-90690000D03*
%TD*%
D12*
%TO.N,/A14*%
%TO.C,U3*%
X156000000Y-65840000D03*
D13*
%TO.N,/A12*%
X156000000Y-68380000D03*
%TO.N,/A7*%
X156000000Y-70920000D03*
%TO.N,/A6*%
X156000000Y-73460000D03*
%TO.N,/A5*%
X156000000Y-76000000D03*
%TO.N,/A4*%
X156000000Y-78540000D03*
%TO.N,/A3*%
X156000000Y-81080000D03*
%TO.N,/A2*%
X156000000Y-83620000D03*
%TO.N,/A1*%
X156000000Y-86160000D03*
%TO.N,/A0*%
X156000000Y-88700000D03*
%TO.N,/D0*%
X156000000Y-91240000D03*
%TO.N,/D1*%
X156000000Y-93780000D03*
%TO.N,/D2*%
X156000000Y-96320000D03*
%TO.N,GND*%
X156000000Y-98860000D03*
%TO.N,/D3*%
X171240000Y-98860000D03*
%TO.N,/D4*%
X171240000Y-96320000D03*
%TO.N,/D5*%
X171240000Y-93780000D03*
%TO.N,/D6*%
X171240000Y-91240000D03*
%TO.N,/D7*%
X171240000Y-88700000D03*
%TO.N,Net-(U3-~{CS})*%
X171240000Y-86160000D03*
%TO.N,/A10*%
X171240000Y-83620000D03*
%TO.N,Net-(U3-~{OE})*%
X171240000Y-81080000D03*
%TO.N,/A11*%
X171240000Y-78540000D03*
%TO.N,/A9*%
X171240000Y-76000000D03*
%TO.N,/A8*%
X171240000Y-73460000D03*
%TO.N,/A13*%
X171240000Y-70920000D03*
%TO.N,/WR*%
X171240000Y-68380000D03*
%TO.N,VCC*%
X171240000Y-65840000D03*
%TD*%
D12*
%TO.N,GND*%
%TO.C,U2*%
X139000000Y-65470000D03*
D13*
%TO.N,/D0*%
X139000000Y-68010000D03*
%TO.N,/D1*%
X139000000Y-70550000D03*
%TO.N,/D2*%
X139000000Y-73090000D03*
%TO.N,/D3*%
X139000000Y-75630000D03*
%TO.N,/D4*%
X139000000Y-78170000D03*
%TO.N,/D5*%
X139000000Y-80710000D03*
%TO.N,/D6*%
X139000000Y-83250000D03*
%TO.N,/D7*%
X139000000Y-85790000D03*
%TO.N,GND*%
X139000000Y-88330000D03*
%TO.N,/ALE*%
X146620000Y-88330000D03*
%TO.N,/A7*%
X146620000Y-85790000D03*
%TO.N,/A6*%
X146620000Y-83250000D03*
%TO.N,/A5*%
X146620000Y-80710000D03*
%TO.N,/A4*%
X146620000Y-78170000D03*
%TO.N,/A3*%
X146620000Y-75630000D03*
%TO.N,/A2*%
X146620000Y-73090000D03*
%TO.N,/A1*%
X146620000Y-70550000D03*
%TO.N,/A0*%
X146620000Y-68010000D03*
%TO.N,VCC*%
X146620000Y-65470000D03*
%TD*%
D16*
%TO.N,Net-(U4-VUSB)*%
%TO.C,C11*%
X145500000Y-132750000D03*
%TO.N,GND*%
X145500000Y-130250000D03*
%TD*%
%TO.N,VCC*%
%TO.C,C4*%
X138000000Y-62500000D03*
%TO.N,GND*%
X140500000Y-62500000D03*
%TD*%
D12*
%TO.N,/A12*%
%TO.C,U6*%
X169880000Y-121760000D03*
D13*
%TO.N,/A13*%
X169880000Y-124300000D03*
%TO.N,/A14*%
X169880000Y-126840000D03*
%TO.N,/A15*%
X169880000Y-129380000D03*
%TO.N,GND*%
X169880000Y-131920000D03*
%TO.N,VCC*%
X169880000Y-134460000D03*
%TO.N,unconnected-(U6-~{Y7}-Pad7)*%
X169880000Y-137000000D03*
%TO.N,GND*%
X169880000Y-139540000D03*
%TO.N,unconnected-(U6-~{Y6}-Pad9)*%
X177500000Y-139540000D03*
%TO.N,/CS1*%
X177500000Y-137000000D03*
%TO.N,/CS0*%
X177500000Y-134460000D03*
%TO.N,unconnected-(U6-~{Y3}-Pad12)*%
X177500000Y-131920000D03*
%TO.N,unconnected-(U6-~{Y2}-Pad13)*%
X177500000Y-129380000D03*
%TO.N,unconnected-(U6-~{Y1}-Pad14)*%
X177500000Y-126840000D03*
%TO.N,unconnected-(U6-~{Y0}-Pad15)*%
X177500000Y-124300000D03*
%TO.N,VCC*%
X177500000Y-121760000D03*
%TD*%
D20*
%TO.N,VCC*%
%TO.C,SW4*%
X123705000Y-142295000D03*
D15*
%TO.N,/VBUS*%
X121165000Y-142295000D03*
%TO.N,unconnected-(SW4-C-Pad3)*%
X118625000Y-142295000D03*
%TD*%
D16*
%TO.N,VCC*%
%TO.C,R5*%
X105750000Y-79940000D03*
%TO.N,/IRQ_BTN*%
X105750000Y-87560000D03*
%TD*%
D12*
%TO.N,/PSEN*%
%TO.C,U5*%
X152380000Y-125010000D03*
D13*
%TO.N,/RD*%
X152380000Y-127550000D03*
%TO.N,Net-(U5-Pad3)*%
X152380000Y-130090000D03*
X152380000Y-132630000D03*
X152380000Y-135170000D03*
%TO.N,Net-(U3-~{OE})*%
X152380000Y-137710000D03*
%TO.N,GND*%
X152380000Y-140250000D03*
%TO.N,Net-(U3-~{CS})*%
X160000000Y-140250000D03*
%TO.N,/A15*%
X160000000Y-137710000D03*
X160000000Y-135170000D03*
%TO.N,unconnected-(U5-Pad11)*%
X160000000Y-132630000D03*
%TO.N,GND*%
X160000000Y-130090000D03*
X160000000Y-127550000D03*
%TO.N,VCC*%
X160000000Y-125010000D03*
%TD*%
D16*
%TO.N,VCC*%
%TO.C,R1*%
X120880000Y-122500000D03*
%TO.N,Net-(U4-~{RST})*%
X128500000Y-122500000D03*
%TD*%
%TO.N,VCC*%
%TO.C,C2*%
X111250000Y-138500000D03*
%TO.N,GND*%
X113750000Y-138500000D03*
%TD*%
D17*
%TO.N,Net-(BZ1--)*%
%TO.C,D3*%
X123440000Y-51250000D03*
D16*
%TO.N,Net-(D3-A)*%
X131060000Y-51250000D03*
%TD*%
D20*
%TO.N,/MCU_PWR*%
%TO.C,J3*%
X131725000Y-66000000D03*
D15*
%TO.N,VCC*%
X134265000Y-66000000D03*
%TD*%
D21*
%TO.N,GND*%
%TO.C,D2*%
X96725000Y-101470000D03*
D22*
%TO.N,Net-(D2-A)*%
X99265000Y-101470000D03*
%TD*%
D16*
%TO.N,/BUZZER*%
%TO.C,R6*%
X131060000Y-55750000D03*
%TO.N,Net-(Q1-B)*%
X123440000Y-55750000D03*
%TD*%
D21*
%TO.N,GND*%
%TO.C,D1*%
X96725000Y-94000000D03*
D22*
%TO.N,Net-(D1-A)*%
X99265000Y-94000000D03*
%TD*%
D16*
%TO.N,VCC*%
%TO.C,C7*%
X134000000Y-122000000D03*
%TO.N,GND*%
X136500000Y-122000000D03*
%TD*%
%TO.N,VCC*%
%TO.C,C6*%
X167000000Y-135750000D03*
%TO.N,GND*%
X167000000Y-138250000D03*
%TD*%
%TO.N,VCC*%
%TO.C,C10*%
X179250000Y-52500000D03*
%TO.N,GND*%
X179250000Y-50000000D03*
%TD*%
D23*
%TO.N,Net-(Q1-B)*%
%TO.C,Q1*%
X117270000Y-53500000D03*
D24*
%TO.N,Net-(D3-A)*%
X118540000Y-52230000D03*
%TO.N,GND*%
X119810000Y-53500000D03*
%TD*%
D20*
%TO.N,GND*%
%TO.C,J1*%
X96250000Y-111055000D03*
D15*
%TO.N,/TxD*%
X96250000Y-113595000D03*
%TO.N,/RxD*%
X96250000Y-116135000D03*
%TD*%
D16*
%TO.N,GND*%
%TO.C,C13*%
X107750000Y-102500000D03*
%TO.N,/X2*%
X105250000Y-102500000D03*
%TD*%
D17*
%TO.N,VCC*%
%TO.C,C1*%
X111750000Y-132500000D03*
D16*
%TO.N,GND*%
X113750000Y-132500000D03*
%TD*%
%TO.N,GND*%
%TO.C,R2*%
X105750000Y-64440000D03*
%TO.N,Net-(U1-RST)*%
X105750000Y-72060000D03*
%TD*%
D25*
%TO.N,/X1*%
%TO.C,Y1*%
X106500000Y-112650000D03*
%TO.N,/X2*%
X106500000Y-107770000D03*
%TD*%
D16*
%TO.N,VCC*%
%TO.C,C5*%
X170500000Y-63000000D03*
%TO.N,GND*%
X173000000Y-63000000D03*
%TD*%
%TO.N,VCC*%
%TO.C,R7*%
X171190000Y-57000000D03*
%TO.N,/RST_IDE*%
X178810000Y-57000000D03*
%TD*%
D26*
%TO.N,/A12*%
X153500000Y-108500000D03*
X156750000Y-108500000D03*
%TO.N,/A13*%
X156750000Y-107500000D03*
X153500000Y-107500000D03*
%TO.N,/A14*%
X158750000Y-84000000D03*
X156750000Y-106550003D03*
X158750000Y-98090000D03*
X153500000Y-106500000D03*
%TO.N,/A15*%
X156750000Y-105750000D03*
X153500000Y-105500000D03*
%TO.N,/A3*%
X162000000Y-72250000D03*
X160250000Y-81000000D03*
%TD*%
%TO.N,VCC*%
D27*
X147675000Y-64415000D02*
X146620000Y-65470000D01*
X104325000Y-69575000D02*
X102250000Y-67500000D01*
X145075000Y-63925000D02*
X139425000Y-63925000D01*
X188475000Y-102970966D02*
X188475000Y-78435000D01*
X137175000Y-79505000D02*
X128250000Y-88430000D01*
X188475000Y-75485000D02*
X188475000Y-53489034D01*
X175675000Y-123585000D02*
X177500000Y-121760000D01*
X111750000Y-130250000D02*
X101500000Y-120000000D01*
X171240000Y-65840000D02*
X169815000Y-64415000D01*
X171190000Y-57000000D02*
X174750000Y-57000000D01*
X102250000Y-67500000D02*
X95750000Y-67500000D01*
X111750000Y-131630000D02*
X111750000Y-132500000D01*
X104450000Y-98310000D02*
X106000000Y-96760000D01*
X102250000Y-67500000D02*
X102250000Y-66297919D01*
X104450000Y-98310000D02*
X101500000Y-101260000D01*
X137175000Y-63325000D02*
X137175000Y-79505000D01*
X134000000Y-124170000D02*
X134000000Y-122000000D01*
X121910000Y-140500000D02*
X113250000Y-140500000D01*
X158575000Y-123585000D02*
X160000000Y-125010000D01*
X175675000Y-128665000D02*
X175675000Y-123585000D01*
X123705000Y-142295000D02*
X121910000Y-140500000D01*
X131680000Y-88430000D02*
X133000000Y-89750000D01*
X134880000Y-125050000D02*
X134000000Y-124170000D01*
X177500000Y-118500000D02*
X183750000Y-112250000D01*
X113250000Y-140500000D02*
X111250000Y-138500000D01*
X136250000Y-60750000D02*
X108760000Y-60750000D01*
X106000000Y-89325255D02*
X107175000Y-88150255D01*
X134265000Y-66000000D02*
X137765000Y-62500000D01*
X169880000Y-134460000D02*
X175675000Y-128665000D01*
X107175000Y-81365000D02*
X105750000Y-79940000D01*
X187000000Y-76960000D02*
X188475000Y-75485000D01*
X136250000Y-60750000D02*
X138000000Y-62500000D01*
X168590000Y-135750000D02*
X169880000Y-134460000D01*
X107797919Y-60750000D02*
X108760000Y-60750000D01*
X107175000Y-88150255D02*
X107175000Y-81365000D01*
X102250000Y-66297919D02*
X107797919Y-60750000D01*
X170500000Y-63000000D02*
X170500000Y-65100000D01*
X177500000Y-121760000D02*
X177500000Y-118500000D01*
X111750000Y-132500000D02*
X111750000Y-138000000D01*
X169815000Y-64415000D02*
X147675000Y-64415000D01*
X160000000Y-125010000D02*
X162990000Y-125010000D01*
X167000000Y-129000000D02*
X167000000Y-135750000D01*
X188475000Y-53489034D02*
X187485966Y-52500000D01*
X105750000Y-79940000D02*
X104325000Y-78515000D01*
X134880000Y-125050000D02*
X136345000Y-123585000D01*
X170500000Y-61500000D02*
X170500000Y-63000000D01*
X183750000Y-107695966D02*
X188475000Y-102970966D01*
X174750000Y-57000000D02*
X179250000Y-52500000D01*
X163000000Y-125000000D02*
X167000000Y-129000000D01*
X138000000Y-62500000D02*
X137175000Y-63325000D01*
X137765000Y-62500000D02*
X138000000Y-62500000D01*
X120880000Y-122500000D02*
X111750000Y-131630000D01*
X136345000Y-123585000D02*
X158575000Y-123585000D01*
X179250000Y-52500000D02*
X179250000Y-52750000D01*
X167000000Y-135750000D02*
X168590000Y-135750000D01*
X187485966Y-52500000D02*
X179250000Y-52500000D01*
X146620000Y-65470000D02*
X145075000Y-63925000D01*
X171190000Y-60810000D02*
X171190000Y-57000000D01*
X111750000Y-132500000D02*
X111750000Y-130250000D01*
X139425000Y-63925000D02*
X138000000Y-62500000D01*
X111750000Y-138000000D02*
X111250000Y-138500000D01*
X170500000Y-65100000D02*
X171240000Y-65840000D01*
X108760000Y-60750000D02*
X104010000Y-56000000D01*
X111750000Y-132500000D02*
X111750000Y-131750000D01*
X162990000Y-125010000D02*
X163000000Y-125000000D01*
X104325000Y-78515000D02*
X104325000Y-69575000D01*
X106000000Y-96760000D02*
X106000000Y-89325255D01*
X183750000Y-112250000D02*
X183750000Y-107695966D01*
X170500000Y-61500000D02*
X171190000Y-60810000D01*
X188475000Y-78435000D02*
X187000000Y-76960000D01*
X101500000Y-120000000D02*
X101500000Y-101260000D01*
X128250000Y-88430000D02*
X131680000Y-88430000D01*
%TO.N,/MCU_PWR*%
D28*
X131725000Y-66000000D02*
X128680000Y-66000000D01*
X128680000Y-66000000D02*
X128250000Y-65570000D01*
%TO.N,/VBUS*%
D27*
X107860000Y-134500000D02*
X107860000Y-139110000D01*
X107860000Y-139110000D02*
X113250000Y-144500000D01*
X113250000Y-144500000D02*
X118960000Y-144500000D01*
X118960000Y-144500000D02*
X121165000Y-142295000D01*
%TD*%
M02*
