%TF.GenerationSoftware,KiCad,Pcbnew,10.0.6*%
%TF.CreationDate,2026-10-02T12:35:44-04:00*%
%TF.ProjectId,sbc_89c51,7362635f-3839-4633-9531-2e6b69636164,rev?*%
%TF.SameCoordinates,Original*%
%TF.FileFunction,Legend,Top*%
%TF.FilePolarity,Positive*%
%FSLAX46Y46*%
G04 Gerber Fmt 4.6, Leading zero omitted, Abs format (unit mm)*
G04 Created by KiCad (PCBNEW 10.0.6) date 2026-10-02 12:35:44*
%MOMM*%
%LPD*%
G01*
G04 APERTURE LIST*
%ADD10C,0.300000*%
%ADD11C,1.000000*%
%ADD12C,0.150000*%
%ADD13C,0.125000*%
%ADD14C,0.120000*%
G04 APERTURE END LIST*
D10*
X98840225Y-110372257D02*
X98697368Y-110300828D01*
X98697368Y-110300828D02*
X98483082Y-110300828D01*
X98483082Y-110300828D02*
X98268796Y-110372257D01*
X98268796Y-110372257D02*
X98125939Y-110515114D01*
X98125939Y-110515114D02*
X98054510Y-110657971D01*
X98054510Y-110657971D02*
X97983082Y-110943685D01*
X97983082Y-110943685D02*
X97983082Y-111157971D01*
X97983082Y-111157971D02*
X98054510Y-111443685D01*
X98054510Y-111443685D02*
X98125939Y-111586542D01*
X98125939Y-111586542D02*
X98268796Y-111729400D01*
X98268796Y-111729400D02*
X98483082Y-111800828D01*
X98483082Y-111800828D02*
X98625939Y-111800828D01*
X98625939Y-111800828D02*
X98840225Y-111729400D01*
X98840225Y-111729400D02*
X98911653Y-111657971D01*
X98911653Y-111657971D02*
X98911653Y-111157971D01*
X98911653Y-111157971D02*
X98625939Y-111157971D01*
X99554510Y-111800828D02*
X99554510Y-110300828D01*
X99554510Y-110300828D02*
X100411653Y-111800828D01*
X100411653Y-111800828D02*
X100411653Y-110300828D01*
X101125939Y-111800828D02*
X101125939Y-110300828D01*
X101125939Y-110300828D02*
X101483082Y-110300828D01*
X101483082Y-110300828D02*
X101697368Y-110372257D01*
X101697368Y-110372257D02*
X101840225Y-110515114D01*
X101840225Y-110515114D02*
X101911654Y-110657971D01*
X101911654Y-110657971D02*
X101983082Y-110943685D01*
X101983082Y-110943685D02*
X101983082Y-111157971D01*
X101983082Y-111157971D02*
X101911654Y-111443685D01*
X101911654Y-111443685D02*
X101840225Y-111586542D01*
X101840225Y-111586542D02*
X101697368Y-111729400D01*
X101697368Y-111729400D02*
X101483082Y-111800828D01*
X101483082Y-111800828D02*
X101125939Y-111800828D01*
X98090225Y-112800828D02*
X98947368Y-112800828D01*
X98518796Y-114300828D02*
X98518796Y-112800828D01*
X99304510Y-114300828D02*
X100090225Y-113300828D01*
X99304510Y-113300828D02*
X100090225Y-114300828D01*
X99161653Y-117050828D02*
X98661653Y-116336542D01*
X98304510Y-117050828D02*
X98304510Y-115550828D01*
X98304510Y-115550828D02*
X98875939Y-115550828D01*
X98875939Y-115550828D02*
X99018796Y-115622257D01*
X99018796Y-115622257D02*
X99090225Y-115693685D01*
X99090225Y-115693685D02*
X99161653Y-115836542D01*
X99161653Y-115836542D02*
X99161653Y-116050828D01*
X99161653Y-116050828D02*
X99090225Y-116193685D01*
X99090225Y-116193685D02*
X99018796Y-116265114D01*
X99018796Y-116265114D02*
X98875939Y-116336542D01*
X98875939Y-116336542D02*
X98304510Y-116336542D01*
X99661653Y-117050828D02*
X100447368Y-116050828D01*
X99661653Y-116050828D02*
X100447368Y-117050828D01*
X117554510Y-146800828D02*
X117554510Y-145300828D01*
X117554510Y-145300828D02*
X118125939Y-145300828D01*
X118125939Y-145300828D02*
X118268796Y-145372257D01*
X118268796Y-145372257D02*
X118340225Y-145443685D01*
X118340225Y-145443685D02*
X118411653Y-145586542D01*
X118411653Y-145586542D02*
X118411653Y-145800828D01*
X118411653Y-145800828D02*
X118340225Y-145943685D01*
X118340225Y-145943685D02*
X118268796Y-146015114D01*
X118268796Y-146015114D02*
X118125939Y-146086542D01*
X118125939Y-146086542D02*
X117554510Y-146086542D01*
X119340225Y-145300828D02*
X119625939Y-145300828D01*
X119625939Y-145300828D02*
X119768796Y-145372257D01*
X119768796Y-145372257D02*
X119911653Y-145515114D01*
X119911653Y-145515114D02*
X119983082Y-145800828D01*
X119983082Y-145800828D02*
X119983082Y-146300828D01*
X119983082Y-146300828D02*
X119911653Y-146586542D01*
X119911653Y-146586542D02*
X119768796Y-146729400D01*
X119768796Y-146729400D02*
X119625939Y-146800828D01*
X119625939Y-146800828D02*
X119340225Y-146800828D01*
X119340225Y-146800828D02*
X119197368Y-146729400D01*
X119197368Y-146729400D02*
X119054510Y-146586542D01*
X119054510Y-146586542D02*
X118983082Y-146300828D01*
X118983082Y-146300828D02*
X118983082Y-145800828D01*
X118983082Y-145800828D02*
X119054510Y-145515114D01*
X119054510Y-145515114D02*
X119197368Y-145372257D01*
X119197368Y-145372257D02*
X119340225Y-145300828D01*
X120483082Y-145300828D02*
X120840225Y-146800828D01*
X120840225Y-146800828D02*
X121125939Y-145729400D01*
X121125939Y-145729400D02*
X121411654Y-146800828D01*
X121411654Y-146800828D02*
X121768797Y-145300828D01*
X122340225Y-146015114D02*
X122840225Y-146015114D01*
X123054511Y-146800828D02*
X122340225Y-146800828D01*
X122340225Y-146800828D02*
X122340225Y-145300828D01*
X122340225Y-145300828D02*
X123054511Y-145300828D01*
X124554511Y-146800828D02*
X124054511Y-146086542D01*
X123697368Y-146800828D02*
X123697368Y-145300828D01*
X123697368Y-145300828D02*
X124268797Y-145300828D01*
X124268797Y-145300828D02*
X124411654Y-145372257D01*
X124411654Y-145372257D02*
X124483083Y-145443685D01*
X124483083Y-145443685D02*
X124554511Y-145586542D01*
X124554511Y-145586542D02*
X124554511Y-145800828D01*
X124554511Y-145800828D02*
X124483083Y-145943685D01*
X124483083Y-145943685D02*
X124411654Y-146015114D01*
X124411654Y-146015114D02*
X124268797Y-146086542D01*
X124268797Y-146086542D02*
X123697368Y-146086542D01*
X92699171Y-68911653D02*
X93413457Y-68411653D01*
X92699171Y-68054510D02*
X94199171Y-68054510D01*
X94199171Y-68054510D02*
X94199171Y-68625939D01*
X94199171Y-68625939D02*
X94127742Y-68768796D01*
X94127742Y-68768796D02*
X94056314Y-68840225D01*
X94056314Y-68840225D02*
X93913457Y-68911653D01*
X93913457Y-68911653D02*
X93699171Y-68911653D01*
X93699171Y-68911653D02*
X93556314Y-68840225D01*
X93556314Y-68840225D02*
X93484885Y-68768796D01*
X93484885Y-68768796D02*
X93413457Y-68625939D01*
X93413457Y-68625939D02*
X93413457Y-68054510D01*
X92770600Y-69483082D02*
X92699171Y-69697368D01*
X92699171Y-69697368D02*
X92699171Y-70054510D01*
X92699171Y-70054510D02*
X92770600Y-70197368D01*
X92770600Y-70197368D02*
X92842028Y-70268796D01*
X92842028Y-70268796D02*
X92984885Y-70340225D01*
X92984885Y-70340225D02*
X93127742Y-70340225D01*
X93127742Y-70340225D02*
X93270600Y-70268796D01*
X93270600Y-70268796D02*
X93342028Y-70197368D01*
X93342028Y-70197368D02*
X93413457Y-70054510D01*
X93413457Y-70054510D02*
X93484885Y-69768796D01*
X93484885Y-69768796D02*
X93556314Y-69625939D01*
X93556314Y-69625939D02*
X93627742Y-69554510D01*
X93627742Y-69554510D02*
X93770600Y-69483082D01*
X93770600Y-69483082D02*
X93913457Y-69483082D01*
X93913457Y-69483082D02*
X94056314Y-69554510D01*
X94056314Y-69554510D02*
X94127742Y-69625939D01*
X94127742Y-69625939D02*
X94199171Y-69768796D01*
X94199171Y-69768796D02*
X94199171Y-70125939D01*
X94199171Y-70125939D02*
X94127742Y-70340225D01*
X94199171Y-70768796D02*
X94199171Y-71625939D01*
X92699171Y-71197367D02*
X94199171Y-71197367D01*
X94199171Y-75054510D02*
X92984885Y-75054510D01*
X92984885Y-75054510D02*
X92842028Y-75125939D01*
X92842028Y-75125939D02*
X92770600Y-75197368D01*
X92770600Y-75197368D02*
X92699171Y-75340225D01*
X92699171Y-75340225D02*
X92699171Y-75625939D01*
X92699171Y-75625939D02*
X92770600Y-75768796D01*
X92770600Y-75768796D02*
X92842028Y-75840225D01*
X92842028Y-75840225D02*
X92984885Y-75911653D01*
X92984885Y-75911653D02*
X94199171Y-75911653D01*
X92770600Y-76554511D02*
X92699171Y-76768797D01*
X92699171Y-76768797D02*
X92699171Y-77125939D01*
X92699171Y-77125939D02*
X92770600Y-77268797D01*
X92770600Y-77268797D02*
X92842028Y-77340225D01*
X92842028Y-77340225D02*
X92984885Y-77411654D01*
X92984885Y-77411654D02*
X93127742Y-77411654D01*
X93127742Y-77411654D02*
X93270600Y-77340225D01*
X93270600Y-77340225D02*
X93342028Y-77268797D01*
X93342028Y-77268797D02*
X93413457Y-77125939D01*
X93413457Y-77125939D02*
X93484885Y-76840225D01*
X93484885Y-76840225D02*
X93556314Y-76697368D01*
X93556314Y-76697368D02*
X93627742Y-76625939D01*
X93627742Y-76625939D02*
X93770600Y-76554511D01*
X93770600Y-76554511D02*
X93913457Y-76554511D01*
X93913457Y-76554511D02*
X94056314Y-76625939D01*
X94056314Y-76625939D02*
X94127742Y-76697368D01*
X94127742Y-76697368D02*
X94199171Y-76840225D01*
X94199171Y-76840225D02*
X94199171Y-77197368D01*
X94199171Y-77197368D02*
X94127742Y-77411654D01*
X93484885Y-78054510D02*
X93484885Y-78554510D01*
X92699171Y-78768796D02*
X92699171Y-78054510D01*
X92699171Y-78054510D02*
X94199171Y-78054510D01*
X94199171Y-78054510D02*
X94199171Y-78768796D01*
X92699171Y-80268796D02*
X93413457Y-79768796D01*
X92699171Y-79411653D02*
X94199171Y-79411653D01*
X94199171Y-79411653D02*
X94199171Y-79983082D01*
X94199171Y-79983082D02*
X94127742Y-80125939D01*
X94127742Y-80125939D02*
X94056314Y-80197368D01*
X94056314Y-80197368D02*
X93913457Y-80268796D01*
X93913457Y-80268796D02*
X93699171Y-80268796D01*
X93699171Y-80268796D02*
X93556314Y-80197368D01*
X93556314Y-80197368D02*
X93484885Y-80125939D01*
X93484885Y-80125939D02*
X93413457Y-79983082D01*
X93413457Y-79983082D02*
X93413457Y-79411653D01*
X92699171Y-83804510D02*
X94199171Y-83804510D01*
X92699171Y-85375939D02*
X93413457Y-84875939D01*
X92699171Y-84518796D02*
X94199171Y-84518796D01*
X94199171Y-84518796D02*
X94199171Y-85090225D01*
X94199171Y-85090225D02*
X94127742Y-85233082D01*
X94127742Y-85233082D02*
X94056314Y-85304511D01*
X94056314Y-85304511D02*
X93913457Y-85375939D01*
X93913457Y-85375939D02*
X93699171Y-85375939D01*
X93699171Y-85375939D02*
X93556314Y-85304511D01*
X93556314Y-85304511D02*
X93484885Y-85233082D01*
X93484885Y-85233082D02*
X93413457Y-85090225D01*
X93413457Y-85090225D02*
X93413457Y-84518796D01*
X92556314Y-87018796D02*
X92627742Y-86875939D01*
X92627742Y-86875939D02*
X92770600Y-86733082D01*
X92770600Y-86733082D02*
X92984885Y-86518796D01*
X92984885Y-86518796D02*
X93056314Y-86375939D01*
X93056314Y-86375939D02*
X93056314Y-86233082D01*
X92699171Y-86304511D02*
X92770600Y-86161654D01*
X92770600Y-86161654D02*
X92913457Y-86018796D01*
X92913457Y-86018796D02*
X93199171Y-85947368D01*
X93199171Y-85947368D02*
X93699171Y-85947368D01*
X93699171Y-85947368D02*
X93984885Y-86018796D01*
X93984885Y-86018796D02*
X94127742Y-86161654D01*
X94127742Y-86161654D02*
X94199171Y-86304511D01*
X94199171Y-86304511D02*
X94199171Y-86590225D01*
X94199171Y-86590225D02*
X94127742Y-86733082D01*
X94127742Y-86733082D02*
X93984885Y-86875939D01*
X93984885Y-86875939D02*
X93699171Y-86947368D01*
X93699171Y-86947368D02*
X93199171Y-86947368D01*
X93199171Y-86947368D02*
X92913457Y-86875939D01*
X92913457Y-86875939D02*
X92770600Y-86733082D01*
X92770600Y-86733082D02*
X92699171Y-86590225D01*
X92699171Y-86590225D02*
X92699171Y-86304511D01*
X92949171Y-90554510D02*
X94449171Y-90554510D01*
X94449171Y-90554510D02*
X94449171Y-91125939D01*
X94449171Y-91125939D02*
X94377742Y-91268796D01*
X94377742Y-91268796D02*
X94306314Y-91340225D01*
X94306314Y-91340225D02*
X94163457Y-91411653D01*
X94163457Y-91411653D02*
X93949171Y-91411653D01*
X93949171Y-91411653D02*
X93806314Y-91340225D01*
X93806314Y-91340225D02*
X93734885Y-91268796D01*
X93734885Y-91268796D02*
X93663457Y-91125939D01*
X93663457Y-91125939D02*
X93663457Y-90554510D01*
X94449171Y-92340225D02*
X94449171Y-92625939D01*
X94449171Y-92625939D02*
X94377742Y-92768796D01*
X94377742Y-92768796D02*
X94234885Y-92911653D01*
X94234885Y-92911653D02*
X93949171Y-92983082D01*
X93949171Y-92983082D02*
X93449171Y-92983082D01*
X93449171Y-92983082D02*
X93163457Y-92911653D01*
X93163457Y-92911653D02*
X93020600Y-92768796D01*
X93020600Y-92768796D02*
X92949171Y-92625939D01*
X92949171Y-92625939D02*
X92949171Y-92340225D01*
X92949171Y-92340225D02*
X93020600Y-92197368D01*
X93020600Y-92197368D02*
X93163457Y-92054510D01*
X93163457Y-92054510D02*
X93449171Y-91983082D01*
X93449171Y-91983082D02*
X93949171Y-91983082D01*
X93949171Y-91983082D02*
X94234885Y-92054510D01*
X94234885Y-92054510D02*
X94377742Y-92197368D01*
X94377742Y-92197368D02*
X94449171Y-92340225D01*
X94449171Y-93483082D02*
X92949171Y-93840225D01*
X92949171Y-93840225D02*
X94020600Y-94125939D01*
X94020600Y-94125939D02*
X92949171Y-94411654D01*
X92949171Y-94411654D02*
X94449171Y-94768797D01*
X93734885Y-95340225D02*
X93734885Y-95840225D01*
X92949171Y-96054511D02*
X92949171Y-95340225D01*
X92949171Y-95340225D02*
X94449171Y-95340225D01*
X94449171Y-95340225D02*
X94449171Y-96054511D01*
X92949171Y-97554511D02*
X93663457Y-97054511D01*
X92949171Y-96697368D02*
X94449171Y-96697368D01*
X94449171Y-96697368D02*
X94449171Y-97268797D01*
X94449171Y-97268797D02*
X94377742Y-97411654D01*
X94377742Y-97411654D02*
X94306314Y-97483083D01*
X94306314Y-97483083D02*
X94163457Y-97554511D01*
X94163457Y-97554511D02*
X93949171Y-97554511D01*
X93949171Y-97554511D02*
X93806314Y-97483083D01*
X93806314Y-97483083D02*
X93734885Y-97411654D01*
X93734885Y-97411654D02*
X93663457Y-97268797D01*
X93663457Y-97268797D02*
X93663457Y-96697368D01*
X94449171Y-99054510D02*
X93234885Y-99054510D01*
X93234885Y-99054510D02*
X93092028Y-99125939D01*
X93092028Y-99125939D02*
X93020600Y-99197368D01*
X93020600Y-99197368D02*
X92949171Y-99340225D01*
X92949171Y-99340225D02*
X92949171Y-99625939D01*
X92949171Y-99625939D02*
X93020600Y-99768796D01*
X93020600Y-99768796D02*
X93092028Y-99840225D01*
X93092028Y-99840225D02*
X93234885Y-99911653D01*
X93234885Y-99911653D02*
X94449171Y-99911653D01*
X93020600Y-100554511D02*
X92949171Y-100768797D01*
X92949171Y-100768797D02*
X92949171Y-101125939D01*
X92949171Y-101125939D02*
X93020600Y-101268797D01*
X93020600Y-101268797D02*
X93092028Y-101340225D01*
X93092028Y-101340225D02*
X93234885Y-101411654D01*
X93234885Y-101411654D02*
X93377742Y-101411654D01*
X93377742Y-101411654D02*
X93520600Y-101340225D01*
X93520600Y-101340225D02*
X93592028Y-101268797D01*
X93592028Y-101268797D02*
X93663457Y-101125939D01*
X93663457Y-101125939D02*
X93734885Y-100840225D01*
X93734885Y-100840225D02*
X93806314Y-100697368D01*
X93806314Y-100697368D02*
X93877742Y-100625939D01*
X93877742Y-100625939D02*
X94020600Y-100554511D01*
X94020600Y-100554511D02*
X94163457Y-100554511D01*
X94163457Y-100554511D02*
X94306314Y-100625939D01*
X94306314Y-100625939D02*
X94377742Y-100697368D01*
X94377742Y-100697368D02*
X94449171Y-100840225D01*
X94449171Y-100840225D02*
X94449171Y-101197368D01*
X94449171Y-101197368D02*
X94377742Y-101411654D01*
X93734885Y-102054510D02*
X93734885Y-102554510D01*
X92949171Y-102768796D02*
X92949171Y-102054510D01*
X92949171Y-102054510D02*
X94449171Y-102054510D01*
X94449171Y-102054510D02*
X94449171Y-102768796D01*
X92949171Y-104268796D02*
X93663457Y-103768796D01*
X92949171Y-103411653D02*
X94449171Y-103411653D01*
X94449171Y-103411653D02*
X94449171Y-103983082D01*
X94449171Y-103983082D02*
X94377742Y-104125939D01*
X94377742Y-104125939D02*
X94306314Y-104197368D01*
X94306314Y-104197368D02*
X94163457Y-104268796D01*
X94163457Y-104268796D02*
X93949171Y-104268796D01*
X93949171Y-104268796D02*
X93806314Y-104197368D01*
X93806314Y-104197368D02*
X93734885Y-104125939D01*
X93734885Y-104125939D02*
X93663457Y-103983082D01*
X93663457Y-103983082D02*
X93663457Y-103411653D01*
X120556314Y-87768796D02*
X120627742Y-87625939D01*
X120627742Y-87625939D02*
X120699171Y-87554510D01*
X120699171Y-87554510D02*
X120842028Y-87483082D01*
X120842028Y-87483082D02*
X120913457Y-87483082D01*
X120913457Y-87483082D02*
X121056314Y-87554510D01*
X121056314Y-87554510D02*
X121127742Y-87625939D01*
X121127742Y-87625939D02*
X121199171Y-87768796D01*
X121199171Y-87768796D02*
X121199171Y-88054510D01*
X121199171Y-88054510D02*
X121127742Y-88197368D01*
X121127742Y-88197368D02*
X121056314Y-88268796D01*
X121056314Y-88268796D02*
X120913457Y-88340225D01*
X120913457Y-88340225D02*
X120842028Y-88340225D01*
X120842028Y-88340225D02*
X120699171Y-88268796D01*
X120699171Y-88268796D02*
X120627742Y-88197368D01*
X120627742Y-88197368D02*
X120556314Y-88054510D01*
X120556314Y-88054510D02*
X120556314Y-87768796D01*
X120556314Y-87768796D02*
X120484885Y-87625939D01*
X120484885Y-87625939D02*
X120413457Y-87554510D01*
X120413457Y-87554510D02*
X120270600Y-87483082D01*
X120270600Y-87483082D02*
X119984885Y-87483082D01*
X119984885Y-87483082D02*
X119842028Y-87554510D01*
X119842028Y-87554510D02*
X119770600Y-87625939D01*
X119770600Y-87625939D02*
X119699171Y-87768796D01*
X119699171Y-87768796D02*
X119699171Y-88054510D01*
X119699171Y-88054510D02*
X119770600Y-88197368D01*
X119770600Y-88197368D02*
X119842028Y-88268796D01*
X119842028Y-88268796D02*
X119984885Y-88340225D01*
X119984885Y-88340225D02*
X120270600Y-88340225D01*
X120270600Y-88340225D02*
X120413457Y-88268796D01*
X120413457Y-88268796D02*
X120484885Y-88197368D01*
X120484885Y-88197368D02*
X120556314Y-88054510D01*
X121199171Y-89268796D02*
X121199171Y-89411653D01*
X121199171Y-89411653D02*
X121127742Y-89554510D01*
X121127742Y-89554510D02*
X121056314Y-89625939D01*
X121056314Y-89625939D02*
X120913457Y-89697367D01*
X120913457Y-89697367D02*
X120627742Y-89768796D01*
X120627742Y-89768796D02*
X120270600Y-89768796D01*
X120270600Y-89768796D02*
X119984885Y-89697367D01*
X119984885Y-89697367D02*
X119842028Y-89625939D01*
X119842028Y-89625939D02*
X119770600Y-89554510D01*
X119770600Y-89554510D02*
X119699171Y-89411653D01*
X119699171Y-89411653D02*
X119699171Y-89268796D01*
X119699171Y-89268796D02*
X119770600Y-89125939D01*
X119770600Y-89125939D02*
X119842028Y-89054510D01*
X119842028Y-89054510D02*
X119984885Y-88983081D01*
X119984885Y-88983081D02*
X120270600Y-88911653D01*
X120270600Y-88911653D02*
X120627742Y-88911653D01*
X120627742Y-88911653D02*
X120913457Y-88983081D01*
X120913457Y-88983081D02*
X121056314Y-89054510D01*
X121056314Y-89054510D02*
X121127742Y-89125939D01*
X121127742Y-89125939D02*
X121199171Y-89268796D01*
X121199171Y-91125938D02*
X121199171Y-90411652D01*
X121199171Y-90411652D02*
X120484885Y-90340224D01*
X120484885Y-90340224D02*
X120556314Y-90411652D01*
X120556314Y-90411652D02*
X120627742Y-90554510D01*
X120627742Y-90554510D02*
X120627742Y-90911652D01*
X120627742Y-90911652D02*
X120556314Y-91054510D01*
X120556314Y-91054510D02*
X120484885Y-91125938D01*
X120484885Y-91125938D02*
X120342028Y-91197367D01*
X120342028Y-91197367D02*
X119984885Y-91197367D01*
X119984885Y-91197367D02*
X119842028Y-91125938D01*
X119842028Y-91125938D02*
X119770600Y-91054510D01*
X119770600Y-91054510D02*
X119699171Y-90911652D01*
X119699171Y-90911652D02*
X119699171Y-90554510D01*
X119699171Y-90554510D02*
X119770600Y-90411652D01*
X119770600Y-90411652D02*
X119842028Y-90340224D01*
X119699171Y-92625938D02*
X119699171Y-91768795D01*
X119699171Y-92197366D02*
X121199171Y-92197366D01*
X121199171Y-92197366D02*
X120984885Y-92054509D01*
X120984885Y-92054509D02*
X120842028Y-91911652D01*
X120842028Y-91911652D02*
X120770600Y-91768795D01*
X137949171Y-128304510D02*
X139449171Y-128304510D01*
X139449171Y-128304510D02*
X138377742Y-128804510D01*
X138377742Y-128804510D02*
X139449171Y-129304510D01*
X139449171Y-129304510D02*
X137949171Y-129304510D01*
X138092028Y-130875939D02*
X138020600Y-130804511D01*
X138020600Y-130804511D02*
X137949171Y-130590225D01*
X137949171Y-130590225D02*
X137949171Y-130447368D01*
X137949171Y-130447368D02*
X138020600Y-130233082D01*
X138020600Y-130233082D02*
X138163457Y-130090225D01*
X138163457Y-130090225D02*
X138306314Y-130018796D01*
X138306314Y-130018796D02*
X138592028Y-129947368D01*
X138592028Y-129947368D02*
X138806314Y-129947368D01*
X138806314Y-129947368D02*
X139092028Y-130018796D01*
X139092028Y-130018796D02*
X139234885Y-130090225D01*
X139234885Y-130090225D02*
X139377742Y-130233082D01*
X139377742Y-130233082D02*
X139449171Y-130447368D01*
X139449171Y-130447368D02*
X139449171Y-130590225D01*
X139449171Y-130590225D02*
X139377742Y-130804511D01*
X139377742Y-130804511D02*
X139306314Y-130875939D01*
X137949171Y-131518796D02*
X139449171Y-131518796D01*
X139449171Y-131518796D02*
X139449171Y-132090225D01*
X139449171Y-132090225D02*
X139377742Y-132233082D01*
X139377742Y-132233082D02*
X139306314Y-132304511D01*
X139306314Y-132304511D02*
X139163457Y-132375939D01*
X139163457Y-132375939D02*
X138949171Y-132375939D01*
X138949171Y-132375939D02*
X138806314Y-132304511D01*
X138806314Y-132304511D02*
X138734885Y-132233082D01*
X138734885Y-132233082D02*
X138663457Y-132090225D01*
X138663457Y-132090225D02*
X138663457Y-131518796D01*
X139306314Y-132947368D02*
X139377742Y-133018796D01*
X139377742Y-133018796D02*
X139449171Y-133161654D01*
X139449171Y-133161654D02*
X139449171Y-133518796D01*
X139449171Y-133518796D02*
X139377742Y-133661654D01*
X139377742Y-133661654D02*
X139306314Y-133733082D01*
X139306314Y-133733082D02*
X139163457Y-133804511D01*
X139163457Y-133804511D02*
X139020600Y-133804511D01*
X139020600Y-133804511D02*
X138806314Y-133733082D01*
X138806314Y-133733082D02*
X137949171Y-132875939D01*
X137949171Y-132875939D02*
X137949171Y-133804511D01*
X139306314Y-134375939D02*
X139377742Y-134447367D01*
X139377742Y-134447367D02*
X139449171Y-134590225D01*
X139449171Y-134590225D02*
X139449171Y-134947367D01*
X139449171Y-134947367D02*
X139377742Y-135090225D01*
X139377742Y-135090225D02*
X139306314Y-135161653D01*
X139306314Y-135161653D02*
X139163457Y-135233082D01*
X139163457Y-135233082D02*
X139020600Y-135233082D01*
X139020600Y-135233082D02*
X138806314Y-135161653D01*
X138806314Y-135161653D02*
X137949171Y-134304510D01*
X137949171Y-134304510D02*
X137949171Y-135233082D01*
X139306314Y-135804510D02*
X139377742Y-135875938D01*
X139377742Y-135875938D02*
X139449171Y-136018796D01*
X139449171Y-136018796D02*
X139449171Y-136375938D01*
X139449171Y-136375938D02*
X139377742Y-136518796D01*
X139377742Y-136518796D02*
X139306314Y-136590224D01*
X139306314Y-136590224D02*
X139163457Y-136661653D01*
X139163457Y-136661653D02*
X139020600Y-136661653D01*
X139020600Y-136661653D02*
X138806314Y-136590224D01*
X138806314Y-136590224D02*
X137949171Y-135733081D01*
X137949171Y-135733081D02*
X137949171Y-136661653D01*
X137949171Y-138090224D02*
X137949171Y-137233081D01*
X137949171Y-137661652D02*
X139449171Y-137661652D01*
X139449171Y-137661652D02*
X139234885Y-137518795D01*
X139234885Y-137518795D02*
X139092028Y-137375938D01*
X139092028Y-137375938D02*
X139020600Y-137233081D01*
X143449171Y-71661653D02*
X143449171Y-72661653D01*
X143449171Y-72661653D02*
X141949171Y-72018796D01*
X142949171Y-73875939D02*
X141949171Y-73875939D01*
X143520600Y-73518796D02*
X142449171Y-73161653D01*
X142449171Y-73161653D02*
X142449171Y-74090224D01*
X141949171Y-74661652D02*
X143449171Y-74661652D01*
X142734885Y-74661652D02*
X142734885Y-75518795D01*
X141949171Y-75518795D02*
X143449171Y-75518795D01*
X142092028Y-77090224D02*
X142020600Y-77018796D01*
X142020600Y-77018796D02*
X141949171Y-76804510D01*
X141949171Y-76804510D02*
X141949171Y-76661653D01*
X141949171Y-76661653D02*
X142020600Y-76447367D01*
X142020600Y-76447367D02*
X142163457Y-76304510D01*
X142163457Y-76304510D02*
X142306314Y-76233081D01*
X142306314Y-76233081D02*
X142592028Y-76161653D01*
X142592028Y-76161653D02*
X142806314Y-76161653D01*
X142806314Y-76161653D02*
X143092028Y-76233081D01*
X143092028Y-76233081D02*
X143234885Y-76304510D01*
X143234885Y-76304510D02*
X143377742Y-76447367D01*
X143377742Y-76447367D02*
X143449171Y-76661653D01*
X143449171Y-76661653D02*
X143449171Y-76804510D01*
X143449171Y-76804510D02*
X143377742Y-77018796D01*
X143377742Y-77018796D02*
X143306314Y-77090224D01*
X143449171Y-77518796D02*
X143449171Y-78375939D01*
X141949171Y-77947367D02*
X143449171Y-77947367D01*
X143449171Y-79590224D02*
X143449171Y-78875938D01*
X143449171Y-78875938D02*
X142734885Y-78804510D01*
X142734885Y-78804510D02*
X142806314Y-78875938D01*
X142806314Y-78875938D02*
X142877742Y-79018796D01*
X142877742Y-79018796D02*
X142877742Y-79375938D01*
X142877742Y-79375938D02*
X142806314Y-79518796D01*
X142806314Y-79518796D02*
X142734885Y-79590224D01*
X142734885Y-79590224D02*
X142592028Y-79661653D01*
X142592028Y-79661653D02*
X142234885Y-79661653D01*
X142234885Y-79661653D02*
X142092028Y-79590224D01*
X142092028Y-79590224D02*
X142020600Y-79518796D01*
X142020600Y-79518796D02*
X141949171Y-79375938D01*
X141949171Y-79375938D02*
X141949171Y-79018796D01*
X141949171Y-79018796D02*
X142020600Y-78875938D01*
X142020600Y-78875938D02*
X142092028Y-78804510D01*
X143449171Y-80161652D02*
X143449171Y-81161652D01*
X143449171Y-81161652D02*
X141949171Y-80518795D01*
X143449171Y-81590223D02*
X143449171Y-82518795D01*
X143449171Y-82518795D02*
X142877742Y-82018795D01*
X142877742Y-82018795D02*
X142877742Y-82233080D01*
X142877742Y-82233080D02*
X142806314Y-82375938D01*
X142806314Y-82375938D02*
X142734885Y-82447366D01*
X142734885Y-82447366D02*
X142592028Y-82518795D01*
X142592028Y-82518795D02*
X142234885Y-82518795D01*
X142234885Y-82518795D02*
X142092028Y-82447366D01*
X142092028Y-82447366D02*
X142020600Y-82375938D01*
X142020600Y-82375938D02*
X141949171Y-82233080D01*
X141949171Y-82233080D02*
X141949171Y-81804509D01*
X141949171Y-81804509D02*
X142020600Y-81661652D01*
X142020600Y-81661652D02*
X142092028Y-81590223D01*
X156949171Y-128411653D02*
X156949171Y-129411653D01*
X156949171Y-129411653D02*
X155449171Y-128768796D01*
X156449171Y-130625939D02*
X155449171Y-130625939D01*
X157020600Y-130268796D02*
X155949171Y-129911653D01*
X155949171Y-129911653D02*
X155949171Y-130840224D01*
X155449171Y-131411652D02*
X156949171Y-131411652D01*
X156234885Y-131411652D02*
X156234885Y-132268795D01*
X155449171Y-132268795D02*
X156949171Y-132268795D01*
X155592028Y-133840224D02*
X155520600Y-133768796D01*
X155520600Y-133768796D02*
X155449171Y-133554510D01*
X155449171Y-133554510D02*
X155449171Y-133411653D01*
X155449171Y-133411653D02*
X155520600Y-133197367D01*
X155520600Y-133197367D02*
X155663457Y-133054510D01*
X155663457Y-133054510D02*
X155806314Y-132983081D01*
X155806314Y-132983081D02*
X156092028Y-132911653D01*
X156092028Y-132911653D02*
X156306314Y-132911653D01*
X156306314Y-132911653D02*
X156592028Y-132983081D01*
X156592028Y-132983081D02*
X156734885Y-133054510D01*
X156734885Y-133054510D02*
X156877742Y-133197367D01*
X156877742Y-133197367D02*
X156949171Y-133411653D01*
X156949171Y-133411653D02*
X156949171Y-133554510D01*
X156949171Y-133554510D02*
X156877742Y-133768796D01*
X156877742Y-133768796D02*
X156806314Y-133840224D01*
X156949171Y-134268796D02*
X156949171Y-135125939D01*
X155449171Y-134697367D02*
X156949171Y-134697367D01*
X156949171Y-135911653D02*
X156949171Y-136054510D01*
X156949171Y-136054510D02*
X156877742Y-136197367D01*
X156877742Y-136197367D02*
X156806314Y-136268796D01*
X156806314Y-136268796D02*
X156663457Y-136340224D01*
X156663457Y-136340224D02*
X156377742Y-136411653D01*
X156377742Y-136411653D02*
X156020600Y-136411653D01*
X156020600Y-136411653D02*
X155734885Y-136340224D01*
X155734885Y-136340224D02*
X155592028Y-136268796D01*
X155592028Y-136268796D02*
X155520600Y-136197367D01*
X155520600Y-136197367D02*
X155449171Y-136054510D01*
X155449171Y-136054510D02*
X155449171Y-135911653D01*
X155449171Y-135911653D02*
X155520600Y-135768796D01*
X155520600Y-135768796D02*
X155592028Y-135697367D01*
X155592028Y-135697367D02*
X155734885Y-135625938D01*
X155734885Y-135625938D02*
X156020600Y-135554510D01*
X156020600Y-135554510D02*
X156377742Y-135554510D01*
X156377742Y-135554510D02*
X156663457Y-135625938D01*
X156663457Y-135625938D02*
X156806314Y-135697367D01*
X156806314Y-135697367D02*
X156877742Y-135768796D01*
X156877742Y-135768796D02*
X156949171Y-135911653D01*
X156949171Y-137340224D02*
X156949171Y-137483081D01*
X156949171Y-137483081D02*
X156877742Y-137625938D01*
X156877742Y-137625938D02*
X156806314Y-137697367D01*
X156806314Y-137697367D02*
X156663457Y-137768795D01*
X156663457Y-137768795D02*
X156377742Y-137840224D01*
X156377742Y-137840224D02*
X156020600Y-137840224D01*
X156020600Y-137840224D02*
X155734885Y-137768795D01*
X155734885Y-137768795D02*
X155592028Y-137697367D01*
X155592028Y-137697367D02*
X155520600Y-137625938D01*
X155520600Y-137625938D02*
X155449171Y-137483081D01*
X155449171Y-137483081D02*
X155449171Y-137340224D01*
X155449171Y-137340224D02*
X155520600Y-137197367D01*
X155520600Y-137197367D02*
X155592028Y-137125938D01*
X155592028Y-137125938D02*
X155734885Y-137054509D01*
X155734885Y-137054509D02*
X156020600Y-136983081D01*
X156020600Y-136983081D02*
X156377742Y-136983081D01*
X156377742Y-136983081D02*
X156663457Y-137054509D01*
X156663457Y-137054509D02*
X156806314Y-137125938D01*
X156806314Y-137125938D02*
X156877742Y-137197367D01*
X156877742Y-137197367D02*
X156949171Y-137340224D01*
X164199171Y-79947368D02*
X164199171Y-79661653D01*
X164199171Y-79661653D02*
X164127742Y-79518796D01*
X164127742Y-79518796D02*
X164056314Y-79447368D01*
X164056314Y-79447368D02*
X163842028Y-79304510D01*
X163842028Y-79304510D02*
X163556314Y-79233082D01*
X163556314Y-79233082D02*
X162984885Y-79233082D01*
X162984885Y-79233082D02*
X162842028Y-79304510D01*
X162842028Y-79304510D02*
X162770600Y-79375939D01*
X162770600Y-79375939D02*
X162699171Y-79518796D01*
X162699171Y-79518796D02*
X162699171Y-79804510D01*
X162699171Y-79804510D02*
X162770600Y-79947368D01*
X162770600Y-79947368D02*
X162842028Y-80018796D01*
X162842028Y-80018796D02*
X162984885Y-80090225D01*
X162984885Y-80090225D02*
X163342028Y-80090225D01*
X163342028Y-80090225D02*
X163484885Y-80018796D01*
X163484885Y-80018796D02*
X163556314Y-79947368D01*
X163556314Y-79947368D02*
X163627742Y-79804510D01*
X163627742Y-79804510D02*
X163627742Y-79518796D01*
X163627742Y-79518796D02*
X163556314Y-79375939D01*
X163556314Y-79375939D02*
X163484885Y-79304510D01*
X163484885Y-79304510D02*
X163342028Y-79233082D01*
X164056314Y-80661653D02*
X164127742Y-80733081D01*
X164127742Y-80733081D02*
X164199171Y-80875939D01*
X164199171Y-80875939D02*
X164199171Y-81233081D01*
X164199171Y-81233081D02*
X164127742Y-81375939D01*
X164127742Y-81375939D02*
X164056314Y-81447367D01*
X164056314Y-81447367D02*
X163913457Y-81518796D01*
X163913457Y-81518796D02*
X163770600Y-81518796D01*
X163770600Y-81518796D02*
X163556314Y-81447367D01*
X163556314Y-81447367D02*
X162699171Y-80590224D01*
X162699171Y-80590224D02*
X162699171Y-81518796D01*
X164056314Y-82090224D02*
X164127742Y-82161652D01*
X164127742Y-82161652D02*
X164199171Y-82304510D01*
X164199171Y-82304510D02*
X164199171Y-82661652D01*
X164199171Y-82661652D02*
X164127742Y-82804510D01*
X164127742Y-82804510D02*
X164056314Y-82875938D01*
X164056314Y-82875938D02*
X163913457Y-82947367D01*
X163913457Y-82947367D02*
X163770600Y-82947367D01*
X163770600Y-82947367D02*
X163556314Y-82875938D01*
X163556314Y-82875938D02*
X162699171Y-82018795D01*
X162699171Y-82018795D02*
X162699171Y-82947367D01*
X164199171Y-84304509D02*
X164199171Y-83590223D01*
X164199171Y-83590223D02*
X163484885Y-83518795D01*
X163484885Y-83518795D02*
X163556314Y-83590223D01*
X163556314Y-83590223D02*
X163627742Y-83733081D01*
X163627742Y-83733081D02*
X163627742Y-84090223D01*
X163627742Y-84090223D02*
X163556314Y-84233081D01*
X163556314Y-84233081D02*
X163484885Y-84304509D01*
X163484885Y-84304509D02*
X163342028Y-84375938D01*
X163342028Y-84375938D02*
X162984885Y-84375938D01*
X162984885Y-84375938D02*
X162842028Y-84304509D01*
X162842028Y-84304509D02*
X162770600Y-84233081D01*
X162770600Y-84233081D02*
X162699171Y-84090223D01*
X162699171Y-84090223D02*
X162699171Y-83733081D01*
X162699171Y-83733081D02*
X162770600Y-83590223D01*
X162770600Y-83590223D02*
X162842028Y-83518795D01*
X164199171Y-85661652D02*
X164199171Y-85375937D01*
X164199171Y-85375937D02*
X164127742Y-85233080D01*
X164127742Y-85233080D02*
X164056314Y-85161652D01*
X164056314Y-85161652D02*
X163842028Y-85018794D01*
X163842028Y-85018794D02*
X163556314Y-84947366D01*
X163556314Y-84947366D02*
X162984885Y-84947366D01*
X162984885Y-84947366D02*
X162842028Y-85018794D01*
X162842028Y-85018794D02*
X162770600Y-85090223D01*
X162770600Y-85090223D02*
X162699171Y-85233080D01*
X162699171Y-85233080D02*
X162699171Y-85518794D01*
X162699171Y-85518794D02*
X162770600Y-85661652D01*
X162770600Y-85661652D02*
X162842028Y-85733080D01*
X162842028Y-85733080D02*
X162984885Y-85804509D01*
X162984885Y-85804509D02*
X163342028Y-85804509D01*
X163342028Y-85804509D02*
X163484885Y-85733080D01*
X163484885Y-85733080D02*
X163556314Y-85661652D01*
X163556314Y-85661652D02*
X163627742Y-85518794D01*
X163627742Y-85518794D02*
X163627742Y-85233080D01*
X163627742Y-85233080D02*
X163556314Y-85090223D01*
X163556314Y-85090223D02*
X163484885Y-85018794D01*
X163484885Y-85018794D02*
X163342028Y-84947366D01*
X174449171Y-125161653D02*
X174449171Y-126161653D01*
X174449171Y-126161653D02*
X172949171Y-125518796D01*
X173949171Y-127375939D02*
X172949171Y-127375939D01*
X174520600Y-127018796D02*
X173449171Y-126661653D01*
X173449171Y-126661653D02*
X173449171Y-127590224D01*
X172949171Y-128161652D02*
X174449171Y-128161652D01*
X173734885Y-128161652D02*
X173734885Y-129018795D01*
X172949171Y-129018795D02*
X174449171Y-129018795D01*
X173092028Y-130590224D02*
X173020600Y-130518796D01*
X173020600Y-130518796D02*
X172949171Y-130304510D01*
X172949171Y-130304510D02*
X172949171Y-130161653D01*
X172949171Y-130161653D02*
X173020600Y-129947367D01*
X173020600Y-129947367D02*
X173163457Y-129804510D01*
X173163457Y-129804510D02*
X173306314Y-129733081D01*
X173306314Y-129733081D02*
X173592028Y-129661653D01*
X173592028Y-129661653D02*
X173806314Y-129661653D01*
X173806314Y-129661653D02*
X174092028Y-129733081D01*
X174092028Y-129733081D02*
X174234885Y-129804510D01*
X174234885Y-129804510D02*
X174377742Y-129947367D01*
X174377742Y-129947367D02*
X174449171Y-130161653D01*
X174449171Y-130161653D02*
X174449171Y-130304510D01*
X174449171Y-130304510D02*
X174377742Y-130518796D01*
X174377742Y-130518796D02*
X174306314Y-130590224D01*
X174449171Y-131018796D02*
X174449171Y-131875939D01*
X172949171Y-131447367D02*
X174449171Y-131447367D01*
X172949171Y-133161653D02*
X172949171Y-132304510D01*
X172949171Y-132733081D02*
X174449171Y-132733081D01*
X174449171Y-132733081D02*
X174234885Y-132590224D01*
X174234885Y-132590224D02*
X174092028Y-132447367D01*
X174092028Y-132447367D02*
X174020600Y-132304510D01*
X174449171Y-133661652D02*
X174449171Y-134590224D01*
X174449171Y-134590224D02*
X173877742Y-134090224D01*
X173877742Y-134090224D02*
X173877742Y-134304509D01*
X173877742Y-134304509D02*
X173806314Y-134447367D01*
X173806314Y-134447367D02*
X173734885Y-134518795D01*
X173734885Y-134518795D02*
X173592028Y-134590224D01*
X173592028Y-134590224D02*
X173234885Y-134590224D01*
X173234885Y-134590224D02*
X173092028Y-134518795D01*
X173092028Y-134518795D02*
X173020600Y-134447367D01*
X173020600Y-134447367D02*
X172949171Y-134304509D01*
X172949171Y-134304509D02*
X172949171Y-133875938D01*
X172949171Y-133875938D02*
X173020600Y-133733081D01*
X173020600Y-133733081D02*
X173092028Y-133661652D01*
X173806314Y-135447366D02*
X173877742Y-135304509D01*
X173877742Y-135304509D02*
X173949171Y-135233080D01*
X173949171Y-135233080D02*
X174092028Y-135161652D01*
X174092028Y-135161652D02*
X174163457Y-135161652D01*
X174163457Y-135161652D02*
X174306314Y-135233080D01*
X174306314Y-135233080D02*
X174377742Y-135304509D01*
X174377742Y-135304509D02*
X174449171Y-135447366D01*
X174449171Y-135447366D02*
X174449171Y-135733080D01*
X174449171Y-135733080D02*
X174377742Y-135875938D01*
X174377742Y-135875938D02*
X174306314Y-135947366D01*
X174306314Y-135947366D02*
X174163457Y-136018795D01*
X174163457Y-136018795D02*
X174092028Y-136018795D01*
X174092028Y-136018795D02*
X173949171Y-135947366D01*
X173949171Y-135947366D02*
X173877742Y-135875938D01*
X173877742Y-135875938D02*
X173806314Y-135733080D01*
X173806314Y-135733080D02*
X173806314Y-135447366D01*
X173806314Y-135447366D02*
X173734885Y-135304509D01*
X173734885Y-135304509D02*
X173663457Y-135233080D01*
X173663457Y-135233080D02*
X173520600Y-135161652D01*
X173520600Y-135161652D02*
X173234885Y-135161652D01*
X173234885Y-135161652D02*
X173092028Y-135233080D01*
X173092028Y-135233080D02*
X173020600Y-135304509D01*
X173020600Y-135304509D02*
X172949171Y-135447366D01*
X172949171Y-135447366D02*
X172949171Y-135733080D01*
X172949171Y-135733080D02*
X173020600Y-135875938D01*
X173020600Y-135875938D02*
X173092028Y-135947366D01*
X173092028Y-135947366D02*
X173234885Y-136018795D01*
X173234885Y-136018795D02*
X173520600Y-136018795D01*
X173520600Y-136018795D02*
X173663457Y-135947366D01*
X173663457Y-135947366D02*
X173734885Y-135875938D01*
X173734885Y-135875938D02*
X173806314Y-135733080D01*
D11*
G36*
X136662791Y-51027752D02*
G01*
X137127766Y-51091537D01*
X137508142Y-51214142D01*
X137672586Y-51296358D01*
X137821535Y-51392245D01*
X137958609Y-51504234D01*
X138080647Y-51629801D01*
X138194199Y-51777187D01*
X138292303Y-51938921D01*
X138382865Y-52131920D01*
X138456741Y-52340977D01*
X138521399Y-52596047D01*
X138567325Y-52870031D01*
X138599281Y-53215922D01*
X138609429Y-53585450D01*
X138589028Y-54098758D01*
X138512357Y-54616874D01*
X138386200Y-55030668D01*
X138214255Y-55363554D01*
X137995162Y-55631799D01*
X137865874Y-55745049D01*
X137721871Y-55845121D01*
X137559909Y-55932933D01*
X137381570Y-56006404D01*
X137178341Y-56067135D01*
X136956125Y-56111573D01*
X136700642Y-56140311D01*
X136422540Y-56150000D01*
X134616669Y-56150000D01*
X134513156Y-56131920D01*
X134427493Y-56059022D01*
X134405949Y-55997826D01*
X134403872Y-55922548D01*
X134458457Y-55179038D01*
X134491563Y-54383855D01*
X134501875Y-53585450D01*
X136194478Y-53585450D01*
X136204647Y-54127401D01*
X136208217Y-54271467D01*
X136211065Y-54361930D01*
X136250554Y-54626890D01*
X136285597Y-54701675D01*
X136327470Y-54743510D01*
X136422540Y-54765753D01*
X136563262Y-54738415D01*
X136668543Y-54662525D01*
X136743465Y-54547269D01*
X136793110Y-54401836D01*
X136836898Y-54057183D01*
X136840563Y-53702060D01*
X136839890Y-53585450D01*
X136840577Y-53469064D01*
X136829102Y-52996103D01*
X136779601Y-52717119D01*
X136698346Y-52542447D01*
X136586722Y-52441799D01*
X136514356Y-52414613D01*
X136429562Y-52405146D01*
X136411288Y-52405641D01*
X136326486Y-52435991D01*
X136286755Y-52484392D01*
X136253042Y-52566322D01*
X136223596Y-52717640D01*
X136208217Y-52941564D01*
X136205751Y-53026126D01*
X136194478Y-53585450D01*
X134501875Y-53585450D01*
X134483633Y-52536611D01*
X134403872Y-51255373D01*
X134411247Y-51153090D01*
X134436355Y-51099083D01*
X134476440Y-51058782D01*
X134538525Y-51030253D01*
X134616669Y-51020594D01*
X136422540Y-51020594D01*
X136662791Y-51027752D01*
G37*
G36*
X141625828Y-52598709D02*
G01*
X141640671Y-52487407D01*
X141672902Y-52410262D01*
X141708305Y-52375999D01*
X141752915Y-52363369D01*
X141756193Y-52363319D01*
X141856907Y-52405012D01*
X141923804Y-52471702D01*
X142029329Y-52588013D01*
X142218117Y-52794408D01*
X142319654Y-52891256D01*
X142492699Y-53044208D01*
X142557837Y-53075194D01*
X142631193Y-53084141D01*
X142703450Y-53074278D01*
X142759200Y-53044316D01*
X142792170Y-53003030D01*
X142811267Y-52946725D01*
X142815901Y-52892411D01*
X142815901Y-51303306D01*
X142806179Y-51210033D01*
X142777199Y-51135042D01*
X142736487Y-51084840D01*
X142681566Y-51048908D01*
X142533190Y-51020594D01*
X138984036Y-51020594D01*
X138890764Y-51030317D01*
X138815773Y-51059296D01*
X138765571Y-51100009D01*
X138729639Y-51154930D01*
X138701325Y-51303306D01*
X138701325Y-52892411D01*
X138711080Y-52971150D01*
X138740287Y-53028815D01*
X138832165Y-53079449D01*
X138886034Y-53084141D01*
X138966641Y-53072950D01*
X139038854Y-53033688D01*
X139198369Y-52886148D01*
X139291782Y-52794408D01*
X139525454Y-52548404D01*
X139600444Y-52465291D01*
X139669620Y-52401747D01*
X139733039Y-52368876D01*
X139768056Y-52363319D01*
X139812302Y-52373129D01*
X139847687Y-52402717D01*
X139891240Y-52522585D01*
X139898421Y-52598709D01*
X139909956Y-53436227D01*
X139900848Y-54286828D01*
X139872305Y-55067134D01*
X139822813Y-55823452D01*
X139814462Y-55922548D01*
X139816586Y-55997826D01*
X139838464Y-56059022D01*
X139925139Y-56131404D01*
X140034281Y-56150000D01*
X141490273Y-56150000D01*
X141570938Y-56140404D01*
X141633245Y-56112317D01*
X141672367Y-56073110D01*
X141696268Y-56021094D01*
X141702765Y-55922548D01*
X141629261Y-54543797D01*
X141618647Y-52948688D01*
X141625828Y-52598709D01*
G37*
G36*
X142656228Y-54831393D02*
G01*
X142666120Y-54923279D01*
X142696287Y-54994093D01*
X142736505Y-55036235D01*
X142791155Y-55064167D01*
X142897112Y-55079300D01*
X145018056Y-55079300D01*
X145102964Y-55069540D01*
X145169888Y-55040297D01*
X145212797Y-54999569D01*
X145241853Y-54944486D01*
X145258941Y-54831393D01*
X145258941Y-53984481D01*
X145249235Y-53899457D01*
X145220374Y-53832517D01*
X145179993Y-53789264D01*
X145125663Y-53760177D01*
X145018056Y-53743597D01*
X142897112Y-53743597D01*
X142809404Y-53753303D01*
X142742104Y-53782164D01*
X142700174Y-53821860D01*
X142672365Y-53875108D01*
X142656228Y-53984481D01*
X142656228Y-54831393D01*
G37*
G36*
X146009377Y-53592777D02*
G01*
X146102235Y-53664260D01*
X146203162Y-53716864D01*
X146428235Y-53768133D01*
X146626090Y-53763136D01*
X147044966Y-53735048D01*
X147257466Y-53744526D01*
X147441506Y-53771791D01*
X147592888Y-53813081D01*
X147720861Y-53867603D01*
X147824507Y-53932086D01*
X147908467Y-54006251D01*
X148023570Y-54180377D01*
X148075155Y-54390644D01*
X148078114Y-54460450D01*
X148068861Y-54581336D01*
X148043168Y-54678207D01*
X148004855Y-54752442D01*
X147956583Y-54808109D01*
X147832318Y-54875953D01*
X147716939Y-54891538D01*
X147622371Y-54880374D01*
X147529101Y-54841303D01*
X147463154Y-54788440D01*
X147403489Y-54711472D01*
X147355064Y-54613455D01*
X147316371Y-54487766D01*
X147285851Y-54298639D01*
X147263870Y-54181680D01*
X147222373Y-54091805D01*
X147175824Y-54041165D01*
X147115147Y-54006082D01*
X146968030Y-53981734D01*
X145827110Y-53981734D01*
X145727701Y-53991424D01*
X145649049Y-54020175D01*
X145596380Y-54060440D01*
X145557641Y-54114522D01*
X145517834Y-54270996D01*
X145516311Y-54299249D01*
X145516231Y-54608279D01*
X145535828Y-54882406D01*
X145571170Y-55109642D01*
X145622060Y-55309720D01*
X145684097Y-55476352D01*
X145758690Y-55621452D01*
X145843055Y-55743914D01*
X145938038Y-55848584D01*
X146162285Y-56012927D01*
X146444498Y-56127045D01*
X146811608Y-56195660D01*
X147394844Y-56220219D01*
X147888369Y-56208765D01*
X148343619Y-56167668D01*
X148617154Y-56119879D01*
X148868819Y-56052230D01*
X149057401Y-55979927D01*
X149228617Y-55890792D01*
X149363684Y-55797418D01*
X149483632Y-55688805D01*
X149580540Y-55573692D01*
X149663141Y-55443757D01*
X149729182Y-55302271D01*
X149780471Y-55145175D01*
X149836736Y-54775698D01*
X149840631Y-54635389D01*
X149831013Y-54415803D01*
X149802767Y-54213054D01*
X149758081Y-54030918D01*
X149697348Y-53864062D01*
X149622058Y-53713212D01*
X149532633Y-53576655D01*
X149311150Y-53341936D01*
X149030159Y-53155272D01*
X148683417Y-53017153D01*
X148264026Y-52933034D01*
X147871118Y-52910729D01*
X147320889Y-52947101D01*
X146879797Y-53020638D01*
X146879797Y-52503148D01*
X148388913Y-52503148D01*
X148602188Y-52538401D01*
X148864460Y-52654027D01*
X149054604Y-52761605D01*
X149237962Y-52865849D01*
X149314330Y-52902888D01*
X149381895Y-52916058D01*
X149390003Y-52916224D01*
X149445126Y-52906445D01*
X149493017Y-52877071D01*
X149562935Y-52761366D01*
X149595581Y-52537073D01*
X149595778Y-52514445D01*
X149595778Y-51373525D01*
X149586011Y-51266010D01*
X149556721Y-51177950D01*
X149515679Y-51117514D01*
X149460070Y-51071642D01*
X149307478Y-51023870D01*
X149242847Y-51020594D01*
X145875959Y-51020594D01*
X145768572Y-51030361D01*
X145680598Y-51059651D01*
X145620197Y-51100704D01*
X145574346Y-51156332D01*
X145526598Y-51308999D01*
X145523333Y-51373525D01*
X145523333Y-52766320D01*
X145527722Y-52878461D01*
X145548674Y-52991783D01*
X145597867Y-53114088D01*
X145686980Y-53253176D01*
X145967351Y-53554145D01*
X146009377Y-53592777D01*
G37*
G36*
X150586793Y-52650305D02*
G01*
X150649319Y-52659719D01*
X150700736Y-52686537D01*
X150776323Y-52788097D01*
X150824221Y-52978412D01*
X150836326Y-53298759D01*
X150832671Y-53432404D01*
X150829204Y-53585450D01*
X150819169Y-54383855D01*
X150788004Y-55179038D01*
X150738224Y-55922548D01*
X150740140Y-56000598D01*
X150762430Y-56063406D01*
X150798359Y-56105239D01*
X150849081Y-56133754D01*
X150950715Y-56150000D01*
X152406707Y-56150000D01*
X152488252Y-56140398D01*
X152552411Y-56112267D01*
X152593556Y-56072780D01*
X152619106Y-56020302D01*
X152626526Y-55922548D01*
X152546074Y-54618362D01*
X152528524Y-53585450D01*
X152538836Y-52790442D01*
X152571941Y-51995539D01*
X152626526Y-51255373D01*
X152624378Y-51176533D01*
X152602401Y-51113113D01*
X152516655Y-51039672D01*
X152406707Y-51020594D01*
X151517969Y-51020594D01*
X151160526Y-51055119D01*
X150990710Y-51091120D01*
X150318736Y-51252015D01*
X150232421Y-51282491D01*
X150164206Y-51327597D01*
X150082484Y-51449574D01*
X150059228Y-51597313D01*
X150059228Y-52367288D01*
X150068839Y-52455262D01*
X150097031Y-52528093D01*
X150138345Y-52580711D01*
X150193712Y-52619104D01*
X150341939Y-52650305D01*
X150586793Y-52650305D01*
G37*
D12*
X106929047Y-48731009D02*
X107071904Y-48778628D01*
X107071904Y-48778628D02*
X107119523Y-48826247D01*
X107119523Y-48826247D02*
X107167142Y-48921485D01*
X107167142Y-48921485D02*
X107167142Y-49064342D01*
X107167142Y-49064342D02*
X107119523Y-49159580D01*
X107119523Y-49159580D02*
X107071904Y-49207200D01*
X107071904Y-49207200D02*
X106976666Y-49254819D01*
X106976666Y-49254819D02*
X106595714Y-49254819D01*
X106595714Y-49254819D02*
X106595714Y-48254819D01*
X106595714Y-48254819D02*
X106929047Y-48254819D01*
X106929047Y-48254819D02*
X107024285Y-48302438D01*
X107024285Y-48302438D02*
X107071904Y-48350057D01*
X107071904Y-48350057D02*
X107119523Y-48445295D01*
X107119523Y-48445295D02*
X107119523Y-48540533D01*
X107119523Y-48540533D02*
X107071904Y-48635771D01*
X107071904Y-48635771D02*
X107024285Y-48683390D01*
X107024285Y-48683390D02*
X106929047Y-48731009D01*
X106929047Y-48731009D02*
X106595714Y-48731009D01*
X107500476Y-48254819D02*
X108167142Y-48254819D01*
X108167142Y-48254819D02*
X107500476Y-49254819D01*
X107500476Y-49254819D02*
X108167142Y-49254819D01*
X109071904Y-49254819D02*
X108500476Y-49254819D01*
X108786190Y-49254819D02*
X108786190Y-48254819D01*
X108786190Y-48254819D02*
X108690952Y-48397676D01*
X108690952Y-48397676D02*
X108595714Y-48492914D01*
X108595714Y-48492914D02*
X108500476Y-48540533D01*
X103619048Y-53533866D02*
X104380953Y-53533866D01*
X104000000Y-53914819D02*
X104000000Y-53152914D01*
X119868095Y-62694819D02*
X119868095Y-63504342D01*
X119868095Y-63504342D02*
X119915714Y-63599580D01*
X119915714Y-63599580D02*
X119963333Y-63647200D01*
X119963333Y-63647200D02*
X120058571Y-63694819D01*
X120058571Y-63694819D02*
X120249047Y-63694819D01*
X120249047Y-63694819D02*
X120344285Y-63647200D01*
X120344285Y-63647200D02*
X120391904Y-63599580D01*
X120391904Y-63599580D02*
X120439523Y-63504342D01*
X120439523Y-63504342D02*
X120439523Y-62694819D01*
X121439523Y-63694819D02*
X120868095Y-63694819D01*
X121153809Y-63694819D02*
X121153809Y-62694819D01*
X121153809Y-62694819D02*
X121058571Y-62837676D01*
X121058571Y-62837676D02*
X120963333Y-62932914D01*
X120963333Y-62932914D02*
X120868095Y-62980533D01*
X181666666Y-107954819D02*
X181666666Y-108669104D01*
X181666666Y-108669104D02*
X181619047Y-108811961D01*
X181619047Y-108811961D02*
X181523809Y-108907200D01*
X181523809Y-108907200D02*
X181380952Y-108954819D01*
X181380952Y-108954819D02*
X181285714Y-108954819D01*
X182095238Y-108050057D02*
X182142857Y-108002438D01*
X182142857Y-108002438D02*
X182238095Y-107954819D01*
X182238095Y-107954819D02*
X182476190Y-107954819D01*
X182476190Y-107954819D02*
X182571428Y-108002438D01*
X182571428Y-108002438D02*
X182619047Y-108050057D01*
X182619047Y-108050057D02*
X182666666Y-108145295D01*
X182666666Y-108145295D02*
X182666666Y-108240533D01*
X182666666Y-108240533D02*
X182619047Y-108383390D01*
X182619047Y-108383390D02*
X182047619Y-108954819D01*
X182047619Y-108954819D02*
X182666666Y-108954819D01*
X97666667Y-66407200D02*
X97809524Y-66454819D01*
X97809524Y-66454819D02*
X98047619Y-66454819D01*
X98047619Y-66454819D02*
X98142857Y-66407200D01*
X98142857Y-66407200D02*
X98190476Y-66359580D01*
X98190476Y-66359580D02*
X98238095Y-66264342D01*
X98238095Y-66264342D02*
X98238095Y-66169104D01*
X98238095Y-66169104D02*
X98190476Y-66073866D01*
X98190476Y-66073866D02*
X98142857Y-66026247D01*
X98142857Y-66026247D02*
X98047619Y-65978628D01*
X98047619Y-65978628D02*
X97857143Y-65931009D01*
X97857143Y-65931009D02*
X97761905Y-65883390D01*
X97761905Y-65883390D02*
X97714286Y-65835771D01*
X97714286Y-65835771D02*
X97666667Y-65740533D01*
X97666667Y-65740533D02*
X97666667Y-65645295D01*
X97666667Y-65645295D02*
X97714286Y-65550057D01*
X97714286Y-65550057D02*
X97761905Y-65502438D01*
X97761905Y-65502438D02*
X97857143Y-65454819D01*
X97857143Y-65454819D02*
X98095238Y-65454819D01*
X98095238Y-65454819D02*
X98238095Y-65502438D01*
X98571429Y-65454819D02*
X98809524Y-66454819D01*
X98809524Y-66454819D02*
X99000000Y-65740533D01*
X99000000Y-65740533D02*
X99190476Y-66454819D01*
X99190476Y-66454819D02*
X99428572Y-65454819D01*
X100333333Y-66454819D02*
X99761905Y-66454819D01*
X100047619Y-66454819D02*
X100047619Y-65454819D01*
X100047619Y-65454819D02*
X99952381Y-65597676D01*
X99952381Y-65597676D02*
X99857143Y-65692914D01*
X99857143Y-65692914D02*
X99761905Y-65740533D01*
X97666667Y-74157200D02*
X97809524Y-74204819D01*
X97809524Y-74204819D02*
X98047619Y-74204819D01*
X98047619Y-74204819D02*
X98142857Y-74157200D01*
X98142857Y-74157200D02*
X98190476Y-74109580D01*
X98190476Y-74109580D02*
X98238095Y-74014342D01*
X98238095Y-74014342D02*
X98238095Y-73919104D01*
X98238095Y-73919104D02*
X98190476Y-73823866D01*
X98190476Y-73823866D02*
X98142857Y-73776247D01*
X98142857Y-73776247D02*
X98047619Y-73728628D01*
X98047619Y-73728628D02*
X97857143Y-73681009D01*
X97857143Y-73681009D02*
X97761905Y-73633390D01*
X97761905Y-73633390D02*
X97714286Y-73585771D01*
X97714286Y-73585771D02*
X97666667Y-73490533D01*
X97666667Y-73490533D02*
X97666667Y-73395295D01*
X97666667Y-73395295D02*
X97714286Y-73300057D01*
X97714286Y-73300057D02*
X97761905Y-73252438D01*
X97761905Y-73252438D02*
X97857143Y-73204819D01*
X97857143Y-73204819D02*
X98095238Y-73204819D01*
X98095238Y-73204819D02*
X98238095Y-73252438D01*
X98571429Y-73204819D02*
X98809524Y-74204819D01*
X98809524Y-74204819D02*
X99000000Y-73490533D01*
X99000000Y-73490533D02*
X99190476Y-74204819D01*
X99190476Y-74204819D02*
X99428572Y-73204819D01*
X99761905Y-73300057D02*
X99809524Y-73252438D01*
X99809524Y-73252438D02*
X99904762Y-73204819D01*
X99904762Y-73204819D02*
X100142857Y-73204819D01*
X100142857Y-73204819D02*
X100238095Y-73252438D01*
X100238095Y-73252438D02*
X100285714Y-73300057D01*
X100285714Y-73300057D02*
X100333333Y-73395295D01*
X100333333Y-73395295D02*
X100333333Y-73490533D01*
X100333333Y-73490533D02*
X100285714Y-73633390D01*
X100285714Y-73633390D02*
X99714286Y-74204819D01*
X99714286Y-74204819D02*
X100333333Y-74204819D01*
X131109580Y-88666666D02*
X131157200Y-88714285D01*
X131157200Y-88714285D02*
X131204819Y-88857142D01*
X131204819Y-88857142D02*
X131204819Y-88952380D01*
X131204819Y-88952380D02*
X131157200Y-89095237D01*
X131157200Y-89095237D02*
X131061961Y-89190475D01*
X131061961Y-89190475D02*
X130966723Y-89238094D01*
X130966723Y-89238094D02*
X130776247Y-89285713D01*
X130776247Y-89285713D02*
X130633390Y-89285713D01*
X130633390Y-89285713D02*
X130442914Y-89238094D01*
X130442914Y-89238094D02*
X130347676Y-89190475D01*
X130347676Y-89190475D02*
X130252438Y-89095237D01*
X130252438Y-89095237D02*
X130204819Y-88952380D01*
X130204819Y-88952380D02*
X130204819Y-88857142D01*
X130204819Y-88857142D02*
X130252438Y-88714285D01*
X130252438Y-88714285D02*
X130300057Y-88666666D01*
X130204819Y-88333332D02*
X130204819Y-87714285D01*
X130204819Y-87714285D02*
X130585771Y-88047618D01*
X130585771Y-88047618D02*
X130585771Y-87904761D01*
X130585771Y-87904761D02*
X130633390Y-87809523D01*
X130633390Y-87809523D02*
X130681009Y-87761904D01*
X130681009Y-87761904D02*
X130776247Y-87714285D01*
X130776247Y-87714285D02*
X131014342Y-87714285D01*
X131014342Y-87714285D02*
X131109580Y-87761904D01*
X131109580Y-87761904D02*
X131157200Y-87809523D01*
X131157200Y-87809523D02*
X131204819Y-87904761D01*
X131204819Y-87904761D02*
X131204819Y-88190475D01*
X131204819Y-88190475D02*
X131157200Y-88285713D01*
X131157200Y-88285713D02*
X131109580Y-88333332D01*
X135704819Y-90047619D02*
X135704819Y-90619047D01*
X135704819Y-90333333D02*
X134704819Y-90333333D01*
X134704819Y-90333333D02*
X134847676Y-90428571D01*
X134847676Y-90428571D02*
X134942914Y-90523809D01*
X134942914Y-90523809D02*
X134990533Y-90619047D01*
X134704819Y-89428571D02*
X134704819Y-89333333D01*
X134704819Y-89333333D02*
X134752438Y-89238095D01*
X134752438Y-89238095D02*
X134800057Y-89190476D01*
X134800057Y-89190476D02*
X134895295Y-89142857D01*
X134895295Y-89142857D02*
X135085771Y-89095238D01*
X135085771Y-89095238D02*
X135323866Y-89095238D01*
X135323866Y-89095238D02*
X135514342Y-89142857D01*
X135514342Y-89142857D02*
X135609580Y-89190476D01*
X135609580Y-89190476D02*
X135657200Y-89238095D01*
X135657200Y-89238095D02*
X135704819Y-89333333D01*
X135704819Y-89333333D02*
X135704819Y-89428571D01*
X135704819Y-89428571D02*
X135657200Y-89523809D01*
X135657200Y-89523809D02*
X135609580Y-89571428D01*
X135609580Y-89571428D02*
X135514342Y-89619047D01*
X135514342Y-89619047D02*
X135323866Y-89666666D01*
X135323866Y-89666666D02*
X135085771Y-89666666D01*
X135085771Y-89666666D02*
X134895295Y-89619047D01*
X134895295Y-89619047D02*
X134800057Y-89571428D01*
X134800057Y-89571428D02*
X134752438Y-89523809D01*
X134752438Y-89523809D02*
X134704819Y-89428571D01*
X134704819Y-88476190D02*
X134704819Y-88380952D01*
X134704819Y-88380952D02*
X134752438Y-88285714D01*
X134752438Y-88285714D02*
X134800057Y-88238095D01*
X134800057Y-88238095D02*
X134895295Y-88190476D01*
X134895295Y-88190476D02*
X135085771Y-88142857D01*
X135085771Y-88142857D02*
X135323866Y-88142857D01*
X135323866Y-88142857D02*
X135514342Y-88190476D01*
X135514342Y-88190476D02*
X135609580Y-88238095D01*
X135609580Y-88238095D02*
X135657200Y-88285714D01*
X135657200Y-88285714D02*
X135704819Y-88380952D01*
X135704819Y-88380952D02*
X135704819Y-88476190D01*
X135704819Y-88476190D02*
X135657200Y-88571428D01*
X135657200Y-88571428D02*
X135609580Y-88619047D01*
X135609580Y-88619047D02*
X135514342Y-88666666D01*
X135514342Y-88666666D02*
X135323866Y-88714285D01*
X135323866Y-88714285D02*
X135085771Y-88714285D01*
X135085771Y-88714285D02*
X134895295Y-88666666D01*
X134895295Y-88666666D02*
X134800057Y-88619047D01*
X134800057Y-88619047D02*
X134752438Y-88571428D01*
X134752438Y-88571428D02*
X134704819Y-88476190D01*
X135038152Y-87714285D02*
X135704819Y-87714285D01*
X135133390Y-87714285D02*
X135085771Y-87666666D01*
X135085771Y-87666666D02*
X135038152Y-87571428D01*
X135038152Y-87571428D02*
X135038152Y-87428571D01*
X135038152Y-87428571D02*
X135085771Y-87333333D01*
X135085771Y-87333333D02*
X135181009Y-87285714D01*
X135181009Y-87285714D02*
X135704819Y-87285714D01*
X135181009Y-86476190D02*
X135181009Y-86809523D01*
X135704819Y-86809523D02*
X134704819Y-86809523D01*
X134704819Y-86809523D02*
X134704819Y-86333333D01*
X137928095Y-122174819D02*
X137928095Y-122984342D01*
X137928095Y-122984342D02*
X137975714Y-123079580D01*
X137975714Y-123079580D02*
X138023333Y-123127200D01*
X138023333Y-123127200D02*
X138118571Y-123174819D01*
X138118571Y-123174819D02*
X138309047Y-123174819D01*
X138309047Y-123174819D02*
X138404285Y-123127200D01*
X138404285Y-123127200D02*
X138451904Y-123079580D01*
X138451904Y-123079580D02*
X138499523Y-122984342D01*
X138499523Y-122984342D02*
X138499523Y-122174819D01*
X139404285Y-122508152D02*
X139404285Y-123174819D01*
X139166190Y-122127200D02*
X138928095Y-122841485D01*
X138928095Y-122841485D02*
X139547142Y-122841485D01*
X184583333Y-116359580D02*
X184535714Y-116407200D01*
X184535714Y-116407200D02*
X184392857Y-116454819D01*
X184392857Y-116454819D02*
X184297619Y-116454819D01*
X184297619Y-116454819D02*
X184154762Y-116407200D01*
X184154762Y-116407200D02*
X184059524Y-116311961D01*
X184059524Y-116311961D02*
X184011905Y-116216723D01*
X184011905Y-116216723D02*
X183964286Y-116026247D01*
X183964286Y-116026247D02*
X183964286Y-115883390D01*
X183964286Y-115883390D02*
X184011905Y-115692914D01*
X184011905Y-115692914D02*
X184059524Y-115597676D01*
X184059524Y-115597676D02*
X184154762Y-115502438D01*
X184154762Y-115502438D02*
X184297619Y-115454819D01*
X184297619Y-115454819D02*
X184392857Y-115454819D01*
X184392857Y-115454819D02*
X184535714Y-115502438D01*
X184535714Y-115502438D02*
X184583333Y-115550057D01*
X185059524Y-116454819D02*
X185250000Y-116454819D01*
X185250000Y-116454819D02*
X185345238Y-116407200D01*
X185345238Y-116407200D02*
X185392857Y-116359580D01*
X185392857Y-116359580D02*
X185488095Y-116216723D01*
X185488095Y-116216723D02*
X185535714Y-116026247D01*
X185535714Y-116026247D02*
X185535714Y-115645295D01*
X185535714Y-115645295D02*
X185488095Y-115550057D01*
X185488095Y-115550057D02*
X185440476Y-115502438D01*
X185440476Y-115502438D02*
X185345238Y-115454819D01*
X185345238Y-115454819D02*
X185154762Y-115454819D01*
X185154762Y-115454819D02*
X185059524Y-115502438D01*
X185059524Y-115502438D02*
X185011905Y-115550057D01*
X185011905Y-115550057D02*
X184964286Y-115645295D01*
X184964286Y-115645295D02*
X184964286Y-115883390D01*
X184964286Y-115883390D02*
X185011905Y-115978628D01*
X185011905Y-115978628D02*
X185059524Y-116026247D01*
X185059524Y-116026247D02*
X185154762Y-116073866D01*
X185154762Y-116073866D02*
X185345238Y-116073866D01*
X185345238Y-116073866D02*
X185440476Y-116026247D01*
X185440476Y-116026247D02*
X185488095Y-115978628D01*
X185488095Y-115978628D02*
X185535714Y-115883390D01*
X188428571Y-112704819D02*
X187857143Y-112704819D01*
X188142857Y-112704819D02*
X188142857Y-111704819D01*
X188142857Y-111704819D02*
X188047619Y-111847676D01*
X188047619Y-111847676D02*
X187952381Y-111942914D01*
X187952381Y-111942914D02*
X187857143Y-111990533D01*
X189047619Y-111704819D02*
X189142857Y-111704819D01*
X189142857Y-111704819D02*
X189238095Y-111752438D01*
X189238095Y-111752438D02*
X189285714Y-111800057D01*
X189285714Y-111800057D02*
X189333333Y-111895295D01*
X189333333Y-111895295D02*
X189380952Y-112085771D01*
X189380952Y-112085771D02*
X189380952Y-112323866D01*
X189380952Y-112323866D02*
X189333333Y-112514342D01*
X189333333Y-112514342D02*
X189285714Y-112609580D01*
X189285714Y-112609580D02*
X189238095Y-112657200D01*
X189238095Y-112657200D02*
X189142857Y-112704819D01*
X189142857Y-112704819D02*
X189047619Y-112704819D01*
X189047619Y-112704819D02*
X188952381Y-112657200D01*
X188952381Y-112657200D02*
X188904762Y-112609580D01*
X188904762Y-112609580D02*
X188857143Y-112514342D01*
X188857143Y-112514342D02*
X188809524Y-112323866D01*
X188809524Y-112323866D02*
X188809524Y-112085771D01*
X188809524Y-112085771D02*
X188857143Y-111895295D01*
X188857143Y-111895295D02*
X188904762Y-111800057D01*
X188904762Y-111800057D02*
X188952381Y-111752438D01*
X188952381Y-111752438D02*
X189047619Y-111704819D01*
X190238095Y-112038152D02*
X190238095Y-112704819D01*
X189809524Y-112038152D02*
X189809524Y-112561961D01*
X189809524Y-112561961D02*
X189857143Y-112657200D01*
X189857143Y-112657200D02*
X189952381Y-112704819D01*
X189952381Y-112704819D02*
X190095238Y-112704819D01*
X190095238Y-112704819D02*
X190190476Y-112657200D01*
X190190476Y-112657200D02*
X190238095Y-112609580D01*
X191047619Y-112181009D02*
X190714286Y-112181009D01*
X190714286Y-112704819D02*
X190714286Y-111704819D01*
X190714286Y-111704819D02*
X191190476Y-111704819D01*
X103859580Y-118142857D02*
X103907200Y-118190476D01*
X103907200Y-118190476D02*
X103954819Y-118333333D01*
X103954819Y-118333333D02*
X103954819Y-118428571D01*
X103954819Y-118428571D02*
X103907200Y-118571428D01*
X103907200Y-118571428D02*
X103811961Y-118666666D01*
X103811961Y-118666666D02*
X103716723Y-118714285D01*
X103716723Y-118714285D02*
X103526247Y-118761904D01*
X103526247Y-118761904D02*
X103383390Y-118761904D01*
X103383390Y-118761904D02*
X103192914Y-118714285D01*
X103192914Y-118714285D02*
X103097676Y-118666666D01*
X103097676Y-118666666D02*
X103002438Y-118571428D01*
X103002438Y-118571428D02*
X102954819Y-118428571D01*
X102954819Y-118428571D02*
X102954819Y-118333333D01*
X102954819Y-118333333D02*
X103002438Y-118190476D01*
X103002438Y-118190476D02*
X103050057Y-118142857D01*
X103954819Y-117190476D02*
X103954819Y-117761904D01*
X103954819Y-117476190D02*
X102954819Y-117476190D01*
X102954819Y-117476190D02*
X103097676Y-117571428D01*
X103097676Y-117571428D02*
X103192914Y-117666666D01*
X103192914Y-117666666D02*
X103240533Y-117761904D01*
X103050057Y-116809523D02*
X103002438Y-116761904D01*
X103002438Y-116761904D02*
X102954819Y-116666666D01*
X102954819Y-116666666D02*
X102954819Y-116428571D01*
X102954819Y-116428571D02*
X103002438Y-116333333D01*
X103002438Y-116333333D02*
X103050057Y-116285714D01*
X103050057Y-116285714D02*
X103145295Y-116238095D01*
X103145295Y-116238095D02*
X103240533Y-116238095D01*
X103240533Y-116238095D02*
X103383390Y-116285714D01*
X103383390Y-116285714D02*
X103954819Y-116857142D01*
X103954819Y-116857142D02*
X103954819Y-116238095D01*
X104809524Y-118954819D02*
X105428571Y-118954819D01*
X105428571Y-118954819D02*
X105095238Y-119335771D01*
X105095238Y-119335771D02*
X105238095Y-119335771D01*
X105238095Y-119335771D02*
X105333333Y-119383390D01*
X105333333Y-119383390D02*
X105380952Y-119431009D01*
X105380952Y-119431009D02*
X105428571Y-119526247D01*
X105428571Y-119526247D02*
X105428571Y-119764342D01*
X105428571Y-119764342D02*
X105380952Y-119859580D01*
X105380952Y-119859580D02*
X105333333Y-119907200D01*
X105333333Y-119907200D02*
X105238095Y-119954819D01*
X105238095Y-119954819D02*
X104952381Y-119954819D01*
X104952381Y-119954819D02*
X104857143Y-119907200D01*
X104857143Y-119907200D02*
X104809524Y-119859580D01*
X106047619Y-118954819D02*
X106142857Y-118954819D01*
X106142857Y-118954819D02*
X106238095Y-119002438D01*
X106238095Y-119002438D02*
X106285714Y-119050057D01*
X106285714Y-119050057D02*
X106333333Y-119145295D01*
X106333333Y-119145295D02*
X106380952Y-119335771D01*
X106380952Y-119335771D02*
X106380952Y-119573866D01*
X106380952Y-119573866D02*
X106333333Y-119764342D01*
X106333333Y-119764342D02*
X106285714Y-119859580D01*
X106285714Y-119859580D02*
X106238095Y-119907200D01*
X106238095Y-119907200D02*
X106142857Y-119954819D01*
X106142857Y-119954819D02*
X106047619Y-119954819D01*
X106047619Y-119954819D02*
X105952381Y-119907200D01*
X105952381Y-119907200D02*
X105904762Y-119859580D01*
X105904762Y-119859580D02*
X105857143Y-119764342D01*
X105857143Y-119764342D02*
X105809524Y-119573866D01*
X105809524Y-119573866D02*
X105809524Y-119335771D01*
X105809524Y-119335771D02*
X105857143Y-119145295D01*
X105857143Y-119145295D02*
X105904762Y-119050057D01*
X105904762Y-119050057D02*
X105952381Y-119002438D01*
X105952381Y-119002438D02*
X106047619Y-118954819D01*
X106809524Y-119288152D02*
X106809524Y-120288152D01*
X106809524Y-119335771D02*
X106904762Y-119288152D01*
X106904762Y-119288152D02*
X107095238Y-119288152D01*
X107095238Y-119288152D02*
X107190476Y-119335771D01*
X107190476Y-119335771D02*
X107238095Y-119383390D01*
X107238095Y-119383390D02*
X107285714Y-119478628D01*
X107285714Y-119478628D02*
X107285714Y-119764342D01*
X107285714Y-119764342D02*
X107238095Y-119859580D01*
X107238095Y-119859580D02*
X107190476Y-119907200D01*
X107190476Y-119907200D02*
X107095238Y-119954819D01*
X107095238Y-119954819D02*
X106904762Y-119954819D01*
X106904762Y-119954819D02*
X106809524Y-119907200D01*
X108047619Y-119431009D02*
X107714286Y-119431009D01*
X107714286Y-119954819D02*
X107714286Y-118954819D01*
X107714286Y-118954819D02*
X108190476Y-118954819D01*
X162833333Y-123609580D02*
X162785714Y-123657200D01*
X162785714Y-123657200D02*
X162642857Y-123704819D01*
X162642857Y-123704819D02*
X162547619Y-123704819D01*
X162547619Y-123704819D02*
X162404762Y-123657200D01*
X162404762Y-123657200D02*
X162309524Y-123561961D01*
X162309524Y-123561961D02*
X162261905Y-123466723D01*
X162261905Y-123466723D02*
X162214286Y-123276247D01*
X162214286Y-123276247D02*
X162214286Y-123133390D01*
X162214286Y-123133390D02*
X162261905Y-122942914D01*
X162261905Y-122942914D02*
X162309524Y-122847676D01*
X162309524Y-122847676D02*
X162404762Y-122752438D01*
X162404762Y-122752438D02*
X162547619Y-122704819D01*
X162547619Y-122704819D02*
X162642857Y-122704819D01*
X162642857Y-122704819D02*
X162785714Y-122752438D01*
X162785714Y-122752438D02*
X162833333Y-122800057D01*
X163404762Y-123133390D02*
X163309524Y-123085771D01*
X163309524Y-123085771D02*
X163261905Y-123038152D01*
X163261905Y-123038152D02*
X163214286Y-122942914D01*
X163214286Y-122942914D02*
X163214286Y-122895295D01*
X163214286Y-122895295D02*
X163261905Y-122800057D01*
X163261905Y-122800057D02*
X163309524Y-122752438D01*
X163309524Y-122752438D02*
X163404762Y-122704819D01*
X163404762Y-122704819D02*
X163595238Y-122704819D01*
X163595238Y-122704819D02*
X163690476Y-122752438D01*
X163690476Y-122752438D02*
X163738095Y-122800057D01*
X163738095Y-122800057D02*
X163785714Y-122895295D01*
X163785714Y-122895295D02*
X163785714Y-122942914D01*
X163785714Y-122942914D02*
X163738095Y-123038152D01*
X163738095Y-123038152D02*
X163690476Y-123085771D01*
X163690476Y-123085771D02*
X163595238Y-123133390D01*
X163595238Y-123133390D02*
X163404762Y-123133390D01*
X163404762Y-123133390D02*
X163309524Y-123181009D01*
X163309524Y-123181009D02*
X163261905Y-123228628D01*
X163261905Y-123228628D02*
X163214286Y-123323866D01*
X163214286Y-123323866D02*
X163214286Y-123514342D01*
X163214286Y-123514342D02*
X163261905Y-123609580D01*
X163261905Y-123609580D02*
X163309524Y-123657200D01*
X163309524Y-123657200D02*
X163404762Y-123704819D01*
X163404762Y-123704819D02*
X163595238Y-123704819D01*
X163595238Y-123704819D02*
X163690476Y-123657200D01*
X163690476Y-123657200D02*
X163738095Y-123609580D01*
X163738095Y-123609580D02*
X163785714Y-123514342D01*
X163785714Y-123514342D02*
X163785714Y-123323866D01*
X163785714Y-123323866D02*
X163738095Y-123228628D01*
X163738095Y-123228628D02*
X163690476Y-123181009D01*
X163690476Y-123181009D02*
X163595238Y-123133390D01*
X165454819Y-127797619D02*
X165454819Y-128369047D01*
X165454819Y-128083333D02*
X164454819Y-128083333D01*
X164454819Y-128083333D02*
X164597676Y-128178571D01*
X164597676Y-128178571D02*
X164692914Y-128273809D01*
X164692914Y-128273809D02*
X164740533Y-128369047D01*
X164454819Y-127178571D02*
X164454819Y-127083333D01*
X164454819Y-127083333D02*
X164502438Y-126988095D01*
X164502438Y-126988095D02*
X164550057Y-126940476D01*
X164550057Y-126940476D02*
X164645295Y-126892857D01*
X164645295Y-126892857D02*
X164835771Y-126845238D01*
X164835771Y-126845238D02*
X165073866Y-126845238D01*
X165073866Y-126845238D02*
X165264342Y-126892857D01*
X165264342Y-126892857D02*
X165359580Y-126940476D01*
X165359580Y-126940476D02*
X165407200Y-126988095D01*
X165407200Y-126988095D02*
X165454819Y-127083333D01*
X165454819Y-127083333D02*
X165454819Y-127178571D01*
X165454819Y-127178571D02*
X165407200Y-127273809D01*
X165407200Y-127273809D02*
X165359580Y-127321428D01*
X165359580Y-127321428D02*
X165264342Y-127369047D01*
X165264342Y-127369047D02*
X165073866Y-127416666D01*
X165073866Y-127416666D02*
X164835771Y-127416666D01*
X164835771Y-127416666D02*
X164645295Y-127369047D01*
X164645295Y-127369047D02*
X164550057Y-127321428D01*
X164550057Y-127321428D02*
X164502438Y-127273809D01*
X164502438Y-127273809D02*
X164454819Y-127178571D01*
X164454819Y-126226190D02*
X164454819Y-126130952D01*
X164454819Y-126130952D02*
X164502438Y-126035714D01*
X164502438Y-126035714D02*
X164550057Y-125988095D01*
X164550057Y-125988095D02*
X164645295Y-125940476D01*
X164645295Y-125940476D02*
X164835771Y-125892857D01*
X164835771Y-125892857D02*
X165073866Y-125892857D01*
X165073866Y-125892857D02*
X165264342Y-125940476D01*
X165264342Y-125940476D02*
X165359580Y-125988095D01*
X165359580Y-125988095D02*
X165407200Y-126035714D01*
X165407200Y-126035714D02*
X165454819Y-126130952D01*
X165454819Y-126130952D02*
X165454819Y-126226190D01*
X165454819Y-126226190D02*
X165407200Y-126321428D01*
X165407200Y-126321428D02*
X165359580Y-126369047D01*
X165359580Y-126369047D02*
X165264342Y-126416666D01*
X165264342Y-126416666D02*
X165073866Y-126464285D01*
X165073866Y-126464285D02*
X164835771Y-126464285D01*
X164835771Y-126464285D02*
X164645295Y-126416666D01*
X164645295Y-126416666D02*
X164550057Y-126369047D01*
X164550057Y-126369047D02*
X164502438Y-126321428D01*
X164502438Y-126321428D02*
X164454819Y-126226190D01*
X164788152Y-125464285D02*
X165454819Y-125464285D01*
X164883390Y-125464285D02*
X164835771Y-125416666D01*
X164835771Y-125416666D02*
X164788152Y-125321428D01*
X164788152Y-125321428D02*
X164788152Y-125178571D01*
X164788152Y-125178571D02*
X164835771Y-125083333D01*
X164835771Y-125083333D02*
X164931009Y-125035714D01*
X164931009Y-125035714D02*
X165454819Y-125035714D01*
X164931009Y-124226190D02*
X164931009Y-124559523D01*
X165454819Y-124559523D02*
X164454819Y-124559523D01*
X164454819Y-124559523D02*
X164454819Y-124083333D01*
X100026666Y-141604819D02*
X100026666Y-142319104D01*
X100026666Y-142319104D02*
X99979047Y-142461961D01*
X99979047Y-142461961D02*
X99883809Y-142557200D01*
X99883809Y-142557200D02*
X99740952Y-142604819D01*
X99740952Y-142604819D02*
X99645714Y-142604819D01*
X100931428Y-141938152D02*
X100931428Y-142604819D01*
X100693333Y-141557200D02*
X100455238Y-142271485D01*
X100455238Y-142271485D02*
X101074285Y-142271485D01*
X97666667Y-81907200D02*
X97809524Y-81954819D01*
X97809524Y-81954819D02*
X98047619Y-81954819D01*
X98047619Y-81954819D02*
X98142857Y-81907200D01*
X98142857Y-81907200D02*
X98190476Y-81859580D01*
X98190476Y-81859580D02*
X98238095Y-81764342D01*
X98238095Y-81764342D02*
X98238095Y-81669104D01*
X98238095Y-81669104D02*
X98190476Y-81573866D01*
X98190476Y-81573866D02*
X98142857Y-81526247D01*
X98142857Y-81526247D02*
X98047619Y-81478628D01*
X98047619Y-81478628D02*
X97857143Y-81431009D01*
X97857143Y-81431009D02*
X97761905Y-81383390D01*
X97761905Y-81383390D02*
X97714286Y-81335771D01*
X97714286Y-81335771D02*
X97666667Y-81240533D01*
X97666667Y-81240533D02*
X97666667Y-81145295D01*
X97666667Y-81145295D02*
X97714286Y-81050057D01*
X97714286Y-81050057D02*
X97761905Y-81002438D01*
X97761905Y-81002438D02*
X97857143Y-80954819D01*
X97857143Y-80954819D02*
X98095238Y-80954819D01*
X98095238Y-80954819D02*
X98238095Y-81002438D01*
X98571429Y-80954819D02*
X98809524Y-81954819D01*
X98809524Y-81954819D02*
X99000000Y-81240533D01*
X99000000Y-81240533D02*
X99190476Y-81954819D01*
X99190476Y-81954819D02*
X99428572Y-80954819D01*
X99714286Y-80954819D02*
X100333333Y-80954819D01*
X100333333Y-80954819D02*
X100000000Y-81335771D01*
X100000000Y-81335771D02*
X100142857Y-81335771D01*
X100142857Y-81335771D02*
X100238095Y-81383390D01*
X100238095Y-81383390D02*
X100285714Y-81431009D01*
X100285714Y-81431009D02*
X100333333Y-81526247D01*
X100333333Y-81526247D02*
X100333333Y-81764342D01*
X100333333Y-81764342D02*
X100285714Y-81859580D01*
X100285714Y-81859580D02*
X100238095Y-81907200D01*
X100238095Y-81907200D02*
X100142857Y-81954819D01*
X100142857Y-81954819D02*
X99857143Y-81954819D01*
X99857143Y-81954819D02*
X99761905Y-81907200D01*
X99761905Y-81907200D02*
X99714286Y-81859580D01*
X111204819Y-94666666D02*
X110728628Y-94999999D01*
X111204819Y-95238094D02*
X110204819Y-95238094D01*
X110204819Y-95238094D02*
X110204819Y-94857142D01*
X110204819Y-94857142D02*
X110252438Y-94761904D01*
X110252438Y-94761904D02*
X110300057Y-94714285D01*
X110300057Y-94714285D02*
X110395295Y-94666666D01*
X110395295Y-94666666D02*
X110538152Y-94666666D01*
X110538152Y-94666666D02*
X110633390Y-94714285D01*
X110633390Y-94714285D02*
X110681009Y-94761904D01*
X110681009Y-94761904D02*
X110728628Y-94857142D01*
X110728628Y-94857142D02*
X110728628Y-95238094D01*
X110538152Y-93809523D02*
X111204819Y-93809523D01*
X110157200Y-94047618D02*
X110871485Y-94285713D01*
X110871485Y-94285713D02*
X110871485Y-93666666D01*
X107954819Y-95785713D02*
X107954819Y-95166666D01*
X107954819Y-95166666D02*
X108335771Y-95499999D01*
X108335771Y-95499999D02*
X108335771Y-95357142D01*
X108335771Y-95357142D02*
X108383390Y-95261904D01*
X108383390Y-95261904D02*
X108431009Y-95214285D01*
X108431009Y-95214285D02*
X108526247Y-95166666D01*
X108526247Y-95166666D02*
X108764342Y-95166666D01*
X108764342Y-95166666D02*
X108859580Y-95214285D01*
X108859580Y-95214285D02*
X108907200Y-95261904D01*
X108907200Y-95261904D02*
X108954819Y-95357142D01*
X108954819Y-95357142D02*
X108954819Y-95642856D01*
X108954819Y-95642856D02*
X108907200Y-95738094D01*
X108907200Y-95738094D02*
X108859580Y-95785713D01*
X107954819Y-94833332D02*
X107954819Y-94214285D01*
X107954819Y-94214285D02*
X108335771Y-94547618D01*
X108335771Y-94547618D02*
X108335771Y-94404761D01*
X108335771Y-94404761D02*
X108383390Y-94309523D01*
X108383390Y-94309523D02*
X108431009Y-94261904D01*
X108431009Y-94261904D02*
X108526247Y-94214285D01*
X108526247Y-94214285D02*
X108764342Y-94214285D01*
X108764342Y-94214285D02*
X108859580Y-94261904D01*
X108859580Y-94261904D02*
X108907200Y-94309523D01*
X108907200Y-94309523D02*
X108954819Y-94404761D01*
X108954819Y-94404761D02*
X108954819Y-94690475D01*
X108954819Y-94690475D02*
X108907200Y-94785713D01*
X108907200Y-94785713D02*
X108859580Y-94833332D01*
X107954819Y-93595237D02*
X107954819Y-93499999D01*
X107954819Y-93499999D02*
X108002438Y-93404761D01*
X108002438Y-93404761D02*
X108050057Y-93357142D01*
X108050057Y-93357142D02*
X108145295Y-93309523D01*
X108145295Y-93309523D02*
X108335771Y-93261904D01*
X108335771Y-93261904D02*
X108573866Y-93261904D01*
X108573866Y-93261904D02*
X108764342Y-93309523D01*
X108764342Y-93309523D02*
X108859580Y-93357142D01*
X108859580Y-93357142D02*
X108907200Y-93404761D01*
X108907200Y-93404761D02*
X108954819Y-93499999D01*
X108954819Y-93499999D02*
X108954819Y-93595237D01*
X108954819Y-93595237D02*
X108907200Y-93690475D01*
X108907200Y-93690475D02*
X108859580Y-93738094D01*
X108859580Y-93738094D02*
X108764342Y-93785713D01*
X108764342Y-93785713D02*
X108573866Y-93833332D01*
X108573866Y-93833332D02*
X108335771Y-93833332D01*
X108335771Y-93833332D02*
X108145295Y-93785713D01*
X108145295Y-93785713D02*
X108050057Y-93738094D01*
X108050057Y-93738094D02*
X108002438Y-93690475D01*
X108002438Y-93690475D02*
X107954819Y-93595237D01*
X102534819Y-94666666D02*
X102058628Y-94999999D01*
X102534819Y-95238094D02*
X101534819Y-95238094D01*
X101534819Y-95238094D02*
X101534819Y-94857142D01*
X101534819Y-94857142D02*
X101582438Y-94761904D01*
X101582438Y-94761904D02*
X101630057Y-94714285D01*
X101630057Y-94714285D02*
X101725295Y-94666666D01*
X101725295Y-94666666D02*
X101868152Y-94666666D01*
X101868152Y-94666666D02*
X101963390Y-94714285D01*
X101963390Y-94714285D02*
X102011009Y-94761904D01*
X102011009Y-94761904D02*
X102058628Y-94857142D01*
X102058628Y-94857142D02*
X102058628Y-95238094D01*
X101534819Y-94333332D02*
X101534819Y-93714285D01*
X101534819Y-93714285D02*
X101915771Y-94047618D01*
X101915771Y-94047618D02*
X101915771Y-93904761D01*
X101915771Y-93904761D02*
X101963390Y-93809523D01*
X101963390Y-93809523D02*
X102011009Y-93761904D01*
X102011009Y-93761904D02*
X102106247Y-93714285D01*
X102106247Y-93714285D02*
X102344342Y-93714285D01*
X102344342Y-93714285D02*
X102439580Y-93761904D01*
X102439580Y-93761904D02*
X102487200Y-93809523D01*
X102487200Y-93809523D02*
X102534819Y-93904761D01*
X102534819Y-93904761D02*
X102534819Y-94190475D01*
X102534819Y-94190475D02*
X102487200Y-94285713D01*
X102487200Y-94285713D02*
X102439580Y-94333332D01*
X103904819Y-95785713D02*
X103904819Y-95166666D01*
X103904819Y-95166666D02*
X104285771Y-95499999D01*
X104285771Y-95499999D02*
X104285771Y-95357142D01*
X104285771Y-95357142D02*
X104333390Y-95261904D01*
X104333390Y-95261904D02*
X104381009Y-95214285D01*
X104381009Y-95214285D02*
X104476247Y-95166666D01*
X104476247Y-95166666D02*
X104714342Y-95166666D01*
X104714342Y-95166666D02*
X104809580Y-95214285D01*
X104809580Y-95214285D02*
X104857200Y-95261904D01*
X104857200Y-95261904D02*
X104904819Y-95357142D01*
X104904819Y-95357142D02*
X104904819Y-95642856D01*
X104904819Y-95642856D02*
X104857200Y-95738094D01*
X104857200Y-95738094D02*
X104809580Y-95785713D01*
X103904819Y-94833332D02*
X103904819Y-94214285D01*
X103904819Y-94214285D02*
X104285771Y-94547618D01*
X104285771Y-94547618D02*
X104285771Y-94404761D01*
X104285771Y-94404761D02*
X104333390Y-94309523D01*
X104333390Y-94309523D02*
X104381009Y-94261904D01*
X104381009Y-94261904D02*
X104476247Y-94214285D01*
X104476247Y-94214285D02*
X104714342Y-94214285D01*
X104714342Y-94214285D02*
X104809580Y-94261904D01*
X104809580Y-94261904D02*
X104857200Y-94309523D01*
X104857200Y-94309523D02*
X104904819Y-94404761D01*
X104904819Y-94404761D02*
X104904819Y-94690475D01*
X104904819Y-94690475D02*
X104857200Y-94785713D01*
X104857200Y-94785713D02*
X104809580Y-94833332D01*
X103904819Y-93595237D02*
X103904819Y-93499999D01*
X103904819Y-93499999D02*
X103952438Y-93404761D01*
X103952438Y-93404761D02*
X104000057Y-93357142D01*
X104000057Y-93357142D02*
X104095295Y-93309523D01*
X104095295Y-93309523D02*
X104285771Y-93261904D01*
X104285771Y-93261904D02*
X104523866Y-93261904D01*
X104523866Y-93261904D02*
X104714342Y-93309523D01*
X104714342Y-93309523D02*
X104809580Y-93357142D01*
X104809580Y-93357142D02*
X104857200Y-93404761D01*
X104857200Y-93404761D02*
X104904819Y-93499999D01*
X104904819Y-93499999D02*
X104904819Y-93595237D01*
X104904819Y-93595237D02*
X104857200Y-93690475D01*
X104857200Y-93690475D02*
X104809580Y-93738094D01*
X104809580Y-93738094D02*
X104714342Y-93785713D01*
X104714342Y-93785713D02*
X104523866Y-93833332D01*
X104523866Y-93833332D02*
X104285771Y-93833332D01*
X104285771Y-93833332D02*
X104095295Y-93785713D01*
X104095295Y-93785713D02*
X104000057Y-93738094D01*
X104000057Y-93738094D02*
X103952438Y-93690475D01*
X103952438Y-93690475D02*
X103904819Y-93595237D01*
X162858095Y-62964819D02*
X162858095Y-63774342D01*
X162858095Y-63774342D02*
X162905714Y-63869580D01*
X162905714Y-63869580D02*
X162953333Y-63917200D01*
X162953333Y-63917200D02*
X163048571Y-63964819D01*
X163048571Y-63964819D02*
X163239047Y-63964819D01*
X163239047Y-63964819D02*
X163334285Y-63917200D01*
X163334285Y-63917200D02*
X163381904Y-63869580D01*
X163381904Y-63869580D02*
X163429523Y-63774342D01*
X163429523Y-63774342D02*
X163429523Y-62964819D01*
X163810476Y-62964819D02*
X164429523Y-62964819D01*
X164429523Y-62964819D02*
X164096190Y-63345771D01*
X164096190Y-63345771D02*
X164239047Y-63345771D01*
X164239047Y-63345771D02*
X164334285Y-63393390D01*
X164334285Y-63393390D02*
X164381904Y-63441009D01*
X164381904Y-63441009D02*
X164429523Y-63536247D01*
X164429523Y-63536247D02*
X164429523Y-63774342D01*
X164429523Y-63774342D02*
X164381904Y-63869580D01*
X164381904Y-63869580D02*
X164334285Y-63917200D01*
X164334285Y-63917200D02*
X164239047Y-63964819D01*
X164239047Y-63964819D02*
X163953333Y-63964819D01*
X163953333Y-63964819D02*
X163858095Y-63917200D01*
X163858095Y-63917200D02*
X163810476Y-63869580D01*
X142048095Y-62594819D02*
X142048095Y-63404342D01*
X142048095Y-63404342D02*
X142095714Y-63499580D01*
X142095714Y-63499580D02*
X142143333Y-63547200D01*
X142143333Y-63547200D02*
X142238571Y-63594819D01*
X142238571Y-63594819D02*
X142429047Y-63594819D01*
X142429047Y-63594819D02*
X142524285Y-63547200D01*
X142524285Y-63547200D02*
X142571904Y-63499580D01*
X142571904Y-63499580D02*
X142619523Y-63404342D01*
X142619523Y-63404342D02*
X142619523Y-62594819D01*
X143048095Y-62690057D02*
X143095714Y-62642438D01*
X143095714Y-62642438D02*
X143190952Y-62594819D01*
X143190952Y-62594819D02*
X143429047Y-62594819D01*
X143429047Y-62594819D02*
X143524285Y-62642438D01*
X143524285Y-62642438D02*
X143571904Y-62690057D01*
X143571904Y-62690057D02*
X143619523Y-62785295D01*
X143619523Y-62785295D02*
X143619523Y-62880533D01*
X143619523Y-62880533D02*
X143571904Y-63023390D01*
X143571904Y-63023390D02*
X143000476Y-63594819D01*
X143000476Y-63594819D02*
X143619523Y-63594819D01*
X144857142Y-128609580D02*
X144809523Y-128657200D01*
X144809523Y-128657200D02*
X144666666Y-128704819D01*
X144666666Y-128704819D02*
X144571428Y-128704819D01*
X144571428Y-128704819D02*
X144428571Y-128657200D01*
X144428571Y-128657200D02*
X144333333Y-128561961D01*
X144333333Y-128561961D02*
X144285714Y-128466723D01*
X144285714Y-128466723D02*
X144238095Y-128276247D01*
X144238095Y-128276247D02*
X144238095Y-128133390D01*
X144238095Y-128133390D02*
X144285714Y-127942914D01*
X144285714Y-127942914D02*
X144333333Y-127847676D01*
X144333333Y-127847676D02*
X144428571Y-127752438D01*
X144428571Y-127752438D02*
X144571428Y-127704819D01*
X144571428Y-127704819D02*
X144666666Y-127704819D01*
X144666666Y-127704819D02*
X144809523Y-127752438D01*
X144809523Y-127752438D02*
X144857142Y-127800057D01*
X145809523Y-128704819D02*
X145238095Y-128704819D01*
X145523809Y-128704819D02*
X145523809Y-127704819D01*
X145523809Y-127704819D02*
X145428571Y-127847676D01*
X145428571Y-127847676D02*
X145333333Y-127942914D01*
X145333333Y-127942914D02*
X145238095Y-127990533D01*
X146761904Y-128704819D02*
X146190476Y-128704819D01*
X146476190Y-128704819D02*
X146476190Y-127704819D01*
X146476190Y-127704819D02*
X146380952Y-127847676D01*
X146380952Y-127847676D02*
X146285714Y-127942914D01*
X146285714Y-127942914D02*
X146190476Y-127990533D01*
X147538152Y-133142857D02*
X148204819Y-133142857D01*
X147157200Y-133380952D02*
X147871485Y-133619047D01*
X147871485Y-133619047D02*
X147871485Y-133000000D01*
X147204819Y-132714285D02*
X147204819Y-132047619D01*
X147204819Y-132047619D02*
X148204819Y-132476190D01*
X147204819Y-131476190D02*
X147204819Y-131380952D01*
X147204819Y-131380952D02*
X147252438Y-131285714D01*
X147252438Y-131285714D02*
X147300057Y-131238095D01*
X147300057Y-131238095D02*
X147395295Y-131190476D01*
X147395295Y-131190476D02*
X147585771Y-131142857D01*
X147585771Y-131142857D02*
X147823866Y-131142857D01*
X147823866Y-131142857D02*
X148014342Y-131190476D01*
X148014342Y-131190476D02*
X148109580Y-131238095D01*
X148109580Y-131238095D02*
X148157200Y-131285714D01*
X148157200Y-131285714D02*
X148204819Y-131380952D01*
X148204819Y-131380952D02*
X148204819Y-131476190D01*
X148204819Y-131476190D02*
X148157200Y-131571428D01*
X148157200Y-131571428D02*
X148109580Y-131619047D01*
X148109580Y-131619047D02*
X148014342Y-131666666D01*
X148014342Y-131666666D02*
X147823866Y-131714285D01*
X147823866Y-131714285D02*
X147585771Y-131714285D01*
X147585771Y-131714285D02*
X147395295Y-131666666D01*
X147395295Y-131666666D02*
X147300057Y-131619047D01*
X147300057Y-131619047D02*
X147252438Y-131571428D01*
X147252438Y-131571428D02*
X147204819Y-131476190D01*
X147538152Y-130714285D02*
X148204819Y-130714285D01*
X147633390Y-130714285D02*
X147585771Y-130666666D01*
X147585771Y-130666666D02*
X147538152Y-130571428D01*
X147538152Y-130571428D02*
X147538152Y-130428571D01*
X147538152Y-130428571D02*
X147585771Y-130333333D01*
X147585771Y-130333333D02*
X147681009Y-130285714D01*
X147681009Y-130285714D02*
X148204819Y-130285714D01*
X147681009Y-129476190D02*
X147681009Y-129809523D01*
X148204819Y-129809523D02*
X147204819Y-129809523D01*
X147204819Y-129809523D02*
X147204819Y-129333333D01*
X139083333Y-60609580D02*
X139035714Y-60657200D01*
X139035714Y-60657200D02*
X138892857Y-60704819D01*
X138892857Y-60704819D02*
X138797619Y-60704819D01*
X138797619Y-60704819D02*
X138654762Y-60657200D01*
X138654762Y-60657200D02*
X138559524Y-60561961D01*
X138559524Y-60561961D02*
X138511905Y-60466723D01*
X138511905Y-60466723D02*
X138464286Y-60276247D01*
X138464286Y-60276247D02*
X138464286Y-60133390D01*
X138464286Y-60133390D02*
X138511905Y-59942914D01*
X138511905Y-59942914D02*
X138559524Y-59847676D01*
X138559524Y-59847676D02*
X138654762Y-59752438D01*
X138654762Y-59752438D02*
X138797619Y-59704819D01*
X138797619Y-59704819D02*
X138892857Y-59704819D01*
X138892857Y-59704819D02*
X139035714Y-59752438D01*
X139035714Y-59752438D02*
X139083333Y-59800057D01*
X139940476Y-60038152D02*
X139940476Y-60704819D01*
X139702381Y-59657200D02*
X139464286Y-60371485D01*
X139464286Y-60371485D02*
X140083333Y-60371485D01*
X132952380Y-62954819D02*
X132380952Y-62954819D01*
X132666666Y-62954819D02*
X132666666Y-61954819D01*
X132666666Y-61954819D02*
X132571428Y-62097676D01*
X132571428Y-62097676D02*
X132476190Y-62192914D01*
X132476190Y-62192914D02*
X132380952Y-62240533D01*
X133571428Y-61954819D02*
X133666666Y-61954819D01*
X133666666Y-61954819D02*
X133761904Y-62002438D01*
X133761904Y-62002438D02*
X133809523Y-62050057D01*
X133809523Y-62050057D02*
X133857142Y-62145295D01*
X133857142Y-62145295D02*
X133904761Y-62335771D01*
X133904761Y-62335771D02*
X133904761Y-62573866D01*
X133904761Y-62573866D02*
X133857142Y-62764342D01*
X133857142Y-62764342D02*
X133809523Y-62859580D01*
X133809523Y-62859580D02*
X133761904Y-62907200D01*
X133761904Y-62907200D02*
X133666666Y-62954819D01*
X133666666Y-62954819D02*
X133571428Y-62954819D01*
X133571428Y-62954819D02*
X133476190Y-62907200D01*
X133476190Y-62907200D02*
X133428571Y-62859580D01*
X133428571Y-62859580D02*
X133380952Y-62764342D01*
X133380952Y-62764342D02*
X133333333Y-62573866D01*
X133333333Y-62573866D02*
X133333333Y-62335771D01*
X133333333Y-62335771D02*
X133380952Y-62145295D01*
X133380952Y-62145295D02*
X133428571Y-62050057D01*
X133428571Y-62050057D02*
X133476190Y-62002438D01*
X133476190Y-62002438D02*
X133571428Y-61954819D01*
X134523809Y-61954819D02*
X134619047Y-61954819D01*
X134619047Y-61954819D02*
X134714285Y-62002438D01*
X134714285Y-62002438D02*
X134761904Y-62050057D01*
X134761904Y-62050057D02*
X134809523Y-62145295D01*
X134809523Y-62145295D02*
X134857142Y-62335771D01*
X134857142Y-62335771D02*
X134857142Y-62573866D01*
X134857142Y-62573866D02*
X134809523Y-62764342D01*
X134809523Y-62764342D02*
X134761904Y-62859580D01*
X134761904Y-62859580D02*
X134714285Y-62907200D01*
X134714285Y-62907200D02*
X134619047Y-62954819D01*
X134619047Y-62954819D02*
X134523809Y-62954819D01*
X134523809Y-62954819D02*
X134428571Y-62907200D01*
X134428571Y-62907200D02*
X134380952Y-62859580D01*
X134380952Y-62859580D02*
X134333333Y-62764342D01*
X134333333Y-62764342D02*
X134285714Y-62573866D01*
X134285714Y-62573866D02*
X134285714Y-62335771D01*
X134285714Y-62335771D02*
X134333333Y-62145295D01*
X134333333Y-62145295D02*
X134380952Y-62050057D01*
X134380952Y-62050057D02*
X134428571Y-62002438D01*
X134428571Y-62002438D02*
X134523809Y-61954819D01*
X135285714Y-62288152D02*
X135285714Y-62954819D01*
X135285714Y-62383390D02*
X135333333Y-62335771D01*
X135333333Y-62335771D02*
X135428571Y-62288152D01*
X135428571Y-62288152D02*
X135571428Y-62288152D01*
X135571428Y-62288152D02*
X135666666Y-62335771D01*
X135666666Y-62335771D02*
X135714285Y-62431009D01*
X135714285Y-62431009D02*
X135714285Y-62954819D01*
X136523809Y-62431009D02*
X136190476Y-62431009D01*
X136190476Y-62954819D02*
X136190476Y-61954819D01*
X136190476Y-61954819D02*
X136666666Y-61954819D01*
X172928095Y-118884819D02*
X172928095Y-119694342D01*
X172928095Y-119694342D02*
X172975714Y-119789580D01*
X172975714Y-119789580D02*
X173023333Y-119837200D01*
X173023333Y-119837200D02*
X173118571Y-119884819D01*
X173118571Y-119884819D02*
X173309047Y-119884819D01*
X173309047Y-119884819D02*
X173404285Y-119837200D01*
X173404285Y-119837200D02*
X173451904Y-119789580D01*
X173451904Y-119789580D02*
X173499523Y-119694342D01*
X173499523Y-119694342D02*
X173499523Y-118884819D01*
X174404285Y-118884819D02*
X174213809Y-118884819D01*
X174213809Y-118884819D02*
X174118571Y-118932438D01*
X174118571Y-118932438D02*
X174070952Y-118980057D01*
X174070952Y-118980057D02*
X173975714Y-119122914D01*
X173975714Y-119122914D02*
X173928095Y-119313390D01*
X173928095Y-119313390D02*
X173928095Y-119694342D01*
X173928095Y-119694342D02*
X173975714Y-119789580D01*
X173975714Y-119789580D02*
X174023333Y-119837200D01*
X174023333Y-119837200D02*
X174118571Y-119884819D01*
X174118571Y-119884819D02*
X174309047Y-119884819D01*
X174309047Y-119884819D02*
X174404285Y-119837200D01*
X174404285Y-119837200D02*
X174451904Y-119789580D01*
X174451904Y-119789580D02*
X174499523Y-119694342D01*
X174499523Y-119694342D02*
X174499523Y-119456247D01*
X174499523Y-119456247D02*
X174451904Y-119361009D01*
X174451904Y-119361009D02*
X174404285Y-119313390D01*
X174404285Y-119313390D02*
X174309047Y-119265771D01*
X174309047Y-119265771D02*
X174118571Y-119265771D01*
X174118571Y-119265771D02*
X174023333Y-119313390D01*
X174023333Y-119313390D02*
X173975714Y-119361009D01*
X173975714Y-119361009D02*
X173928095Y-119456247D01*
X126492200Y-143628332D02*
X126539819Y-143485475D01*
X126539819Y-143485475D02*
X126539819Y-143247380D01*
X126539819Y-143247380D02*
X126492200Y-143152142D01*
X126492200Y-143152142D02*
X126444580Y-143104523D01*
X126444580Y-143104523D02*
X126349342Y-143056904D01*
X126349342Y-143056904D02*
X126254104Y-143056904D01*
X126254104Y-143056904D02*
X126158866Y-143104523D01*
X126158866Y-143104523D02*
X126111247Y-143152142D01*
X126111247Y-143152142D02*
X126063628Y-143247380D01*
X126063628Y-143247380D02*
X126016009Y-143437856D01*
X126016009Y-143437856D02*
X125968390Y-143533094D01*
X125968390Y-143533094D02*
X125920771Y-143580713D01*
X125920771Y-143580713D02*
X125825533Y-143628332D01*
X125825533Y-143628332D02*
X125730295Y-143628332D01*
X125730295Y-143628332D02*
X125635057Y-143580713D01*
X125635057Y-143580713D02*
X125587438Y-143533094D01*
X125587438Y-143533094D02*
X125539819Y-143437856D01*
X125539819Y-143437856D02*
X125539819Y-143199761D01*
X125539819Y-143199761D02*
X125587438Y-143056904D01*
X125539819Y-142723570D02*
X126539819Y-142485475D01*
X126539819Y-142485475D02*
X125825533Y-142294999D01*
X125825533Y-142294999D02*
X126539819Y-142104523D01*
X126539819Y-142104523D02*
X125539819Y-141866428D01*
X125873152Y-141056904D02*
X126539819Y-141056904D01*
X125492200Y-141294999D02*
X126206485Y-141533094D01*
X126206485Y-141533094D02*
X126206485Y-140914047D01*
X108574819Y-83916666D02*
X108098628Y-84249999D01*
X108574819Y-84488094D02*
X107574819Y-84488094D01*
X107574819Y-84488094D02*
X107574819Y-84107142D01*
X107574819Y-84107142D02*
X107622438Y-84011904D01*
X107622438Y-84011904D02*
X107670057Y-83964285D01*
X107670057Y-83964285D02*
X107765295Y-83916666D01*
X107765295Y-83916666D02*
X107908152Y-83916666D01*
X107908152Y-83916666D02*
X108003390Y-83964285D01*
X108003390Y-83964285D02*
X108051009Y-84011904D01*
X108051009Y-84011904D02*
X108098628Y-84107142D01*
X108098628Y-84107142D02*
X108098628Y-84488094D01*
X107574819Y-83011904D02*
X107574819Y-83488094D01*
X107574819Y-83488094D02*
X108051009Y-83535713D01*
X108051009Y-83535713D02*
X108003390Y-83488094D01*
X108003390Y-83488094D02*
X107955771Y-83392856D01*
X107955771Y-83392856D02*
X107955771Y-83154761D01*
X107955771Y-83154761D02*
X108003390Y-83059523D01*
X108003390Y-83059523D02*
X108051009Y-83011904D01*
X108051009Y-83011904D02*
X108146247Y-82964285D01*
X108146247Y-82964285D02*
X108384342Y-82964285D01*
X108384342Y-82964285D02*
X108479580Y-83011904D01*
X108479580Y-83011904D02*
X108527200Y-83059523D01*
X108527200Y-83059523D02*
X108574819Y-83154761D01*
X108574819Y-83154761D02*
X108574819Y-83392856D01*
X108574819Y-83392856D02*
X108527200Y-83488094D01*
X108527200Y-83488094D02*
X108479580Y-83535713D01*
X106204819Y-84440476D02*
X106204819Y-85011904D01*
X106204819Y-84726190D02*
X105204819Y-84726190D01*
X105204819Y-84726190D02*
X105347676Y-84821428D01*
X105347676Y-84821428D02*
X105442914Y-84916666D01*
X105442914Y-84916666D02*
X105490533Y-85011904D01*
X105204819Y-83821428D02*
X105204819Y-83726190D01*
X105204819Y-83726190D02*
X105252438Y-83630952D01*
X105252438Y-83630952D02*
X105300057Y-83583333D01*
X105300057Y-83583333D02*
X105395295Y-83535714D01*
X105395295Y-83535714D02*
X105585771Y-83488095D01*
X105585771Y-83488095D02*
X105823866Y-83488095D01*
X105823866Y-83488095D02*
X106014342Y-83535714D01*
X106014342Y-83535714D02*
X106109580Y-83583333D01*
X106109580Y-83583333D02*
X106157200Y-83630952D01*
X106157200Y-83630952D02*
X106204819Y-83726190D01*
X106204819Y-83726190D02*
X106204819Y-83821428D01*
X106204819Y-83821428D02*
X106157200Y-83916666D01*
X106157200Y-83916666D02*
X106109580Y-83964285D01*
X106109580Y-83964285D02*
X106014342Y-84011904D01*
X106014342Y-84011904D02*
X105823866Y-84059523D01*
X105823866Y-84059523D02*
X105585771Y-84059523D01*
X105585771Y-84059523D02*
X105395295Y-84011904D01*
X105395295Y-84011904D02*
X105300057Y-83964285D01*
X105300057Y-83964285D02*
X105252438Y-83916666D01*
X105252438Y-83916666D02*
X105204819Y-83821428D01*
X106204819Y-83059523D02*
X105204819Y-83059523D01*
X106204819Y-82488095D02*
X105633390Y-82916666D01*
X105204819Y-82488095D02*
X105776247Y-83059523D01*
X155428095Y-122134819D02*
X155428095Y-122944342D01*
X155428095Y-122944342D02*
X155475714Y-123039580D01*
X155475714Y-123039580D02*
X155523333Y-123087200D01*
X155523333Y-123087200D02*
X155618571Y-123134819D01*
X155618571Y-123134819D02*
X155809047Y-123134819D01*
X155809047Y-123134819D02*
X155904285Y-123087200D01*
X155904285Y-123087200D02*
X155951904Y-123039580D01*
X155951904Y-123039580D02*
X155999523Y-122944342D01*
X155999523Y-122944342D02*
X155999523Y-122134819D01*
X156951904Y-122134819D02*
X156475714Y-122134819D01*
X156475714Y-122134819D02*
X156428095Y-122611009D01*
X156428095Y-122611009D02*
X156475714Y-122563390D01*
X156475714Y-122563390D02*
X156570952Y-122515771D01*
X156570952Y-122515771D02*
X156809047Y-122515771D01*
X156809047Y-122515771D02*
X156904285Y-122563390D01*
X156904285Y-122563390D02*
X156951904Y-122611009D01*
X156951904Y-122611009D02*
X156999523Y-122706247D01*
X156999523Y-122706247D02*
X156999523Y-122944342D01*
X156999523Y-122944342D02*
X156951904Y-123039580D01*
X156951904Y-123039580D02*
X156904285Y-123087200D01*
X156904285Y-123087200D02*
X156809047Y-123134819D01*
X156809047Y-123134819D02*
X156570952Y-123134819D01*
X156570952Y-123134819D02*
X156475714Y-123087200D01*
X156475714Y-123087200D02*
X156428095Y-123039580D01*
X124523333Y-120584819D02*
X124190000Y-120108628D01*
X123951905Y-120584819D02*
X123951905Y-119584819D01*
X123951905Y-119584819D02*
X124332857Y-119584819D01*
X124332857Y-119584819D02*
X124428095Y-119632438D01*
X124428095Y-119632438D02*
X124475714Y-119680057D01*
X124475714Y-119680057D02*
X124523333Y-119775295D01*
X124523333Y-119775295D02*
X124523333Y-119918152D01*
X124523333Y-119918152D02*
X124475714Y-120013390D01*
X124475714Y-120013390D02*
X124428095Y-120061009D01*
X124428095Y-120061009D02*
X124332857Y-120108628D01*
X124332857Y-120108628D02*
X123951905Y-120108628D01*
X125475714Y-120584819D02*
X124904286Y-120584819D01*
X125190000Y-120584819D02*
X125190000Y-119584819D01*
X125190000Y-119584819D02*
X125094762Y-119727676D01*
X125094762Y-119727676D02*
X124999524Y-119822914D01*
X124999524Y-119822914D02*
X124904286Y-119870533D01*
D13*
X123999523Y-122956119D02*
X123428095Y-122956119D01*
X123713809Y-122956119D02*
X123713809Y-121956119D01*
X123713809Y-121956119D02*
X123618571Y-122098976D01*
X123618571Y-122098976D02*
X123523333Y-122194214D01*
X123523333Y-122194214D02*
X123428095Y-122241833D01*
X124618571Y-121956119D02*
X124713809Y-121956119D01*
X124713809Y-121956119D02*
X124809047Y-122003738D01*
X124809047Y-122003738D02*
X124856666Y-122051357D01*
X124856666Y-122051357D02*
X124904285Y-122146595D01*
X124904285Y-122146595D02*
X124951904Y-122337071D01*
X124951904Y-122337071D02*
X124951904Y-122575166D01*
X124951904Y-122575166D02*
X124904285Y-122765642D01*
X124904285Y-122765642D02*
X124856666Y-122860880D01*
X124856666Y-122860880D02*
X124809047Y-122908500D01*
X124809047Y-122908500D02*
X124713809Y-122956119D01*
X124713809Y-122956119D02*
X124618571Y-122956119D01*
X124618571Y-122956119D02*
X124523333Y-122908500D01*
X124523333Y-122908500D02*
X124475714Y-122860880D01*
X124475714Y-122860880D02*
X124428095Y-122765642D01*
X124428095Y-122765642D02*
X124380476Y-122575166D01*
X124380476Y-122575166D02*
X124380476Y-122337071D01*
X124380476Y-122337071D02*
X124428095Y-122146595D01*
X124428095Y-122146595D02*
X124475714Y-122051357D01*
X124475714Y-122051357D02*
X124523333Y-122003738D01*
X124523333Y-122003738D02*
X124618571Y-121956119D01*
X125380476Y-122956119D02*
X125380476Y-121956119D01*
X125951904Y-122956119D02*
X125523333Y-122384690D01*
X125951904Y-121956119D02*
X125380476Y-122527547D01*
D12*
X112333333Y-136609580D02*
X112285714Y-136657200D01*
X112285714Y-136657200D02*
X112142857Y-136704819D01*
X112142857Y-136704819D02*
X112047619Y-136704819D01*
X112047619Y-136704819D02*
X111904762Y-136657200D01*
X111904762Y-136657200D02*
X111809524Y-136561961D01*
X111809524Y-136561961D02*
X111761905Y-136466723D01*
X111761905Y-136466723D02*
X111714286Y-136276247D01*
X111714286Y-136276247D02*
X111714286Y-136133390D01*
X111714286Y-136133390D02*
X111761905Y-135942914D01*
X111761905Y-135942914D02*
X111809524Y-135847676D01*
X111809524Y-135847676D02*
X111904762Y-135752438D01*
X111904762Y-135752438D02*
X112047619Y-135704819D01*
X112047619Y-135704819D02*
X112142857Y-135704819D01*
X112142857Y-135704819D02*
X112285714Y-135752438D01*
X112285714Y-135752438D02*
X112333333Y-135800057D01*
X112714286Y-135800057D02*
X112761905Y-135752438D01*
X112761905Y-135752438D02*
X112857143Y-135704819D01*
X112857143Y-135704819D02*
X113095238Y-135704819D01*
X113095238Y-135704819D02*
X113190476Y-135752438D01*
X113190476Y-135752438D02*
X113238095Y-135800057D01*
X113238095Y-135800057D02*
X113285714Y-135895295D01*
X113285714Y-135895295D02*
X113285714Y-135990533D01*
X113285714Y-135990533D02*
X113238095Y-136133390D01*
X113238095Y-136133390D02*
X112666667Y-136704819D01*
X112666667Y-136704819D02*
X113285714Y-136704819D01*
X110952380Y-141204819D02*
X110380952Y-141204819D01*
X110666666Y-141204819D02*
X110666666Y-140204819D01*
X110666666Y-140204819D02*
X110571428Y-140347676D01*
X110571428Y-140347676D02*
X110476190Y-140442914D01*
X110476190Y-140442914D02*
X110380952Y-140490533D01*
X111571428Y-140204819D02*
X111666666Y-140204819D01*
X111666666Y-140204819D02*
X111761904Y-140252438D01*
X111761904Y-140252438D02*
X111809523Y-140300057D01*
X111809523Y-140300057D02*
X111857142Y-140395295D01*
X111857142Y-140395295D02*
X111904761Y-140585771D01*
X111904761Y-140585771D02*
X111904761Y-140823866D01*
X111904761Y-140823866D02*
X111857142Y-141014342D01*
X111857142Y-141014342D02*
X111809523Y-141109580D01*
X111809523Y-141109580D02*
X111761904Y-141157200D01*
X111761904Y-141157200D02*
X111666666Y-141204819D01*
X111666666Y-141204819D02*
X111571428Y-141204819D01*
X111571428Y-141204819D02*
X111476190Y-141157200D01*
X111476190Y-141157200D02*
X111428571Y-141109580D01*
X111428571Y-141109580D02*
X111380952Y-141014342D01*
X111380952Y-141014342D02*
X111333333Y-140823866D01*
X111333333Y-140823866D02*
X111333333Y-140585771D01*
X111333333Y-140585771D02*
X111380952Y-140395295D01*
X111380952Y-140395295D02*
X111428571Y-140300057D01*
X111428571Y-140300057D02*
X111476190Y-140252438D01*
X111476190Y-140252438D02*
X111571428Y-140204819D01*
X112523809Y-140204819D02*
X112619047Y-140204819D01*
X112619047Y-140204819D02*
X112714285Y-140252438D01*
X112714285Y-140252438D02*
X112761904Y-140300057D01*
X112761904Y-140300057D02*
X112809523Y-140395295D01*
X112809523Y-140395295D02*
X112857142Y-140585771D01*
X112857142Y-140585771D02*
X112857142Y-140823866D01*
X112857142Y-140823866D02*
X112809523Y-141014342D01*
X112809523Y-141014342D02*
X112761904Y-141109580D01*
X112761904Y-141109580D02*
X112714285Y-141157200D01*
X112714285Y-141157200D02*
X112619047Y-141204819D01*
X112619047Y-141204819D02*
X112523809Y-141204819D01*
X112523809Y-141204819D02*
X112428571Y-141157200D01*
X112428571Y-141157200D02*
X112380952Y-141109580D01*
X112380952Y-141109580D02*
X112333333Y-141014342D01*
X112333333Y-141014342D02*
X112285714Y-140823866D01*
X112285714Y-140823866D02*
X112285714Y-140585771D01*
X112285714Y-140585771D02*
X112333333Y-140395295D01*
X112333333Y-140395295D02*
X112380952Y-140300057D01*
X112380952Y-140300057D02*
X112428571Y-140252438D01*
X112428571Y-140252438D02*
X112523809Y-140204819D01*
X113285714Y-140538152D02*
X113285714Y-141204819D01*
X113285714Y-140633390D02*
X113333333Y-140585771D01*
X113333333Y-140585771D02*
X113428571Y-140538152D01*
X113428571Y-140538152D02*
X113571428Y-140538152D01*
X113571428Y-140538152D02*
X113666666Y-140585771D01*
X113666666Y-140585771D02*
X113714285Y-140681009D01*
X113714285Y-140681009D02*
X113714285Y-141204819D01*
X114523809Y-140681009D02*
X114190476Y-140681009D01*
X114190476Y-141204819D02*
X114190476Y-140204819D01*
X114190476Y-140204819D02*
X114666666Y-140204819D01*
X126511905Y-49584819D02*
X126511905Y-48584819D01*
X126511905Y-48584819D02*
X126750000Y-48584819D01*
X126750000Y-48584819D02*
X126892857Y-48632438D01*
X126892857Y-48632438D02*
X126988095Y-48727676D01*
X126988095Y-48727676D02*
X127035714Y-48822914D01*
X127035714Y-48822914D02*
X127083333Y-49013390D01*
X127083333Y-49013390D02*
X127083333Y-49156247D01*
X127083333Y-49156247D02*
X127035714Y-49346723D01*
X127035714Y-49346723D02*
X126988095Y-49441961D01*
X126988095Y-49441961D02*
X126892857Y-49537200D01*
X126892857Y-49537200D02*
X126750000Y-49584819D01*
X126750000Y-49584819D02*
X126511905Y-49584819D01*
X127416667Y-48584819D02*
X128035714Y-48584819D01*
X128035714Y-48584819D02*
X127702381Y-48965771D01*
X127702381Y-48965771D02*
X127845238Y-48965771D01*
X127845238Y-48965771D02*
X127940476Y-49013390D01*
X127940476Y-49013390D02*
X127988095Y-49061009D01*
X127988095Y-49061009D02*
X128035714Y-49156247D01*
X128035714Y-49156247D02*
X128035714Y-49394342D01*
X128035714Y-49394342D02*
X127988095Y-49489580D01*
X127988095Y-49489580D02*
X127940476Y-49537200D01*
X127940476Y-49537200D02*
X127845238Y-49584819D01*
X127845238Y-49584819D02*
X127559524Y-49584819D01*
X127559524Y-49584819D02*
X127464286Y-49537200D01*
X127464286Y-49537200D02*
X127416667Y-49489580D01*
X123178095Y-49904819D02*
X123178095Y-48904819D01*
X123749523Y-49904819D02*
X123320952Y-49333390D01*
X123749523Y-48904819D02*
X123178095Y-49476247D01*
X132416666Y-67704819D02*
X132416666Y-68419104D01*
X132416666Y-68419104D02*
X132369047Y-68561961D01*
X132369047Y-68561961D02*
X132273809Y-68657200D01*
X132273809Y-68657200D02*
X132130952Y-68704819D01*
X132130952Y-68704819D02*
X132035714Y-68704819D01*
X132797619Y-67704819D02*
X133416666Y-67704819D01*
X133416666Y-67704819D02*
X133083333Y-68085771D01*
X133083333Y-68085771D02*
X133226190Y-68085771D01*
X133226190Y-68085771D02*
X133321428Y-68133390D01*
X133321428Y-68133390D02*
X133369047Y-68181009D01*
X133369047Y-68181009D02*
X133416666Y-68276247D01*
X133416666Y-68276247D02*
X133416666Y-68514342D01*
X133416666Y-68514342D02*
X133369047Y-68609580D01*
X133369047Y-68609580D02*
X133321428Y-68657200D01*
X133321428Y-68657200D02*
X133226190Y-68704819D01*
X133226190Y-68704819D02*
X132940476Y-68704819D01*
X132940476Y-68704819D02*
X132845238Y-68657200D01*
X132845238Y-68657200D02*
X132797619Y-68609580D01*
X97256905Y-98204819D02*
X97256905Y-97204819D01*
X97256905Y-97204819D02*
X97495000Y-97204819D01*
X97495000Y-97204819D02*
X97637857Y-97252438D01*
X97637857Y-97252438D02*
X97733095Y-97347676D01*
X97733095Y-97347676D02*
X97780714Y-97442914D01*
X97780714Y-97442914D02*
X97828333Y-97633390D01*
X97828333Y-97633390D02*
X97828333Y-97776247D01*
X97828333Y-97776247D02*
X97780714Y-97966723D01*
X97780714Y-97966723D02*
X97733095Y-98061961D01*
X97733095Y-98061961D02*
X97637857Y-98157200D01*
X97637857Y-98157200D02*
X97495000Y-98204819D01*
X97495000Y-98204819D02*
X97256905Y-98204819D01*
X98209286Y-97300057D02*
X98256905Y-97252438D01*
X98256905Y-97252438D02*
X98352143Y-97204819D01*
X98352143Y-97204819D02*
X98590238Y-97204819D01*
X98590238Y-97204819D02*
X98685476Y-97252438D01*
X98685476Y-97252438D02*
X98733095Y-97300057D01*
X98733095Y-97300057D02*
X98780714Y-97395295D01*
X98780714Y-97395295D02*
X98780714Y-97490533D01*
X98780714Y-97490533D02*
X98733095Y-97633390D01*
X98733095Y-97633390D02*
X98161667Y-98204819D01*
X98161667Y-98204819D02*
X98780714Y-98204819D01*
X127083333Y-58574819D02*
X126750000Y-58098628D01*
X126511905Y-58574819D02*
X126511905Y-57574819D01*
X126511905Y-57574819D02*
X126892857Y-57574819D01*
X126892857Y-57574819D02*
X126988095Y-57622438D01*
X126988095Y-57622438D02*
X127035714Y-57670057D01*
X127035714Y-57670057D02*
X127083333Y-57765295D01*
X127083333Y-57765295D02*
X127083333Y-57908152D01*
X127083333Y-57908152D02*
X127035714Y-58003390D01*
X127035714Y-58003390D02*
X126988095Y-58051009D01*
X126988095Y-58051009D02*
X126892857Y-58098628D01*
X126892857Y-58098628D02*
X126511905Y-58098628D01*
X127940476Y-57574819D02*
X127750000Y-57574819D01*
X127750000Y-57574819D02*
X127654762Y-57622438D01*
X127654762Y-57622438D02*
X127607143Y-57670057D01*
X127607143Y-57670057D02*
X127511905Y-57812914D01*
X127511905Y-57812914D02*
X127464286Y-58003390D01*
X127464286Y-58003390D02*
X127464286Y-58384342D01*
X127464286Y-58384342D02*
X127511905Y-58479580D01*
X127511905Y-58479580D02*
X127559524Y-58527200D01*
X127559524Y-58527200D02*
X127654762Y-58574819D01*
X127654762Y-58574819D02*
X127845238Y-58574819D01*
X127845238Y-58574819D02*
X127940476Y-58527200D01*
X127940476Y-58527200D02*
X127988095Y-58479580D01*
X127988095Y-58479580D02*
X128035714Y-58384342D01*
X128035714Y-58384342D02*
X128035714Y-58146247D01*
X128035714Y-58146247D02*
X127988095Y-58051009D01*
X127988095Y-58051009D02*
X127940476Y-58003390D01*
X127940476Y-58003390D02*
X127845238Y-57955771D01*
X127845238Y-57955771D02*
X127654762Y-57955771D01*
X127654762Y-57955771D02*
X127559524Y-58003390D01*
X127559524Y-58003390D02*
X127511905Y-58051009D01*
X127511905Y-58051009D02*
X127464286Y-58146247D01*
X127035714Y-56204819D02*
X126464286Y-56204819D01*
X126750000Y-56204819D02*
X126750000Y-55204819D01*
X126750000Y-55204819D02*
X126654762Y-55347676D01*
X126654762Y-55347676D02*
X126559524Y-55442914D01*
X126559524Y-55442914D02*
X126464286Y-55490533D01*
X127464286Y-56204819D02*
X127464286Y-55204819D01*
X128035714Y-56204819D02*
X127607143Y-55633390D01*
X128035714Y-55204819D02*
X127464286Y-55776247D01*
X97256905Y-90494819D02*
X97256905Y-89494819D01*
X97256905Y-89494819D02*
X97495000Y-89494819D01*
X97495000Y-89494819D02*
X97637857Y-89542438D01*
X97637857Y-89542438D02*
X97733095Y-89637676D01*
X97733095Y-89637676D02*
X97780714Y-89732914D01*
X97780714Y-89732914D02*
X97828333Y-89923390D01*
X97828333Y-89923390D02*
X97828333Y-90066247D01*
X97828333Y-90066247D02*
X97780714Y-90256723D01*
X97780714Y-90256723D02*
X97733095Y-90351961D01*
X97733095Y-90351961D02*
X97637857Y-90447200D01*
X97637857Y-90447200D02*
X97495000Y-90494819D01*
X97495000Y-90494819D02*
X97256905Y-90494819D01*
X98780714Y-90494819D02*
X98209286Y-90494819D01*
X98495000Y-90494819D02*
X98495000Y-89494819D01*
X98495000Y-89494819D02*
X98399762Y-89637676D01*
X98399762Y-89637676D02*
X98304524Y-89732914D01*
X98304524Y-89732914D02*
X98209286Y-89780533D01*
X135083333Y-120109580D02*
X135035714Y-120157200D01*
X135035714Y-120157200D02*
X134892857Y-120204819D01*
X134892857Y-120204819D02*
X134797619Y-120204819D01*
X134797619Y-120204819D02*
X134654762Y-120157200D01*
X134654762Y-120157200D02*
X134559524Y-120061961D01*
X134559524Y-120061961D02*
X134511905Y-119966723D01*
X134511905Y-119966723D02*
X134464286Y-119776247D01*
X134464286Y-119776247D02*
X134464286Y-119633390D01*
X134464286Y-119633390D02*
X134511905Y-119442914D01*
X134511905Y-119442914D02*
X134559524Y-119347676D01*
X134559524Y-119347676D02*
X134654762Y-119252438D01*
X134654762Y-119252438D02*
X134797619Y-119204819D01*
X134797619Y-119204819D02*
X134892857Y-119204819D01*
X134892857Y-119204819D02*
X135035714Y-119252438D01*
X135035714Y-119252438D02*
X135083333Y-119300057D01*
X135416667Y-119204819D02*
X136083333Y-119204819D01*
X136083333Y-119204819D02*
X135654762Y-120204819D01*
X132454819Y-123547619D02*
X132454819Y-124119047D01*
X132454819Y-123833333D02*
X131454819Y-123833333D01*
X131454819Y-123833333D02*
X131597676Y-123928571D01*
X131597676Y-123928571D02*
X131692914Y-124023809D01*
X131692914Y-124023809D02*
X131740533Y-124119047D01*
X131454819Y-122928571D02*
X131454819Y-122833333D01*
X131454819Y-122833333D02*
X131502438Y-122738095D01*
X131502438Y-122738095D02*
X131550057Y-122690476D01*
X131550057Y-122690476D02*
X131645295Y-122642857D01*
X131645295Y-122642857D02*
X131835771Y-122595238D01*
X131835771Y-122595238D02*
X132073866Y-122595238D01*
X132073866Y-122595238D02*
X132264342Y-122642857D01*
X132264342Y-122642857D02*
X132359580Y-122690476D01*
X132359580Y-122690476D02*
X132407200Y-122738095D01*
X132407200Y-122738095D02*
X132454819Y-122833333D01*
X132454819Y-122833333D02*
X132454819Y-122928571D01*
X132454819Y-122928571D02*
X132407200Y-123023809D01*
X132407200Y-123023809D02*
X132359580Y-123071428D01*
X132359580Y-123071428D02*
X132264342Y-123119047D01*
X132264342Y-123119047D02*
X132073866Y-123166666D01*
X132073866Y-123166666D02*
X131835771Y-123166666D01*
X131835771Y-123166666D02*
X131645295Y-123119047D01*
X131645295Y-123119047D02*
X131550057Y-123071428D01*
X131550057Y-123071428D02*
X131502438Y-123023809D01*
X131502438Y-123023809D02*
X131454819Y-122928571D01*
X131454819Y-121976190D02*
X131454819Y-121880952D01*
X131454819Y-121880952D02*
X131502438Y-121785714D01*
X131502438Y-121785714D02*
X131550057Y-121738095D01*
X131550057Y-121738095D02*
X131645295Y-121690476D01*
X131645295Y-121690476D02*
X131835771Y-121642857D01*
X131835771Y-121642857D02*
X132073866Y-121642857D01*
X132073866Y-121642857D02*
X132264342Y-121690476D01*
X132264342Y-121690476D02*
X132359580Y-121738095D01*
X132359580Y-121738095D02*
X132407200Y-121785714D01*
X132407200Y-121785714D02*
X132454819Y-121880952D01*
X132454819Y-121880952D02*
X132454819Y-121976190D01*
X132454819Y-121976190D02*
X132407200Y-122071428D01*
X132407200Y-122071428D02*
X132359580Y-122119047D01*
X132359580Y-122119047D02*
X132264342Y-122166666D01*
X132264342Y-122166666D02*
X132073866Y-122214285D01*
X132073866Y-122214285D02*
X131835771Y-122214285D01*
X131835771Y-122214285D02*
X131645295Y-122166666D01*
X131645295Y-122166666D02*
X131550057Y-122119047D01*
X131550057Y-122119047D02*
X131502438Y-122071428D01*
X131502438Y-122071428D02*
X131454819Y-121976190D01*
X131788152Y-121214285D02*
X132454819Y-121214285D01*
X131883390Y-121214285D02*
X131835771Y-121166666D01*
X131835771Y-121166666D02*
X131788152Y-121071428D01*
X131788152Y-121071428D02*
X131788152Y-120928571D01*
X131788152Y-120928571D02*
X131835771Y-120833333D01*
X131835771Y-120833333D02*
X131931009Y-120785714D01*
X131931009Y-120785714D02*
X132454819Y-120785714D01*
X131931009Y-119976190D02*
X131931009Y-120309523D01*
X132454819Y-120309523D02*
X131454819Y-120309523D01*
X131454819Y-120309523D02*
X131454819Y-119833333D01*
X166833333Y-134359580D02*
X166785714Y-134407200D01*
X166785714Y-134407200D02*
X166642857Y-134454819D01*
X166642857Y-134454819D02*
X166547619Y-134454819D01*
X166547619Y-134454819D02*
X166404762Y-134407200D01*
X166404762Y-134407200D02*
X166309524Y-134311961D01*
X166309524Y-134311961D02*
X166261905Y-134216723D01*
X166261905Y-134216723D02*
X166214286Y-134026247D01*
X166214286Y-134026247D02*
X166214286Y-133883390D01*
X166214286Y-133883390D02*
X166261905Y-133692914D01*
X166261905Y-133692914D02*
X166309524Y-133597676D01*
X166309524Y-133597676D02*
X166404762Y-133502438D01*
X166404762Y-133502438D02*
X166547619Y-133454819D01*
X166547619Y-133454819D02*
X166642857Y-133454819D01*
X166642857Y-133454819D02*
X166785714Y-133502438D01*
X166785714Y-133502438D02*
X166833333Y-133550057D01*
X167690476Y-133454819D02*
X167500000Y-133454819D01*
X167500000Y-133454819D02*
X167404762Y-133502438D01*
X167404762Y-133502438D02*
X167357143Y-133550057D01*
X167357143Y-133550057D02*
X167261905Y-133692914D01*
X167261905Y-133692914D02*
X167214286Y-133883390D01*
X167214286Y-133883390D02*
X167214286Y-134264342D01*
X167214286Y-134264342D02*
X167261905Y-134359580D01*
X167261905Y-134359580D02*
X167309524Y-134407200D01*
X167309524Y-134407200D02*
X167404762Y-134454819D01*
X167404762Y-134454819D02*
X167595238Y-134454819D01*
X167595238Y-134454819D02*
X167690476Y-134407200D01*
X167690476Y-134407200D02*
X167738095Y-134359580D01*
X167738095Y-134359580D02*
X167785714Y-134264342D01*
X167785714Y-134264342D02*
X167785714Y-134026247D01*
X167785714Y-134026247D02*
X167738095Y-133931009D01*
X167738095Y-133931009D02*
X167690476Y-133883390D01*
X167690476Y-133883390D02*
X167595238Y-133835771D01*
X167595238Y-133835771D02*
X167404762Y-133835771D01*
X167404762Y-133835771D02*
X167309524Y-133883390D01*
X167309524Y-133883390D02*
X167261905Y-133931009D01*
X167261905Y-133931009D02*
X167214286Y-134026247D01*
X165204819Y-138547619D02*
X165204819Y-139119047D01*
X165204819Y-138833333D02*
X164204819Y-138833333D01*
X164204819Y-138833333D02*
X164347676Y-138928571D01*
X164347676Y-138928571D02*
X164442914Y-139023809D01*
X164442914Y-139023809D02*
X164490533Y-139119047D01*
X164204819Y-137928571D02*
X164204819Y-137833333D01*
X164204819Y-137833333D02*
X164252438Y-137738095D01*
X164252438Y-137738095D02*
X164300057Y-137690476D01*
X164300057Y-137690476D02*
X164395295Y-137642857D01*
X164395295Y-137642857D02*
X164585771Y-137595238D01*
X164585771Y-137595238D02*
X164823866Y-137595238D01*
X164823866Y-137595238D02*
X165014342Y-137642857D01*
X165014342Y-137642857D02*
X165109580Y-137690476D01*
X165109580Y-137690476D02*
X165157200Y-137738095D01*
X165157200Y-137738095D02*
X165204819Y-137833333D01*
X165204819Y-137833333D02*
X165204819Y-137928571D01*
X165204819Y-137928571D02*
X165157200Y-138023809D01*
X165157200Y-138023809D02*
X165109580Y-138071428D01*
X165109580Y-138071428D02*
X165014342Y-138119047D01*
X165014342Y-138119047D02*
X164823866Y-138166666D01*
X164823866Y-138166666D02*
X164585771Y-138166666D01*
X164585771Y-138166666D02*
X164395295Y-138119047D01*
X164395295Y-138119047D02*
X164300057Y-138071428D01*
X164300057Y-138071428D02*
X164252438Y-138023809D01*
X164252438Y-138023809D02*
X164204819Y-137928571D01*
X164204819Y-136976190D02*
X164204819Y-136880952D01*
X164204819Y-136880952D02*
X164252438Y-136785714D01*
X164252438Y-136785714D02*
X164300057Y-136738095D01*
X164300057Y-136738095D02*
X164395295Y-136690476D01*
X164395295Y-136690476D02*
X164585771Y-136642857D01*
X164585771Y-136642857D02*
X164823866Y-136642857D01*
X164823866Y-136642857D02*
X165014342Y-136690476D01*
X165014342Y-136690476D02*
X165109580Y-136738095D01*
X165109580Y-136738095D02*
X165157200Y-136785714D01*
X165157200Y-136785714D02*
X165204819Y-136880952D01*
X165204819Y-136880952D02*
X165204819Y-136976190D01*
X165204819Y-136976190D02*
X165157200Y-137071428D01*
X165157200Y-137071428D02*
X165109580Y-137119047D01*
X165109580Y-137119047D02*
X165014342Y-137166666D01*
X165014342Y-137166666D02*
X164823866Y-137214285D01*
X164823866Y-137214285D02*
X164585771Y-137214285D01*
X164585771Y-137214285D02*
X164395295Y-137166666D01*
X164395295Y-137166666D02*
X164300057Y-137119047D01*
X164300057Y-137119047D02*
X164252438Y-137071428D01*
X164252438Y-137071428D02*
X164204819Y-136976190D01*
X164538152Y-136214285D02*
X165204819Y-136214285D01*
X164633390Y-136214285D02*
X164585771Y-136166666D01*
X164585771Y-136166666D02*
X164538152Y-136071428D01*
X164538152Y-136071428D02*
X164538152Y-135928571D01*
X164538152Y-135928571D02*
X164585771Y-135833333D01*
X164585771Y-135833333D02*
X164681009Y-135785714D01*
X164681009Y-135785714D02*
X165204819Y-135785714D01*
X164681009Y-134976190D02*
X164681009Y-135309523D01*
X165204819Y-135309523D02*
X164204819Y-135309523D01*
X164204819Y-135309523D02*
X164204819Y-134833333D01*
X177359580Y-51892857D02*
X177407200Y-51940476D01*
X177407200Y-51940476D02*
X177454819Y-52083333D01*
X177454819Y-52083333D02*
X177454819Y-52178571D01*
X177454819Y-52178571D02*
X177407200Y-52321428D01*
X177407200Y-52321428D02*
X177311961Y-52416666D01*
X177311961Y-52416666D02*
X177216723Y-52464285D01*
X177216723Y-52464285D02*
X177026247Y-52511904D01*
X177026247Y-52511904D02*
X176883390Y-52511904D01*
X176883390Y-52511904D02*
X176692914Y-52464285D01*
X176692914Y-52464285D02*
X176597676Y-52416666D01*
X176597676Y-52416666D02*
X176502438Y-52321428D01*
X176502438Y-52321428D02*
X176454819Y-52178571D01*
X176454819Y-52178571D02*
X176454819Y-52083333D01*
X176454819Y-52083333D02*
X176502438Y-51940476D01*
X176502438Y-51940476D02*
X176550057Y-51892857D01*
X177454819Y-50940476D02*
X177454819Y-51511904D01*
X177454819Y-51226190D02*
X176454819Y-51226190D01*
X176454819Y-51226190D02*
X176597676Y-51321428D01*
X176597676Y-51321428D02*
X176692914Y-51416666D01*
X176692914Y-51416666D02*
X176740533Y-51511904D01*
X176454819Y-50321428D02*
X176454819Y-50226190D01*
X176454819Y-50226190D02*
X176502438Y-50130952D01*
X176502438Y-50130952D02*
X176550057Y-50083333D01*
X176550057Y-50083333D02*
X176645295Y-50035714D01*
X176645295Y-50035714D02*
X176835771Y-49988095D01*
X176835771Y-49988095D02*
X177073866Y-49988095D01*
X177073866Y-49988095D02*
X177264342Y-50035714D01*
X177264342Y-50035714D02*
X177359580Y-50083333D01*
X177359580Y-50083333D02*
X177407200Y-50130952D01*
X177407200Y-50130952D02*
X177454819Y-50226190D01*
X177454819Y-50226190D02*
X177454819Y-50321428D01*
X177454819Y-50321428D02*
X177407200Y-50416666D01*
X177407200Y-50416666D02*
X177359580Y-50464285D01*
X177359580Y-50464285D02*
X177264342Y-50511904D01*
X177264342Y-50511904D02*
X177073866Y-50559523D01*
X177073866Y-50559523D02*
X176835771Y-50559523D01*
X176835771Y-50559523D02*
X176645295Y-50511904D01*
X176645295Y-50511904D02*
X176550057Y-50464285D01*
X176550057Y-50464285D02*
X176502438Y-50416666D01*
X176502438Y-50416666D02*
X176454819Y-50321428D01*
X175202380Y-48954819D02*
X174630952Y-48954819D01*
X174916666Y-48954819D02*
X174916666Y-47954819D01*
X174916666Y-47954819D02*
X174821428Y-48097676D01*
X174821428Y-48097676D02*
X174726190Y-48192914D01*
X174726190Y-48192914D02*
X174630952Y-48240533D01*
X175821428Y-47954819D02*
X175916666Y-47954819D01*
X175916666Y-47954819D02*
X176011904Y-48002438D01*
X176011904Y-48002438D02*
X176059523Y-48050057D01*
X176059523Y-48050057D02*
X176107142Y-48145295D01*
X176107142Y-48145295D02*
X176154761Y-48335771D01*
X176154761Y-48335771D02*
X176154761Y-48573866D01*
X176154761Y-48573866D02*
X176107142Y-48764342D01*
X176107142Y-48764342D02*
X176059523Y-48859580D01*
X176059523Y-48859580D02*
X176011904Y-48907200D01*
X176011904Y-48907200D02*
X175916666Y-48954819D01*
X175916666Y-48954819D02*
X175821428Y-48954819D01*
X175821428Y-48954819D02*
X175726190Y-48907200D01*
X175726190Y-48907200D02*
X175678571Y-48859580D01*
X175678571Y-48859580D02*
X175630952Y-48764342D01*
X175630952Y-48764342D02*
X175583333Y-48573866D01*
X175583333Y-48573866D02*
X175583333Y-48335771D01*
X175583333Y-48335771D02*
X175630952Y-48145295D01*
X175630952Y-48145295D02*
X175678571Y-48050057D01*
X175678571Y-48050057D02*
X175726190Y-48002438D01*
X175726190Y-48002438D02*
X175821428Y-47954819D01*
X176773809Y-47954819D02*
X176869047Y-47954819D01*
X176869047Y-47954819D02*
X176964285Y-48002438D01*
X176964285Y-48002438D02*
X177011904Y-48050057D01*
X177011904Y-48050057D02*
X177059523Y-48145295D01*
X177059523Y-48145295D02*
X177107142Y-48335771D01*
X177107142Y-48335771D02*
X177107142Y-48573866D01*
X177107142Y-48573866D02*
X177059523Y-48764342D01*
X177059523Y-48764342D02*
X177011904Y-48859580D01*
X177011904Y-48859580D02*
X176964285Y-48907200D01*
X176964285Y-48907200D02*
X176869047Y-48954819D01*
X176869047Y-48954819D02*
X176773809Y-48954819D01*
X176773809Y-48954819D02*
X176678571Y-48907200D01*
X176678571Y-48907200D02*
X176630952Y-48859580D01*
X176630952Y-48859580D02*
X176583333Y-48764342D01*
X176583333Y-48764342D02*
X176535714Y-48573866D01*
X176535714Y-48573866D02*
X176535714Y-48335771D01*
X176535714Y-48335771D02*
X176583333Y-48145295D01*
X176583333Y-48145295D02*
X176630952Y-48050057D01*
X176630952Y-48050057D02*
X176678571Y-48002438D01*
X176678571Y-48002438D02*
X176773809Y-47954819D01*
X177535714Y-48288152D02*
X177535714Y-48954819D01*
X177535714Y-48383390D02*
X177583333Y-48335771D01*
X177583333Y-48335771D02*
X177678571Y-48288152D01*
X177678571Y-48288152D02*
X177821428Y-48288152D01*
X177821428Y-48288152D02*
X177916666Y-48335771D01*
X177916666Y-48335771D02*
X177964285Y-48431009D01*
X177964285Y-48431009D02*
X177964285Y-48954819D01*
X178773809Y-48431009D02*
X178440476Y-48431009D01*
X178440476Y-48954819D02*
X178440476Y-47954819D01*
X178440476Y-47954819D02*
X178916666Y-47954819D01*
X118444761Y-50490057D02*
X118349523Y-50442438D01*
X118349523Y-50442438D02*
X118254285Y-50347200D01*
X118254285Y-50347200D02*
X118111428Y-50204342D01*
X118111428Y-50204342D02*
X118016190Y-50156723D01*
X118016190Y-50156723D02*
X117920952Y-50156723D01*
X117968571Y-50394819D02*
X117873333Y-50347200D01*
X117873333Y-50347200D02*
X117778095Y-50251961D01*
X117778095Y-50251961D02*
X117730476Y-50061485D01*
X117730476Y-50061485D02*
X117730476Y-49728152D01*
X117730476Y-49728152D02*
X117778095Y-49537676D01*
X117778095Y-49537676D02*
X117873333Y-49442438D01*
X117873333Y-49442438D02*
X117968571Y-49394819D01*
X117968571Y-49394819D02*
X118159047Y-49394819D01*
X118159047Y-49394819D02*
X118254285Y-49442438D01*
X118254285Y-49442438D02*
X118349523Y-49537676D01*
X118349523Y-49537676D02*
X118397142Y-49728152D01*
X118397142Y-49728152D02*
X118397142Y-50061485D01*
X118397142Y-50061485D02*
X118349523Y-50251961D01*
X118349523Y-50251961D02*
X118254285Y-50347200D01*
X118254285Y-50347200D02*
X118159047Y-50394819D01*
X118159047Y-50394819D02*
X117968571Y-50394819D01*
X119349523Y-50394819D02*
X118778095Y-50394819D01*
X119063809Y-50394819D02*
X119063809Y-49394819D01*
X119063809Y-49394819D02*
X118968571Y-49537676D01*
X118968571Y-49537676D02*
X118873333Y-49632914D01*
X118873333Y-49632914D02*
X118778095Y-49680533D01*
X95916666Y-108129819D02*
X95916666Y-108844104D01*
X95916666Y-108844104D02*
X95869047Y-108986961D01*
X95869047Y-108986961D02*
X95773809Y-109082200D01*
X95773809Y-109082200D02*
X95630952Y-109129819D01*
X95630952Y-109129819D02*
X95535714Y-109129819D01*
X96916666Y-109129819D02*
X96345238Y-109129819D01*
X96630952Y-109129819D02*
X96630952Y-108129819D01*
X96630952Y-108129819D02*
X96535714Y-108272676D01*
X96535714Y-108272676D02*
X96440476Y-108367914D01*
X96440476Y-108367914D02*
X96345238Y-108415533D01*
X103859580Y-103142857D02*
X103907200Y-103190476D01*
X103907200Y-103190476D02*
X103954819Y-103333333D01*
X103954819Y-103333333D02*
X103954819Y-103428571D01*
X103954819Y-103428571D02*
X103907200Y-103571428D01*
X103907200Y-103571428D02*
X103811961Y-103666666D01*
X103811961Y-103666666D02*
X103716723Y-103714285D01*
X103716723Y-103714285D02*
X103526247Y-103761904D01*
X103526247Y-103761904D02*
X103383390Y-103761904D01*
X103383390Y-103761904D02*
X103192914Y-103714285D01*
X103192914Y-103714285D02*
X103097676Y-103666666D01*
X103097676Y-103666666D02*
X103002438Y-103571428D01*
X103002438Y-103571428D02*
X102954819Y-103428571D01*
X102954819Y-103428571D02*
X102954819Y-103333333D01*
X102954819Y-103333333D02*
X103002438Y-103190476D01*
X103002438Y-103190476D02*
X103050057Y-103142857D01*
X103954819Y-102190476D02*
X103954819Y-102761904D01*
X103954819Y-102476190D02*
X102954819Y-102476190D01*
X102954819Y-102476190D02*
X103097676Y-102571428D01*
X103097676Y-102571428D02*
X103192914Y-102666666D01*
X103192914Y-102666666D02*
X103240533Y-102761904D01*
X102954819Y-101857142D02*
X102954819Y-101238095D01*
X102954819Y-101238095D02*
X103335771Y-101571428D01*
X103335771Y-101571428D02*
X103335771Y-101428571D01*
X103335771Y-101428571D02*
X103383390Y-101333333D01*
X103383390Y-101333333D02*
X103431009Y-101285714D01*
X103431009Y-101285714D02*
X103526247Y-101238095D01*
X103526247Y-101238095D02*
X103764342Y-101238095D01*
X103764342Y-101238095D02*
X103859580Y-101285714D01*
X103859580Y-101285714D02*
X103907200Y-101333333D01*
X103907200Y-101333333D02*
X103954819Y-101428571D01*
X103954819Y-101428571D02*
X103954819Y-101714285D01*
X103954819Y-101714285D02*
X103907200Y-101809523D01*
X103907200Y-101809523D02*
X103859580Y-101857142D01*
X104809524Y-99704819D02*
X105428571Y-99704819D01*
X105428571Y-99704819D02*
X105095238Y-100085771D01*
X105095238Y-100085771D02*
X105238095Y-100085771D01*
X105238095Y-100085771D02*
X105333333Y-100133390D01*
X105333333Y-100133390D02*
X105380952Y-100181009D01*
X105380952Y-100181009D02*
X105428571Y-100276247D01*
X105428571Y-100276247D02*
X105428571Y-100514342D01*
X105428571Y-100514342D02*
X105380952Y-100609580D01*
X105380952Y-100609580D02*
X105333333Y-100657200D01*
X105333333Y-100657200D02*
X105238095Y-100704819D01*
X105238095Y-100704819D02*
X104952381Y-100704819D01*
X104952381Y-100704819D02*
X104857143Y-100657200D01*
X104857143Y-100657200D02*
X104809524Y-100609580D01*
X106047619Y-99704819D02*
X106142857Y-99704819D01*
X106142857Y-99704819D02*
X106238095Y-99752438D01*
X106238095Y-99752438D02*
X106285714Y-99800057D01*
X106285714Y-99800057D02*
X106333333Y-99895295D01*
X106333333Y-99895295D02*
X106380952Y-100085771D01*
X106380952Y-100085771D02*
X106380952Y-100323866D01*
X106380952Y-100323866D02*
X106333333Y-100514342D01*
X106333333Y-100514342D02*
X106285714Y-100609580D01*
X106285714Y-100609580D02*
X106238095Y-100657200D01*
X106238095Y-100657200D02*
X106142857Y-100704819D01*
X106142857Y-100704819D02*
X106047619Y-100704819D01*
X106047619Y-100704819D02*
X105952381Y-100657200D01*
X105952381Y-100657200D02*
X105904762Y-100609580D01*
X105904762Y-100609580D02*
X105857143Y-100514342D01*
X105857143Y-100514342D02*
X105809524Y-100323866D01*
X105809524Y-100323866D02*
X105809524Y-100085771D01*
X105809524Y-100085771D02*
X105857143Y-99895295D01*
X105857143Y-99895295D02*
X105904762Y-99800057D01*
X105904762Y-99800057D02*
X105952381Y-99752438D01*
X105952381Y-99752438D02*
X106047619Y-99704819D01*
X106809524Y-100038152D02*
X106809524Y-101038152D01*
X106809524Y-100085771D02*
X106904762Y-100038152D01*
X106904762Y-100038152D02*
X107095238Y-100038152D01*
X107095238Y-100038152D02*
X107190476Y-100085771D01*
X107190476Y-100085771D02*
X107238095Y-100133390D01*
X107238095Y-100133390D02*
X107285714Y-100228628D01*
X107285714Y-100228628D02*
X107285714Y-100514342D01*
X107285714Y-100514342D02*
X107238095Y-100609580D01*
X107238095Y-100609580D02*
X107190476Y-100657200D01*
X107190476Y-100657200D02*
X107095238Y-100704819D01*
X107095238Y-100704819D02*
X106904762Y-100704819D01*
X106904762Y-100704819D02*
X106809524Y-100657200D01*
X108047619Y-100181009D02*
X107714286Y-100181009D01*
X107714286Y-100704819D02*
X107714286Y-99704819D01*
X107714286Y-99704819D02*
X108190476Y-99704819D01*
X112583333Y-129109580D02*
X112535714Y-129157200D01*
X112535714Y-129157200D02*
X112392857Y-129204819D01*
X112392857Y-129204819D02*
X112297619Y-129204819D01*
X112297619Y-129204819D02*
X112154762Y-129157200D01*
X112154762Y-129157200D02*
X112059524Y-129061961D01*
X112059524Y-129061961D02*
X112011905Y-128966723D01*
X112011905Y-128966723D02*
X111964286Y-128776247D01*
X111964286Y-128776247D02*
X111964286Y-128633390D01*
X111964286Y-128633390D02*
X112011905Y-128442914D01*
X112011905Y-128442914D02*
X112059524Y-128347676D01*
X112059524Y-128347676D02*
X112154762Y-128252438D01*
X112154762Y-128252438D02*
X112297619Y-128204819D01*
X112297619Y-128204819D02*
X112392857Y-128204819D01*
X112392857Y-128204819D02*
X112535714Y-128252438D01*
X112535714Y-128252438D02*
X112583333Y-128300057D01*
X113535714Y-129204819D02*
X112964286Y-129204819D01*
X113250000Y-129204819D02*
X113250000Y-128204819D01*
X113250000Y-128204819D02*
X113154762Y-128347676D01*
X113154762Y-128347676D02*
X113059524Y-128442914D01*
X113059524Y-128442914D02*
X112964286Y-128490533D01*
X114928571Y-135954819D02*
X114357143Y-135954819D01*
X114642857Y-135954819D02*
X114642857Y-134954819D01*
X114642857Y-134954819D02*
X114547619Y-135097676D01*
X114547619Y-135097676D02*
X114452381Y-135192914D01*
X114452381Y-135192914D02*
X114357143Y-135240533D01*
X115547619Y-134954819D02*
X115642857Y-134954819D01*
X115642857Y-134954819D02*
X115738095Y-135002438D01*
X115738095Y-135002438D02*
X115785714Y-135050057D01*
X115785714Y-135050057D02*
X115833333Y-135145295D01*
X115833333Y-135145295D02*
X115880952Y-135335771D01*
X115880952Y-135335771D02*
X115880952Y-135573866D01*
X115880952Y-135573866D02*
X115833333Y-135764342D01*
X115833333Y-135764342D02*
X115785714Y-135859580D01*
X115785714Y-135859580D02*
X115738095Y-135907200D01*
X115738095Y-135907200D02*
X115642857Y-135954819D01*
X115642857Y-135954819D02*
X115547619Y-135954819D01*
X115547619Y-135954819D02*
X115452381Y-135907200D01*
X115452381Y-135907200D02*
X115404762Y-135859580D01*
X115404762Y-135859580D02*
X115357143Y-135764342D01*
X115357143Y-135764342D02*
X115309524Y-135573866D01*
X115309524Y-135573866D02*
X115309524Y-135335771D01*
X115309524Y-135335771D02*
X115357143Y-135145295D01*
X115357143Y-135145295D02*
X115404762Y-135050057D01*
X115404762Y-135050057D02*
X115452381Y-135002438D01*
X115452381Y-135002438D02*
X115547619Y-134954819D01*
X116738095Y-135288152D02*
X116738095Y-135954819D01*
X116309524Y-135288152D02*
X116309524Y-135811961D01*
X116309524Y-135811961D02*
X116357143Y-135907200D01*
X116357143Y-135907200D02*
X116452381Y-135954819D01*
X116452381Y-135954819D02*
X116595238Y-135954819D01*
X116595238Y-135954819D02*
X116690476Y-135907200D01*
X116690476Y-135907200D02*
X116738095Y-135859580D01*
X117547619Y-135431009D02*
X117214286Y-135431009D01*
X117214286Y-135954819D02*
X117214286Y-134954819D01*
X117214286Y-134954819D02*
X117690476Y-134954819D01*
X108574819Y-68416666D02*
X108098628Y-68749999D01*
X108574819Y-68988094D02*
X107574819Y-68988094D01*
X107574819Y-68988094D02*
X107574819Y-68607142D01*
X107574819Y-68607142D02*
X107622438Y-68511904D01*
X107622438Y-68511904D02*
X107670057Y-68464285D01*
X107670057Y-68464285D02*
X107765295Y-68416666D01*
X107765295Y-68416666D02*
X107908152Y-68416666D01*
X107908152Y-68416666D02*
X108003390Y-68464285D01*
X108003390Y-68464285D02*
X108051009Y-68511904D01*
X108051009Y-68511904D02*
X108098628Y-68607142D01*
X108098628Y-68607142D02*
X108098628Y-68988094D01*
X107670057Y-68035713D02*
X107622438Y-67988094D01*
X107622438Y-67988094D02*
X107574819Y-67892856D01*
X107574819Y-67892856D02*
X107574819Y-67654761D01*
X107574819Y-67654761D02*
X107622438Y-67559523D01*
X107622438Y-67559523D02*
X107670057Y-67511904D01*
X107670057Y-67511904D02*
X107765295Y-67464285D01*
X107765295Y-67464285D02*
X107860533Y-67464285D01*
X107860533Y-67464285D02*
X108003390Y-67511904D01*
X108003390Y-67511904D02*
X108574819Y-68083332D01*
X108574819Y-68083332D02*
X108574819Y-67464285D01*
X106204819Y-68940476D02*
X106204819Y-69511904D01*
X106204819Y-69226190D02*
X105204819Y-69226190D01*
X105204819Y-69226190D02*
X105347676Y-69321428D01*
X105347676Y-69321428D02*
X105442914Y-69416666D01*
X105442914Y-69416666D02*
X105490533Y-69511904D01*
X105204819Y-68321428D02*
X105204819Y-68226190D01*
X105204819Y-68226190D02*
X105252438Y-68130952D01*
X105252438Y-68130952D02*
X105300057Y-68083333D01*
X105300057Y-68083333D02*
X105395295Y-68035714D01*
X105395295Y-68035714D02*
X105585771Y-67988095D01*
X105585771Y-67988095D02*
X105823866Y-67988095D01*
X105823866Y-67988095D02*
X106014342Y-68035714D01*
X106014342Y-68035714D02*
X106109580Y-68083333D01*
X106109580Y-68083333D02*
X106157200Y-68130952D01*
X106157200Y-68130952D02*
X106204819Y-68226190D01*
X106204819Y-68226190D02*
X106204819Y-68321428D01*
X106204819Y-68321428D02*
X106157200Y-68416666D01*
X106157200Y-68416666D02*
X106109580Y-68464285D01*
X106109580Y-68464285D02*
X106014342Y-68511904D01*
X106014342Y-68511904D02*
X105823866Y-68559523D01*
X105823866Y-68559523D02*
X105585771Y-68559523D01*
X105585771Y-68559523D02*
X105395295Y-68511904D01*
X105395295Y-68511904D02*
X105300057Y-68464285D01*
X105300057Y-68464285D02*
X105252438Y-68416666D01*
X105252438Y-68416666D02*
X105204819Y-68321428D01*
X106204819Y-67559523D02*
X105204819Y-67559523D01*
X106204819Y-66988095D02*
X105633390Y-67416666D01*
X105204819Y-66988095D02*
X105776247Y-67559523D01*
X102958628Y-110686190D02*
X103434819Y-110686190D01*
X102434819Y-111019523D02*
X102958628Y-110686190D01*
X102958628Y-110686190D02*
X102434819Y-110352857D01*
X103434819Y-109495714D02*
X103434819Y-110067142D01*
X103434819Y-109781428D02*
X102434819Y-109781428D01*
X102434819Y-109781428D02*
X102577676Y-109876666D01*
X102577676Y-109876666D02*
X102672914Y-109971904D01*
X102672914Y-109971904D02*
X102720533Y-110067142D01*
X171583333Y-61109580D02*
X171535714Y-61157200D01*
X171535714Y-61157200D02*
X171392857Y-61204819D01*
X171392857Y-61204819D02*
X171297619Y-61204819D01*
X171297619Y-61204819D02*
X171154762Y-61157200D01*
X171154762Y-61157200D02*
X171059524Y-61061961D01*
X171059524Y-61061961D02*
X171011905Y-60966723D01*
X171011905Y-60966723D02*
X170964286Y-60776247D01*
X170964286Y-60776247D02*
X170964286Y-60633390D01*
X170964286Y-60633390D02*
X171011905Y-60442914D01*
X171011905Y-60442914D02*
X171059524Y-60347676D01*
X171059524Y-60347676D02*
X171154762Y-60252438D01*
X171154762Y-60252438D02*
X171297619Y-60204819D01*
X171297619Y-60204819D02*
X171392857Y-60204819D01*
X171392857Y-60204819D02*
X171535714Y-60252438D01*
X171535714Y-60252438D02*
X171583333Y-60300057D01*
X172488095Y-60204819D02*
X172011905Y-60204819D01*
X172011905Y-60204819D02*
X171964286Y-60681009D01*
X171964286Y-60681009D02*
X172011905Y-60633390D01*
X172011905Y-60633390D02*
X172107143Y-60585771D01*
X172107143Y-60585771D02*
X172345238Y-60585771D01*
X172345238Y-60585771D02*
X172440476Y-60633390D01*
X172440476Y-60633390D02*
X172488095Y-60681009D01*
X172488095Y-60681009D02*
X172535714Y-60776247D01*
X172535714Y-60776247D02*
X172535714Y-61014342D01*
X172535714Y-61014342D02*
X172488095Y-61109580D01*
X172488095Y-61109580D02*
X172440476Y-61157200D01*
X172440476Y-61157200D02*
X172345238Y-61204819D01*
X172345238Y-61204819D02*
X172107143Y-61204819D01*
X172107143Y-61204819D02*
X172011905Y-61157200D01*
X172011905Y-61157200D02*
X171964286Y-61109580D01*
X174952380Y-63454819D02*
X174380952Y-63454819D01*
X174666666Y-63454819D02*
X174666666Y-62454819D01*
X174666666Y-62454819D02*
X174571428Y-62597676D01*
X174571428Y-62597676D02*
X174476190Y-62692914D01*
X174476190Y-62692914D02*
X174380952Y-62740533D01*
X175571428Y-62454819D02*
X175666666Y-62454819D01*
X175666666Y-62454819D02*
X175761904Y-62502438D01*
X175761904Y-62502438D02*
X175809523Y-62550057D01*
X175809523Y-62550057D02*
X175857142Y-62645295D01*
X175857142Y-62645295D02*
X175904761Y-62835771D01*
X175904761Y-62835771D02*
X175904761Y-63073866D01*
X175904761Y-63073866D02*
X175857142Y-63264342D01*
X175857142Y-63264342D02*
X175809523Y-63359580D01*
X175809523Y-63359580D02*
X175761904Y-63407200D01*
X175761904Y-63407200D02*
X175666666Y-63454819D01*
X175666666Y-63454819D02*
X175571428Y-63454819D01*
X175571428Y-63454819D02*
X175476190Y-63407200D01*
X175476190Y-63407200D02*
X175428571Y-63359580D01*
X175428571Y-63359580D02*
X175380952Y-63264342D01*
X175380952Y-63264342D02*
X175333333Y-63073866D01*
X175333333Y-63073866D02*
X175333333Y-62835771D01*
X175333333Y-62835771D02*
X175380952Y-62645295D01*
X175380952Y-62645295D02*
X175428571Y-62550057D01*
X175428571Y-62550057D02*
X175476190Y-62502438D01*
X175476190Y-62502438D02*
X175571428Y-62454819D01*
X176523809Y-62454819D02*
X176619047Y-62454819D01*
X176619047Y-62454819D02*
X176714285Y-62502438D01*
X176714285Y-62502438D02*
X176761904Y-62550057D01*
X176761904Y-62550057D02*
X176809523Y-62645295D01*
X176809523Y-62645295D02*
X176857142Y-62835771D01*
X176857142Y-62835771D02*
X176857142Y-63073866D01*
X176857142Y-63073866D02*
X176809523Y-63264342D01*
X176809523Y-63264342D02*
X176761904Y-63359580D01*
X176761904Y-63359580D02*
X176714285Y-63407200D01*
X176714285Y-63407200D02*
X176619047Y-63454819D01*
X176619047Y-63454819D02*
X176523809Y-63454819D01*
X176523809Y-63454819D02*
X176428571Y-63407200D01*
X176428571Y-63407200D02*
X176380952Y-63359580D01*
X176380952Y-63359580D02*
X176333333Y-63264342D01*
X176333333Y-63264342D02*
X176285714Y-63073866D01*
X176285714Y-63073866D02*
X176285714Y-62835771D01*
X176285714Y-62835771D02*
X176333333Y-62645295D01*
X176333333Y-62645295D02*
X176380952Y-62550057D01*
X176380952Y-62550057D02*
X176428571Y-62502438D01*
X176428571Y-62502438D02*
X176523809Y-62454819D01*
X177285714Y-62788152D02*
X177285714Y-63454819D01*
X177285714Y-62883390D02*
X177333333Y-62835771D01*
X177333333Y-62835771D02*
X177428571Y-62788152D01*
X177428571Y-62788152D02*
X177571428Y-62788152D01*
X177571428Y-62788152D02*
X177666666Y-62835771D01*
X177666666Y-62835771D02*
X177714285Y-62931009D01*
X177714285Y-62931009D02*
X177714285Y-63454819D01*
X178523809Y-62931009D02*
X178190476Y-62931009D01*
X178190476Y-63454819D02*
X178190476Y-62454819D01*
X178190476Y-62454819D02*
X178666666Y-62454819D01*
X174833333Y-55084819D02*
X174500000Y-54608628D01*
X174261905Y-55084819D02*
X174261905Y-54084819D01*
X174261905Y-54084819D02*
X174642857Y-54084819D01*
X174642857Y-54084819D02*
X174738095Y-54132438D01*
X174738095Y-54132438D02*
X174785714Y-54180057D01*
X174785714Y-54180057D02*
X174833333Y-54275295D01*
X174833333Y-54275295D02*
X174833333Y-54418152D01*
X174833333Y-54418152D02*
X174785714Y-54513390D01*
X174785714Y-54513390D02*
X174738095Y-54561009D01*
X174738095Y-54561009D02*
X174642857Y-54608628D01*
X174642857Y-54608628D02*
X174261905Y-54608628D01*
X175166667Y-54084819D02*
X175833333Y-54084819D01*
X175833333Y-54084819D02*
X175404762Y-55084819D01*
X174309523Y-57454819D02*
X173738095Y-57454819D01*
X174023809Y-57454819D02*
X174023809Y-56454819D01*
X174023809Y-56454819D02*
X173928571Y-56597676D01*
X173928571Y-56597676D02*
X173833333Y-56692914D01*
X173833333Y-56692914D02*
X173738095Y-56740533D01*
X174928571Y-56454819D02*
X175023809Y-56454819D01*
X175023809Y-56454819D02*
X175119047Y-56502438D01*
X175119047Y-56502438D02*
X175166666Y-56550057D01*
X175166666Y-56550057D02*
X175214285Y-56645295D01*
X175214285Y-56645295D02*
X175261904Y-56835771D01*
X175261904Y-56835771D02*
X175261904Y-57073866D01*
X175261904Y-57073866D02*
X175214285Y-57264342D01*
X175214285Y-57264342D02*
X175166666Y-57359580D01*
X175166666Y-57359580D02*
X175119047Y-57407200D01*
X175119047Y-57407200D02*
X175023809Y-57454819D01*
X175023809Y-57454819D02*
X174928571Y-57454819D01*
X174928571Y-57454819D02*
X174833333Y-57407200D01*
X174833333Y-57407200D02*
X174785714Y-57359580D01*
X174785714Y-57359580D02*
X174738095Y-57264342D01*
X174738095Y-57264342D02*
X174690476Y-57073866D01*
X174690476Y-57073866D02*
X174690476Y-56835771D01*
X174690476Y-56835771D02*
X174738095Y-56645295D01*
X174738095Y-56645295D02*
X174785714Y-56550057D01*
X174785714Y-56550057D02*
X174833333Y-56502438D01*
X174833333Y-56502438D02*
X174928571Y-56454819D01*
X175690476Y-57454819D02*
X175690476Y-56454819D01*
X176261904Y-57454819D02*
X175833333Y-56883390D01*
X176261904Y-56454819D02*
X175690476Y-57026247D01*
%TO.C,BZ1*%
D14*
X113910000Y-56000000D02*
G75*
G02*
X101710000Y-56000000I-6100000J0D01*
G01*
X101710000Y-56000000D02*
G75*
G02*
X113910000Y-56000000I6100000J0D01*
G01*
%TO.C,U1*%
X114570000Y-64240000D02*
X114570000Y-115160000D01*
X114570000Y-115160000D02*
X126690000Y-115160000D01*
X119630000Y-64240000D02*
X114570000Y-64240000D01*
X126690000Y-64240000D02*
X121630000Y-64240000D01*
X126690000Y-115160000D02*
X126690000Y-64240000D01*
X111570000Y-64180000D02*
X129690000Y-64180000D01*
X129690000Y-115220000D01*
X111570000Y-115220000D01*
X111570000Y-64180000D01*
X121630000Y-64240000D02*
G75*
G02*
X119630000Y-64240000I-1000000J0D01*
G01*
%TO.C,J2*%
X179780000Y-53600000D02*
X179780000Y-54600000D01*
X179780000Y-54600000D02*
X180780000Y-54100000D01*
X180780000Y-54100000D02*
X179780000Y-53600000D01*
X181170000Y-48890000D02*
X190290000Y-48890000D01*
X181170000Y-76180000D02*
X182480000Y-76180000D01*
X181170000Y-107570000D02*
X181170000Y-48890000D01*
X182480000Y-50190000D02*
X188980000Y-50190000D01*
X182480000Y-76180000D02*
X182480000Y-50190000D01*
X182480000Y-80280000D02*
X181170000Y-80280000D01*
X182480000Y-106270000D02*
X182480000Y-80280000D01*
X188980000Y-50190000D02*
X188980000Y-106270000D01*
X188980000Y-106270000D02*
X182480000Y-106270000D01*
X190290000Y-48890000D02*
X190290000Y-107570000D01*
X190290000Y-107570000D02*
X181170000Y-107570000D01*
%TO.C,SW1*%
X95880000Y-70850000D02*
X95880000Y-68650000D01*
X96500000Y-66630000D02*
X101500000Y-66630000D01*
X96500000Y-72870000D02*
X101500000Y-72870000D01*
X102120000Y-68650000D02*
X102120000Y-70850000D01*
X100750000Y-69750000D02*
G75*
G02*
X97250000Y-69750000I-1750000J0D01*
G01*
X97250000Y-69750000D02*
G75*
G02*
X100750000Y-69750000I1750000J0D01*
G01*
%TO.C,SW2*%
X95880000Y-78600000D02*
X95880000Y-76400000D01*
X96500000Y-74380000D02*
X101500000Y-74380000D01*
X96500000Y-80620000D02*
X101500000Y-80620000D01*
X102120000Y-76400000D02*
X102120000Y-78600000D01*
X100750000Y-77500000D02*
G75*
G02*
X97250000Y-77500000I-1750000J0D01*
G01*
X97250000Y-77500000D02*
G75*
G02*
X100750000Y-77500000I1750000J0D01*
G01*
%TO.C,C3*%
X131880000Y-86880000D02*
X132028000Y-86880000D01*
X131880000Y-90120000D02*
X131880000Y-86880000D01*
X132028000Y-90120000D02*
X131880000Y-90120000D01*
X133972000Y-86880000D02*
X134120000Y-86880000D01*
X134120000Y-86880000D02*
X134120000Y-90120000D01*
X134120000Y-90120000D02*
X133972000Y-90120000D01*
%TO.C,U4*%
X136440000Y-123720000D02*
X136440000Y-141620000D01*
X136440000Y-141620000D02*
X140940000Y-141620000D01*
X137690000Y-123720000D02*
X136440000Y-123720000D01*
X140940000Y-123720000D02*
X139690000Y-123720000D01*
X140940000Y-141620000D02*
X140940000Y-123720000D01*
X133440000Y-123660000D02*
X143940000Y-123660000D01*
X143940000Y-141680000D01*
X133440000Y-141680000D01*
X133440000Y-123660000D01*
X139690000Y-123720000D02*
G75*
G02*
X137690000Y-123720000I-1000000J0D01*
G01*
%TO.C,C9*%
X181945225Y-110775000D02*
X182445225Y-110775000D01*
X182195225Y-110525000D02*
X182195225Y-111025000D01*
X184750000Y-109670000D02*
X184750000Y-111210000D01*
X184750000Y-113290000D02*
X184750000Y-114830000D01*
X184790000Y-109670000D02*
X184790000Y-111210000D01*
X184790000Y-113290000D02*
X184790000Y-114830000D01*
X184830000Y-109671000D02*
X184830000Y-111210000D01*
X184830000Y-113290000D02*
X184830000Y-114829000D01*
X184870000Y-109673000D02*
X184870000Y-111210000D01*
X184870000Y-113290000D02*
X184870000Y-114827000D01*
X184910000Y-109675000D02*
X184910000Y-111210000D01*
X184910000Y-113290000D02*
X184910000Y-114825000D01*
X184950000Y-109678000D02*
X184950000Y-111210000D01*
X184950000Y-113290000D02*
X184950000Y-114822000D01*
X184990000Y-109681000D02*
X184990000Y-111210000D01*
X184990000Y-113290000D02*
X184990000Y-114819000D01*
X185030000Y-109685000D02*
X185030000Y-111210000D01*
X185030000Y-113290000D02*
X185030000Y-114815000D01*
X185070000Y-109690000D02*
X185070000Y-111210000D01*
X185070000Y-113290000D02*
X185070000Y-114810000D01*
X185110000Y-109695000D02*
X185110000Y-111210000D01*
X185110000Y-113290000D02*
X185110000Y-114805000D01*
X185150000Y-109701000D02*
X185150000Y-111210000D01*
X185150000Y-113290000D02*
X185150000Y-114799000D01*
X185190000Y-109707000D02*
X185190000Y-111210000D01*
X185190000Y-113290000D02*
X185190000Y-114793000D01*
X185230000Y-109714000D02*
X185230000Y-111210000D01*
X185230000Y-113290000D02*
X185230000Y-114786000D01*
X185270000Y-109722000D02*
X185270000Y-111210000D01*
X185270000Y-113290000D02*
X185270000Y-114778000D01*
X185310000Y-109731000D02*
X185310000Y-111210000D01*
X185310000Y-113290000D02*
X185310000Y-114769000D01*
X185350000Y-109740000D02*
X185350000Y-111210000D01*
X185350000Y-113290000D02*
X185350000Y-114760000D01*
X185390000Y-109749000D02*
X185390000Y-111210000D01*
X185390000Y-113290000D02*
X185390000Y-114751000D01*
X185430000Y-109760000D02*
X185430000Y-111210000D01*
X185430000Y-113290000D02*
X185430000Y-114740000D01*
X185470000Y-109771000D02*
X185470000Y-111210000D01*
X185470000Y-113290000D02*
X185470000Y-114729000D01*
X185510000Y-109783000D02*
X185510000Y-111210000D01*
X185510000Y-113290000D02*
X185510000Y-114717000D01*
X185550000Y-109795000D02*
X185550000Y-111210000D01*
X185550000Y-113290000D02*
X185550000Y-114705000D01*
X185590000Y-109808000D02*
X185590000Y-111210000D01*
X185590000Y-113290000D02*
X185590000Y-114692000D01*
X185630000Y-109822000D02*
X185630000Y-111210000D01*
X185630000Y-113290000D02*
X185630000Y-114678000D01*
X185670000Y-109837000D02*
X185670000Y-111210000D01*
X185670000Y-113290000D02*
X185670000Y-114663000D01*
X185710000Y-109852000D02*
X185710000Y-111210000D01*
X185710000Y-113290000D02*
X185710000Y-114648000D01*
X185750000Y-109868000D02*
X185750000Y-111210000D01*
X185750000Y-113290000D02*
X185750000Y-114632000D01*
X185790000Y-109885000D02*
X185790000Y-111210000D01*
X185790000Y-113290000D02*
X185790000Y-114615000D01*
X185830000Y-109903000D02*
X185830000Y-111210000D01*
X185830000Y-113290000D02*
X185830000Y-114597000D01*
X185870000Y-109921000D02*
X185870000Y-111210000D01*
X185870000Y-113290000D02*
X185870000Y-114579000D01*
X185910000Y-109941000D02*
X185910000Y-111210000D01*
X185910000Y-113290000D02*
X185910000Y-114559000D01*
X185950000Y-109961000D02*
X185950000Y-111210000D01*
X185950000Y-113290000D02*
X185950000Y-114539000D01*
X185990000Y-109982000D02*
X185990000Y-111210000D01*
X185990000Y-113290000D02*
X185990000Y-114518000D01*
X186030000Y-110004000D02*
X186030000Y-111210000D01*
X186030000Y-113290000D02*
X186030000Y-114496000D01*
X186070000Y-110027000D02*
X186070000Y-111210000D01*
X186070000Y-113290000D02*
X186070000Y-114473000D01*
X186110000Y-110051000D02*
X186110000Y-111210000D01*
X186110000Y-113290000D02*
X186110000Y-114449000D01*
X186150000Y-110075000D02*
X186150000Y-111210000D01*
X186150000Y-113290000D02*
X186150000Y-114425000D01*
X186190000Y-110101000D02*
X186190000Y-111210000D01*
X186190000Y-113290000D02*
X186190000Y-114399000D01*
X186230000Y-110128000D02*
X186230000Y-111210000D01*
X186230000Y-113290000D02*
X186230000Y-114372000D01*
X186270000Y-110156000D02*
X186270000Y-111210000D01*
X186270000Y-113290000D02*
X186270000Y-114344000D01*
X186310000Y-110185000D02*
X186310000Y-111210000D01*
X186310000Y-113290000D02*
X186310000Y-114315000D01*
X186350000Y-110215000D02*
X186350000Y-111210000D01*
X186350000Y-113290000D02*
X186350000Y-114285000D01*
X186390000Y-110247000D02*
X186390000Y-111210000D01*
X186390000Y-113290000D02*
X186390000Y-114253000D01*
X186430000Y-110280000D02*
X186430000Y-111210000D01*
X186430000Y-113290000D02*
X186430000Y-114220000D01*
X186470000Y-110314000D02*
X186470000Y-111210000D01*
X186470000Y-113290000D02*
X186470000Y-114186000D01*
X186510000Y-110349000D02*
X186510000Y-111210000D01*
X186510000Y-113290000D02*
X186510000Y-114151000D01*
X186550000Y-110386000D02*
X186550000Y-111210000D01*
X186550000Y-113290000D02*
X186550000Y-114114000D01*
X186590000Y-110425000D02*
X186590000Y-111210000D01*
X186590000Y-113290000D02*
X186590000Y-114075000D01*
X186630000Y-110465000D02*
X186630000Y-111210000D01*
X186630000Y-113290000D02*
X186630000Y-114035000D01*
X186670000Y-110507000D02*
X186670000Y-111210000D01*
X186670000Y-113290000D02*
X186670000Y-113993000D01*
X186710000Y-110551000D02*
X186710000Y-111210000D01*
X186710000Y-113290000D02*
X186710000Y-113949000D01*
X186750000Y-110598000D02*
X186750000Y-111210000D01*
X186750000Y-113290000D02*
X186750000Y-113902000D01*
X186790000Y-110646000D02*
X186790000Y-113854000D01*
X186830000Y-110697000D02*
X186830000Y-113803000D01*
X186870000Y-110751000D02*
X186870000Y-113749000D01*
X186910000Y-110807000D02*
X186910000Y-113693000D01*
X186950000Y-110867000D02*
X186950000Y-113633000D01*
X186990000Y-110931000D02*
X186990000Y-113569000D01*
X187030000Y-110999000D02*
X187030000Y-113501000D01*
X187070000Y-111073000D02*
X187070000Y-113427000D01*
X187110000Y-111152000D02*
X187110000Y-113348000D01*
X187150000Y-111239000D02*
X187150000Y-113261000D01*
X187190000Y-111336000D02*
X187190000Y-113164000D01*
X187230000Y-111445000D02*
X187230000Y-113055000D01*
X187270000Y-111573000D02*
X187270000Y-112927000D01*
X187310000Y-111733000D02*
X187310000Y-112767000D01*
X187350000Y-111967000D02*
X187350000Y-112533000D01*
X187370000Y-112250000D02*
G75*
G02*
X182130000Y-112250000I-2620000J0D01*
G01*
X182130000Y-112250000D02*
G75*
G02*
X187370000Y-112250000I2620000J0D01*
G01*
%TO.C,C12*%
X104880000Y-116380000D02*
X108120000Y-116380000D01*
X104880000Y-116528000D02*
X104880000Y-116380000D01*
X104880000Y-118620000D02*
X104880000Y-118472000D01*
X108120000Y-116380000D02*
X108120000Y-116528000D01*
X108120000Y-118472000D02*
X108120000Y-118620000D01*
X108120000Y-118620000D02*
X104880000Y-118620000D01*
%TO.C,C8*%
X161880000Y-124630000D02*
X162028000Y-124630000D01*
X161880000Y-127870000D02*
X161880000Y-124630000D01*
X162028000Y-127870000D02*
X161880000Y-127870000D01*
X163972000Y-124630000D02*
X164120000Y-124630000D01*
X164120000Y-124630000D02*
X164120000Y-127870000D01*
X164120000Y-127870000D02*
X163972000Y-127870000D01*
%TO.C,J4*%
X92590000Y-127140000D02*
X92590000Y-139360000D01*
X92590000Y-127140000D02*
X100560000Y-127140000D01*
X92590000Y-139360000D02*
X100560000Y-139360000D01*
X109210000Y-127140000D02*
X105460000Y-127140000D01*
X109210000Y-127140000D02*
X109210000Y-139360000D01*
X109210000Y-139360000D02*
X105460000Y-139360000D01*
X109410000Y-134500000D02*
X109910000Y-135000000D01*
X109910000Y-134000000D02*
X109410000Y-134500000D01*
X109910000Y-135000000D02*
X109910000Y-134000000D01*
%TO.C,SW3*%
X95880000Y-86350000D02*
X95880000Y-84150000D01*
X96500000Y-82130000D02*
X101500000Y-82130000D01*
X96500000Y-88370000D02*
X101500000Y-88370000D01*
X102120000Y-84150000D02*
X102120000Y-86350000D01*
X100750000Y-85250000D02*
G75*
G02*
X97250000Y-85250000I-1750000J0D01*
G01*
X97250000Y-85250000D02*
G75*
G02*
X100750000Y-85250000I1750000J0D01*
G01*
%TO.C,R4*%
X107130000Y-91230000D02*
X107460000Y-91230000D01*
X107130000Y-97770000D02*
X107130000Y-91230000D01*
X107460000Y-97770000D02*
X107130000Y-97770000D01*
X109540000Y-97770000D02*
X109870000Y-97770000D01*
X109870000Y-91230000D02*
X109540000Y-91230000D01*
X109870000Y-97770000D02*
X109870000Y-91230000D01*
%TO.C,R3*%
X103080000Y-91230000D02*
X103410000Y-91230000D01*
X103080000Y-97770000D02*
X103080000Y-91230000D01*
X103410000Y-97770000D02*
X103080000Y-97770000D01*
X105490000Y-97770000D02*
X105820000Y-97770000D01*
X105820000Y-91230000D02*
X105490000Y-91230000D01*
X105820000Y-97770000D02*
X105820000Y-91230000D01*
%TO.C,U3*%
X157560000Y-64510000D02*
X157560000Y-100190000D01*
X157560000Y-100190000D02*
X169680000Y-100190000D01*
X162620000Y-64510000D02*
X157560000Y-64510000D01*
X169680000Y-64510000D02*
X164620000Y-64510000D01*
X169680000Y-100190000D02*
X169680000Y-64510000D01*
X154560000Y-64450000D02*
X172680000Y-64450000D01*
X172680000Y-100250000D01*
X154560000Y-100250000D01*
X154560000Y-64450000D01*
X164620000Y-64510000D02*
G75*
G02*
X162620000Y-64510000I-1000000J0D01*
G01*
%TO.C,U2*%
X140560000Y-64140000D02*
X140560000Y-89660000D01*
X140560000Y-89660000D02*
X145060000Y-89660000D01*
X141810000Y-64140000D02*
X140560000Y-64140000D01*
X145060000Y-64140000D02*
X143810000Y-64140000D01*
X145060000Y-89660000D02*
X145060000Y-64140000D01*
X137560000Y-64080000D02*
X148060000Y-64080000D01*
X148060000Y-89720000D01*
X137560000Y-89720000D01*
X137560000Y-64080000D01*
X143810000Y-64140000D02*
G75*
G02*
X141810000Y-64140000I-1000000J0D01*
G01*
%TO.C,C11*%
X144380000Y-129880000D02*
X144528000Y-129880000D01*
X144380000Y-133120000D02*
X144380000Y-129880000D01*
X144528000Y-133120000D02*
X144380000Y-133120000D01*
X146472000Y-129880000D02*
X146620000Y-129880000D01*
X146620000Y-129880000D02*
X146620000Y-133120000D01*
X146620000Y-133120000D02*
X146472000Y-133120000D01*
%TO.C,C4*%
X137630000Y-61380000D02*
X140870000Y-61380000D01*
X137630000Y-61528000D02*
X137630000Y-61380000D01*
X137630000Y-63620000D02*
X137630000Y-63472000D01*
X140870000Y-61380000D02*
X140870000Y-61528000D01*
X140870000Y-63472000D02*
X140870000Y-63620000D01*
X140870000Y-63620000D02*
X137630000Y-63620000D01*
%TO.C,U6*%
X171440000Y-120430000D02*
X171440000Y-140870000D01*
X171440000Y-140870000D02*
X175940000Y-140870000D01*
X172690000Y-120430000D02*
X171440000Y-120430000D01*
X175940000Y-120430000D02*
X174690000Y-120430000D01*
X175940000Y-140870000D02*
X175940000Y-120430000D01*
X168440000Y-120370000D02*
X178940000Y-120370000D01*
X178940000Y-140930000D01*
X168440000Y-140930000D01*
X168440000Y-120370000D01*
X174690000Y-120430000D02*
G75*
G02*
X172690000Y-120430000I-1000000J0D01*
G01*
%TO.C,SW4*%
X117245000Y-140915000D02*
X117245000Y-143675000D01*
X122435000Y-140915000D02*
X117245000Y-140915000D01*
X122435000Y-140915000D02*
X122435000Y-143675000D01*
X122435000Y-143675000D02*
X117245000Y-143675000D01*
X123705000Y-140915000D02*
X125085000Y-140915000D01*
X125085000Y-140915000D02*
X125085000Y-142295000D01*
%TO.C,R5*%
X104380000Y-80480000D02*
X104380000Y-87020000D01*
X104380000Y-87020000D02*
X104710000Y-87020000D01*
X104710000Y-80480000D02*
X104380000Y-80480000D01*
X106790000Y-80480000D02*
X107120000Y-80480000D01*
X107120000Y-80480000D02*
X107120000Y-87020000D01*
X107120000Y-87020000D02*
X106790000Y-87020000D01*
%TO.C,U5*%
X153940000Y-123680000D02*
X153940000Y-141580000D01*
X153940000Y-141580000D02*
X158440000Y-141580000D01*
X155190000Y-123680000D02*
X153940000Y-123680000D01*
X158440000Y-123680000D02*
X157190000Y-123680000D01*
X158440000Y-141580000D02*
X158440000Y-123680000D01*
X150940000Y-123620000D02*
X161440000Y-123620000D01*
X161440000Y-141640000D01*
X150940000Y-141640000D01*
X150940000Y-123620000D01*
X157190000Y-123680000D02*
G75*
G02*
X155190000Y-123680000I-1000000J0D01*
G01*
%TO.C,R1*%
X121420000Y-121130000D02*
X127960000Y-121130000D01*
X121420000Y-121460000D02*
X121420000Y-121130000D01*
X121420000Y-123540000D02*
X121420000Y-123870000D01*
X121420000Y-123870000D02*
X127960000Y-123870000D01*
X127960000Y-121130000D02*
X127960000Y-121460000D01*
X127960000Y-123870000D02*
X127960000Y-123540000D01*
%TO.C,C2*%
X110880000Y-137380000D02*
X114120000Y-137380000D01*
X110880000Y-137528000D02*
X110880000Y-137380000D01*
X110880000Y-139620000D02*
X110880000Y-139472000D01*
X114120000Y-137380000D02*
X114120000Y-137528000D01*
X114120000Y-139472000D02*
X114120000Y-139620000D01*
X114120000Y-139620000D02*
X110880000Y-139620000D01*
%TO.C,D3*%
X124480000Y-51250000D02*
X125130000Y-51250000D01*
X125730000Y-50130000D02*
X125730000Y-52370000D01*
X125850000Y-50130000D02*
X125850000Y-52370000D01*
X125970000Y-50130000D02*
X125970000Y-52370000D01*
X130020000Y-51250000D02*
X129370000Y-51250000D01*
X125130000Y-50130000D02*
X129370000Y-50130000D01*
X129370000Y-52370000D01*
X125130000Y-52370000D01*
X125130000Y-50130000D01*
%TO.C,J3*%
X130345000Y-67380000D02*
X130345000Y-66000000D01*
X131725000Y-67380000D02*
X130345000Y-67380000D01*
X132995000Y-64620000D02*
X135645000Y-64620000D01*
X132995000Y-67380000D02*
X132995000Y-64620000D01*
X132995000Y-67380000D02*
X135645000Y-67380000D01*
X135645000Y-67380000D02*
X135645000Y-64620000D01*
%TO.C,D2*%
X95435000Y-99925000D02*
X95435000Y-103015000D01*
X95435000Y-99925170D02*
G75*
G02*
X100985000Y-101470000I2560000J-1544830D01*
G01*
X100985000Y-101470000D02*
G75*
G02*
X95435000Y-103014830I-2990000J0D01*
G01*
X100495000Y-101470000D02*
G75*
G02*
X95495000Y-101470000I-2500000J0D01*
G01*
X95495000Y-101470000D02*
G75*
G02*
X100495000Y-101470000I2500000J0D01*
G01*
%TO.C,R6*%
X123980000Y-54380000D02*
X123980000Y-54710000D01*
X123980000Y-57120000D02*
X123980000Y-56790000D01*
X130520000Y-54380000D02*
X123980000Y-54380000D01*
X130520000Y-54710000D02*
X130520000Y-54380000D01*
X130520000Y-56790000D02*
X130520000Y-57120000D01*
X130520000Y-57120000D02*
X123980000Y-57120000D01*
%TO.C,D1*%
X95435000Y-92455000D02*
X95435000Y-95545000D01*
X95435000Y-92455170D02*
G75*
G02*
X100985000Y-94000000I2560000J-1544830D01*
G01*
X100985000Y-94000000D02*
G75*
G02*
X95435000Y-95544830I-2990000J0D01*
G01*
X100495000Y-94000000D02*
G75*
G02*
X95495000Y-94000000I-2500000J0D01*
G01*
X95495000Y-94000000D02*
G75*
G02*
X100495000Y-94000000I2500000J0D01*
G01*
%TO.C,C7*%
X133630000Y-120880000D02*
X136870000Y-120880000D01*
X133630000Y-121028000D02*
X133630000Y-120880000D01*
X133630000Y-123120000D02*
X133630000Y-122972000D01*
X136870000Y-120880000D02*
X136870000Y-121028000D01*
X136870000Y-122972000D02*
X136870000Y-123120000D01*
X136870000Y-123120000D02*
X133630000Y-123120000D01*
%TO.C,C6*%
X165880000Y-135380000D02*
X166028000Y-135380000D01*
X165880000Y-138620000D02*
X165880000Y-135380000D01*
X166028000Y-138620000D02*
X165880000Y-138620000D01*
X167972000Y-135380000D02*
X168120000Y-135380000D01*
X168120000Y-135380000D02*
X168120000Y-138620000D01*
X168120000Y-138620000D02*
X167972000Y-138620000D01*
%TO.C,C10*%
X178130000Y-49630000D02*
X178278000Y-49630000D01*
X178130000Y-52870000D02*
X178130000Y-49630000D01*
X178278000Y-52870000D02*
X178130000Y-52870000D01*
X180222000Y-49630000D02*
X180370000Y-49630000D01*
X180370000Y-49630000D02*
X180370000Y-52870000D01*
X180370000Y-52870000D02*
X180222000Y-52870000D01*
%TO.C,Q1*%
X116740000Y-55350000D02*
X120340000Y-55350000D01*
X116701522Y-55338478D02*
G75*
G02*
X118540000Y-50899999I1838478J1838478D01*
G01*
X118540000Y-50900000D02*
G75*
G02*
X120378478Y-55338478I0J-2600000D01*
G01*
%TO.C,J1*%
X94870000Y-109675000D02*
X96250000Y-109675000D01*
X94870000Y-111055000D02*
X94870000Y-109675000D01*
X94870000Y-112325000D02*
X94870000Y-117515000D01*
X94870000Y-112325000D02*
X97630000Y-112325000D01*
X94870000Y-117515000D02*
X97630000Y-117515000D01*
X97630000Y-112325000D02*
X97630000Y-117515000D01*
%TO.C,C13*%
X104880000Y-101380000D02*
X108120000Y-101380000D01*
X104880000Y-101528000D02*
X104880000Y-101380000D01*
X104880000Y-103620000D02*
X104880000Y-103472000D01*
X108120000Y-101380000D02*
X108120000Y-101528000D01*
X108120000Y-103472000D02*
X108120000Y-103620000D01*
X108120000Y-103620000D02*
X104880000Y-103620000D01*
%TO.C,C1*%
X109945225Y-131025000D02*
X110445225Y-131025000D01*
X110195225Y-130775000D02*
X110195225Y-131275000D01*
X112750000Y-129920000D02*
X112750000Y-131460000D01*
X112750000Y-133540000D02*
X112750000Y-135080000D01*
X112790000Y-129920000D02*
X112790000Y-131460000D01*
X112790000Y-133540000D02*
X112790000Y-135080000D01*
X112830000Y-129921000D02*
X112830000Y-131460000D01*
X112830000Y-133540000D02*
X112830000Y-135079000D01*
X112870000Y-129923000D02*
X112870000Y-131460000D01*
X112870000Y-133540000D02*
X112870000Y-135077000D01*
X112910000Y-129925000D02*
X112910000Y-131460000D01*
X112910000Y-133540000D02*
X112910000Y-135075000D01*
X112950000Y-129928000D02*
X112950000Y-131460000D01*
X112950000Y-133540000D02*
X112950000Y-135072000D01*
X112990000Y-129931000D02*
X112990000Y-131460000D01*
X112990000Y-133540000D02*
X112990000Y-135069000D01*
X113030000Y-129935000D02*
X113030000Y-131460000D01*
X113030000Y-133540000D02*
X113030000Y-135065000D01*
X113070000Y-129940000D02*
X113070000Y-131460000D01*
X113070000Y-133540000D02*
X113070000Y-135060000D01*
X113110000Y-129945000D02*
X113110000Y-131460000D01*
X113110000Y-133540000D02*
X113110000Y-135055000D01*
X113150000Y-129951000D02*
X113150000Y-131460000D01*
X113150000Y-133540000D02*
X113150000Y-135049000D01*
X113190000Y-129957000D02*
X113190000Y-131460000D01*
X113190000Y-133540000D02*
X113190000Y-135043000D01*
X113230000Y-129964000D02*
X113230000Y-131460000D01*
X113230000Y-133540000D02*
X113230000Y-135036000D01*
X113270000Y-129972000D02*
X113270000Y-131460000D01*
X113270000Y-133540000D02*
X113270000Y-135028000D01*
X113310000Y-129981000D02*
X113310000Y-131460000D01*
X113310000Y-133540000D02*
X113310000Y-135019000D01*
X113350000Y-129990000D02*
X113350000Y-131460000D01*
X113350000Y-133540000D02*
X113350000Y-135010000D01*
X113390000Y-129999000D02*
X113390000Y-131460000D01*
X113390000Y-133540000D02*
X113390000Y-135001000D01*
X113430000Y-130010000D02*
X113430000Y-131460000D01*
X113430000Y-133540000D02*
X113430000Y-134990000D01*
X113470000Y-130021000D02*
X113470000Y-131460000D01*
X113470000Y-133540000D02*
X113470000Y-134979000D01*
X113510000Y-130033000D02*
X113510000Y-131460000D01*
X113510000Y-133540000D02*
X113510000Y-134967000D01*
X113550000Y-130045000D02*
X113550000Y-131460000D01*
X113550000Y-133540000D02*
X113550000Y-134955000D01*
X113590000Y-130058000D02*
X113590000Y-131460000D01*
X113590000Y-133540000D02*
X113590000Y-134942000D01*
X113630000Y-130072000D02*
X113630000Y-131460000D01*
X113630000Y-133540000D02*
X113630000Y-134928000D01*
X113670000Y-130087000D02*
X113670000Y-131460000D01*
X113670000Y-133540000D02*
X113670000Y-134913000D01*
X113710000Y-130102000D02*
X113710000Y-131460000D01*
X113710000Y-133540000D02*
X113710000Y-134898000D01*
X113750000Y-130118000D02*
X113750000Y-131460000D01*
X113750000Y-133540000D02*
X113750000Y-134882000D01*
X113790000Y-130135000D02*
X113790000Y-131460000D01*
X113790000Y-133540000D02*
X113790000Y-134865000D01*
X113830000Y-130153000D02*
X113830000Y-131460000D01*
X113830000Y-133540000D02*
X113830000Y-134847000D01*
X113870000Y-130171000D02*
X113870000Y-131460000D01*
X113870000Y-133540000D02*
X113870000Y-134829000D01*
X113910000Y-130191000D02*
X113910000Y-131460000D01*
X113910000Y-133540000D02*
X113910000Y-134809000D01*
X113950000Y-130211000D02*
X113950000Y-131460000D01*
X113950000Y-133540000D02*
X113950000Y-134789000D01*
X113990000Y-130232000D02*
X113990000Y-131460000D01*
X113990000Y-133540000D02*
X113990000Y-134768000D01*
X114030000Y-130254000D02*
X114030000Y-131460000D01*
X114030000Y-133540000D02*
X114030000Y-134746000D01*
X114070000Y-130277000D02*
X114070000Y-131460000D01*
X114070000Y-133540000D02*
X114070000Y-134723000D01*
X114110000Y-130301000D02*
X114110000Y-131460000D01*
X114110000Y-133540000D02*
X114110000Y-134699000D01*
X114150000Y-130325000D02*
X114150000Y-131460000D01*
X114150000Y-133540000D02*
X114150000Y-134675000D01*
X114190000Y-130351000D02*
X114190000Y-131460000D01*
X114190000Y-133540000D02*
X114190000Y-134649000D01*
X114230000Y-130378000D02*
X114230000Y-131460000D01*
X114230000Y-133540000D02*
X114230000Y-134622000D01*
X114270000Y-130406000D02*
X114270000Y-131460000D01*
X114270000Y-133540000D02*
X114270000Y-134594000D01*
X114310000Y-130435000D02*
X114310000Y-131460000D01*
X114310000Y-133540000D02*
X114310000Y-134565000D01*
X114350000Y-130465000D02*
X114350000Y-131460000D01*
X114350000Y-133540000D02*
X114350000Y-134535000D01*
X114390000Y-130497000D02*
X114390000Y-131460000D01*
X114390000Y-133540000D02*
X114390000Y-134503000D01*
X114430000Y-130530000D02*
X114430000Y-131460000D01*
X114430000Y-133540000D02*
X114430000Y-134470000D01*
X114470000Y-130564000D02*
X114470000Y-131460000D01*
X114470000Y-133540000D02*
X114470000Y-134436000D01*
X114510000Y-130599000D02*
X114510000Y-131460000D01*
X114510000Y-133540000D02*
X114510000Y-134401000D01*
X114550000Y-130636000D02*
X114550000Y-131460000D01*
X114550000Y-133540000D02*
X114550000Y-134364000D01*
X114590000Y-130675000D02*
X114590000Y-131460000D01*
X114590000Y-133540000D02*
X114590000Y-134325000D01*
X114630000Y-130715000D02*
X114630000Y-131460000D01*
X114630000Y-133540000D02*
X114630000Y-134285000D01*
X114670000Y-130757000D02*
X114670000Y-131460000D01*
X114670000Y-133540000D02*
X114670000Y-134243000D01*
X114710000Y-130801000D02*
X114710000Y-131460000D01*
X114710000Y-133540000D02*
X114710000Y-134199000D01*
X114750000Y-130848000D02*
X114750000Y-131460000D01*
X114750000Y-133540000D02*
X114750000Y-134152000D01*
X114790000Y-130896000D02*
X114790000Y-134104000D01*
X114830000Y-130947000D02*
X114830000Y-134053000D01*
X114870000Y-131001000D02*
X114870000Y-133999000D01*
X114910000Y-131057000D02*
X114910000Y-133943000D01*
X114950000Y-131117000D02*
X114950000Y-133883000D01*
X114990000Y-131181000D02*
X114990000Y-133819000D01*
X115030000Y-131249000D02*
X115030000Y-133751000D01*
X115070000Y-131323000D02*
X115070000Y-133677000D01*
X115110000Y-131402000D02*
X115110000Y-133598000D01*
X115150000Y-131489000D02*
X115150000Y-133511000D01*
X115190000Y-131586000D02*
X115190000Y-133414000D01*
X115230000Y-131695000D02*
X115230000Y-133305000D01*
X115270000Y-131823000D02*
X115270000Y-133177000D01*
X115310000Y-131983000D02*
X115310000Y-133017000D01*
X115350000Y-132217000D02*
X115350000Y-132783000D01*
X115370000Y-132500000D02*
G75*
G02*
X110130000Y-132500000I-2620000J0D01*
G01*
X110130000Y-132500000D02*
G75*
G02*
X115370000Y-132500000I2620000J0D01*
G01*
%TO.C,R2*%
X104380000Y-64980000D02*
X104380000Y-71520000D01*
X104380000Y-71520000D02*
X104710000Y-71520000D01*
X104710000Y-64980000D02*
X104380000Y-64980000D01*
X106790000Y-64980000D02*
X107120000Y-64980000D01*
X107120000Y-64980000D02*
X107120000Y-71520000D01*
X107120000Y-71520000D02*
X106790000Y-71520000D01*
%TO.C,Y1*%
X104065000Y-113410000D02*
X104065000Y-107010000D01*
X108935000Y-107010000D02*
X108935000Y-113410000D01*
X104065000Y-107010000D02*
G75*
G02*
X108935000Y-107010000I2435000J0D01*
G01*
X108935000Y-113410000D02*
G75*
G02*
X104065000Y-113410000I-2435000J0D01*
G01*
%TO.C,C5*%
X170130000Y-61880000D02*
X173370000Y-61880000D01*
X170130000Y-62028000D02*
X170130000Y-61880000D01*
X170130000Y-64120000D02*
X170130000Y-63972000D01*
X173370000Y-61880000D02*
X173370000Y-62028000D01*
X173370000Y-63972000D02*
X173370000Y-64120000D01*
X173370000Y-64120000D02*
X170130000Y-64120000D01*
%TO.C,R7*%
X171730000Y-55630000D02*
X178270000Y-55630000D01*
X171730000Y-55960000D02*
X171730000Y-55630000D01*
X171730000Y-58040000D02*
X171730000Y-58370000D01*
X171730000Y-58370000D02*
X178270000Y-58370000D01*
X178270000Y-55630000D02*
X178270000Y-55960000D01*
X178270000Y-58370000D02*
X178270000Y-58040000D01*
%TD*%
M02*
