%TF.GenerationSoftware,KiCad,Pcbnew,10.0.6*%
%TF.CreationDate,2026-10-02T12:35:44-04:00*%
%TF.ProjectId,sbc_89c51,7362635f-3839-4633-9531-2e6b69636164,rev?*%
%TF.SameCoordinates,Original*%
%TF.FileFunction,Copper,L1,Top*%
%TF.FilePolarity,Positive*%
%FSLAX46Y46*%
G04 Gerber Fmt 4.6, Leading zero omitted, Abs format (unit mm)*
G04 Created by KiCad (PCBNEW 10.0.6) date 2026-10-02 12:35:44*
%MOMM*%
%LPD*%
G01*
G04 APERTURE LIST*
G04 Aperture macros list*
%AMRoundRect*
0 Rectangle with rounded corners*
0 $1 Rounding radius*
0 $2 $3 $4 $5 $6 $7 $8 $9 X,Y pos of 4 corners*
0 Add a 4 corners polygon primitive as box body*
4,1,4,$2,$3,$4,$5,$6,$7,$8,$9,$2,$3,0*
0 Add four circle primitives for the rounded corners*
1,1,$1+$1,$2,$3*
1,1,$1+$1,$4,$5*
1,1,$1+$1,$6,$7*
1,1,$1+$1,$8,$9*
0 Add four rect primitives between the rounded corners*
20,1,$1+$1,$2,$3,$4,$5,0*
20,1,$1+$1,$4,$5,$6,$7,0*
20,1,$1+$1,$6,$7,$8,$9,0*
20,1,$1+$1,$8,$9,$2,$3,0*%
G04 Aperture macros list end*
%TA.AperFunction,ComponentPad*%
%ADD10R,2.000000X2.000000*%
%TD*%
%TA.AperFunction,ComponentPad*%
%ADD11C,2.000000*%
%TD*%
%TA.AperFunction,ComponentPad*%
%ADD12RoundRect,0.250000X-0.950000X-0.550000X0.950000X-0.550000X0.950000X0.550000X-0.950000X0.550000X0*%
%TD*%
%TA.AperFunction,ComponentPad*%
%ADD13O,2.400000X1.600000*%
%TD*%
%TA.AperFunction,ComponentPad*%
%ADD14RoundRect,0.250000X-0.600000X-0.600000X0.600000X-0.600000X0.600000X0.600000X-0.600000X0.600000X0*%
%TD*%
%TA.AperFunction,ComponentPad*%
%ADD15C,1.700000*%
%TD*%
%TA.AperFunction,ComponentPad*%
%ADD16C,1.600000*%
%TD*%
%TA.AperFunction,ComponentPad*%
%ADD17RoundRect,0.250000X-0.550000X-0.550000X0.550000X-0.550000X0.550000X0.550000X-0.550000X0.550000X0*%
%TD*%
%TA.AperFunction,ComponentPad*%
%ADD18RoundRect,0.250000X-0.550000X0.550000X-0.550000X-0.550000X0.550000X-0.550000X0.550000X0.550000X0*%
%TD*%
%TA.AperFunction,ComponentPad*%
%ADD19C,4.000000*%
%TD*%
%TA.AperFunction,ComponentPad*%
%ADD20R,1.700000X1.700000*%
%TD*%
%TA.AperFunction,ComponentPad*%
%ADD21R,1.800000X1.800000*%
%TD*%
%TA.AperFunction,ComponentPad*%
%ADD22C,1.800000*%
%TD*%
%TA.AperFunction,ComponentPad*%
%ADD23R,1.300000X1.300000*%
%TD*%
%TA.AperFunction,ComponentPad*%
%ADD24C,1.300000*%
%TD*%
%TA.AperFunction,ComponentPad*%
%ADD25C,1.500000*%
%TD*%
%TA.AperFunction,ViaPad*%
%ADD26C,0.600000*%
%TD*%
%TA.AperFunction,Conductor*%
%ADD27C,0.200000*%
%TD*%
G04 APERTURE END LIST*
D10*
%TO.P,BZ1,1,+_1*%
%TO.N,VCC*%
X104010000Y-56000000D03*
D11*
%TO.P,BZ1,2,-_2*%
%TO.N,Net-(BZ1--)*%
X111610000Y-56000000D03*
%TD*%
D12*
%TO.P,U1,1,T2/P1.0_1*%
%TO.N,/RST_IDE*%
X113010000Y-65570000D03*
D13*
%TO.P,U1,2,T2EX/P1.1_2*%
%TO.N,/BUZZER*%
X113010000Y-68110000D03*
%TO.P,U1,3,P1.2_3*%
%TO.N,/USER_BTN*%
X113010000Y-70650000D03*
%TO.P,U1,4,P1.3_4*%
%TO.N,/USER_LED*%
X113010000Y-73190000D03*
%TO.P,U1,5,P1.4_5*%
%TO.N,unconnected-(U1-P1.4-Pad5)*%
X113010000Y-75730000D03*
%TO.P,U1,6,P1.5_6*%
%TO.N,unconnected-(U1-P1.5-Pad6)*%
X113010000Y-78270000D03*
%TO.P,U1,7,P1.6_7*%
%TO.N,unconnected-(U1-P1.6-Pad7)*%
X113010000Y-80810000D03*
%TO.P,U1,8,P1.7_8*%
%TO.N,unconnected-(U1-P1.7-Pad8)*%
X113010000Y-83350000D03*
%TO.P,U1,9,RST_9*%
%TO.N,Net-(U1-RST)*%
X113010000Y-85890000D03*
%TO.P,U1,10,P3.0/RxD_10*%
%TO.N,/RxD*%
X113010000Y-88430000D03*
%TO.P,U1,11,P3.1/TxD_11*%
%TO.N,/TxD*%
X113010000Y-90970000D03*
%TO.P,U1,12,P3.2/INT0_12*%
%TO.N,/IRQ_BTN*%
X113010000Y-93510000D03*
%TO.P,U1,13,P3.3/INT1_13*%
%TO.N,unconnected-(U1-P3.3{slash}INT1-Pad13)*%
X113010000Y-96050000D03*
%TO.P,U1,14,P3.4/T0_14*%
%TO.N,unconnected-(U1-P3.4{slash}T0-Pad14)*%
X113010000Y-98590000D03*
%TO.P,U1,15,P3.5/T1_15*%
%TO.N,unconnected-(U1-P3.5{slash}T1-Pad15)*%
X113010000Y-101130000D03*
%TO.P,U1,16,P3.6/WR_16*%
%TO.N,/WR*%
X113010000Y-103670000D03*
%TO.P,U1,17,P3.7/RD_17*%
%TO.N,/RD*%
X113010000Y-106210000D03*
%TO.P,U1,18,XTAL2_18*%
%TO.N,/X2*%
X113010000Y-108750000D03*
%TO.P,U1,19,XTAL1_19*%
%TO.N,/X1*%
X113010000Y-111290000D03*
%TO.P,U1,20,GND_20*%
%TO.N,GND*%
X113010000Y-113830000D03*
%TO.P,U1,21,A8/P2.0_21*%
%TO.N,/A8*%
X128250000Y-113830000D03*
%TO.P,U1,22,A9/P2.1_22*%
%TO.N,/A9*%
X128250000Y-111290000D03*
%TO.P,U1,23,A10/P2.2_23*%
%TO.N,/A10*%
X128250000Y-108750000D03*
%TO.P,U1,24,A11/P2.3_24*%
%TO.N,/A11*%
X128250000Y-106210000D03*
%TO.P,U1,25,A12/P2.4_25*%
%TO.N,/A12*%
X128250000Y-103670000D03*
%TO.P,U1,26,A13/P2.5_26*%
%TO.N,/A13*%
X128250000Y-101130000D03*
%TO.P,U1,27,A14/P2.6_27*%
%TO.N,/A14*%
X128250000Y-98590000D03*
%TO.P,U1,28,A15/P2.7_28*%
%TO.N,/A15*%
X128250000Y-96050000D03*
%TO.P,U1,29,PSEN_29*%
%TO.N,/PSEN*%
X128250000Y-93510000D03*
%TO.P,U1,30,ALE_30*%
%TO.N,/ALE*%
X128250000Y-90970000D03*
%TO.P,U1,31,EA_31*%
%TO.N,VCC*%
X128250000Y-88430000D03*
%TO.P,U1,32,AD7/P0.7_32*%
%TO.N,/D7*%
X128250000Y-85890000D03*
%TO.P,U1,33,AD6/P0.6_33*%
%TO.N,/D6*%
X128250000Y-83350000D03*
%TO.P,U1,34,AD5/P0.5_34*%
%TO.N,/D5*%
X128250000Y-80810000D03*
%TO.P,U1,35,AD4/P0.4_35*%
%TO.N,/D4*%
X128250000Y-78270000D03*
%TO.P,U1,36,AD3/P0.3_36*%
%TO.N,/D3*%
X128250000Y-75730000D03*
%TO.P,U1,37,AD2/P0.2_37*%
%TO.N,/D2*%
X128250000Y-73190000D03*
%TO.P,U1,38,AD1/P0.1_38*%
%TO.N,/D1*%
X128250000Y-70650000D03*
%TO.P,U1,39,AD0/P0.0_39*%
%TO.N,/D0*%
X128250000Y-68110000D03*
%TO.P,U1,40,VCC_40*%
%TO.N,/MCU_PWR*%
X128250000Y-65570000D03*
%TD*%
D14*
%TO.P,J2,1,Pin_1_1*%
%TO.N,/RST_IDE*%
X184460000Y-54100000D03*
D15*
%TO.P,J2,2,Pin_2_2*%
%TO.N,GND*%
X187000000Y-54100000D03*
%TO.P,J2,3,Pin_3_3*%
%TO.N,/D7*%
X184460000Y-56640000D03*
%TO.P,J2,4,Pin_4_4*%
%TO.N,GND*%
X187000000Y-56640000D03*
%TO.P,J2,5,Pin_5_5*%
%TO.N,/D6*%
X184460000Y-59180000D03*
%TO.P,J2,6,Pin_6_6*%
%TO.N,GND*%
X187000000Y-59180000D03*
%TO.P,J2,7,Pin_7_7*%
%TO.N,/D5*%
X184460000Y-61720000D03*
%TO.P,J2,8,Pin_8_8*%
%TO.N,GND*%
X187000000Y-61720000D03*
%TO.P,J2,9,Pin_9_9*%
%TO.N,/D4*%
X184460000Y-64260000D03*
%TO.P,J2,10,Pin_10_10*%
%TO.N,GND*%
X187000000Y-64260000D03*
%TO.P,J2,11,Pin_11_11*%
%TO.N,/D3*%
X184460000Y-66800000D03*
%TO.P,J2,12,Pin_12_12*%
%TO.N,GND*%
X187000000Y-66800000D03*
%TO.P,J2,13,Pin_13_13*%
%TO.N,/D2*%
X184460000Y-69340000D03*
%TO.P,J2,14,Pin_14_14*%
%TO.N,GND*%
X187000000Y-69340000D03*
%TO.P,J2,15,Pin_15_15*%
%TO.N,/D1*%
X184460000Y-71880000D03*
%TO.P,J2,16,Pin_16_16*%
%TO.N,GND*%
X187000000Y-71880000D03*
%TO.P,J2,17,Pin_17_17*%
%TO.N,/D0*%
X184460000Y-74420000D03*
%TO.P,J2,18,Pin_18_18*%
%TO.N,GND*%
X187000000Y-74420000D03*
%TO.P,J2,19,Pin_19_19*%
X184460000Y-76960000D03*
%TO.P,J2,20,Pin_20_20*%
%TO.N,VCC*%
X187000000Y-76960000D03*
%TO.P,J2,21,Pin_21_21*%
%TO.N,unconnected-(J2-Pin_21-Pad21)*%
X184460000Y-79500000D03*
%TO.P,J2,22,Pin_22_22*%
%TO.N,GND*%
X187000000Y-79500000D03*
%TO.P,J2,23,Pin_23_23*%
%TO.N,/WR*%
X184460000Y-82040000D03*
%TO.P,J2,24,Pin_24_24*%
%TO.N,GND*%
X187000000Y-82040000D03*
%TO.P,J2,25,Pin_25_25*%
%TO.N,/RD*%
X184460000Y-84580000D03*
%TO.P,J2,26,Pin_26_26*%
%TO.N,GND*%
X187000000Y-84580000D03*
%TO.P,J2,27,Pin_27_27*%
%TO.N,unconnected-(J2-Pin_27-Pad27)*%
X184460000Y-87120000D03*
%TO.P,J2,28,Pin_28_28*%
%TO.N,unconnected-(J2-Pin_28-Pad28)*%
X187000000Y-87120000D03*
%TO.P,J2,29,Pin_29_29*%
%TO.N,unconnected-(J2-Pin_29-Pad29)*%
X184460000Y-89660000D03*
%TO.P,J2,30,Pin_30_30*%
%TO.N,GND*%
X187000000Y-89660000D03*
%TO.P,J2,31,Pin_31_31*%
%TO.N,unconnected-(J2-Pin_31-Pad31)*%
X184460000Y-92200000D03*
%TO.P,J2,32,Pin_32_32*%
%TO.N,unconnected-(J2-Pin_32-Pad32)*%
X187000000Y-92200000D03*
%TO.P,J2,33,Pin_33_33*%
%TO.N,/A1*%
X184460000Y-94740000D03*
%TO.P,J2,34,Pin_34_34*%
%TO.N,unconnected-(J2-Pin_34-Pad34)*%
X187000000Y-94740000D03*
%TO.P,J2,35,Pin_35_35*%
%TO.N,/A0*%
X184460000Y-97280000D03*
%TO.P,J2,36,Pin_36_36*%
%TO.N,/A2*%
X187000000Y-97280000D03*
%TO.P,J2,37,Pin_37_37*%
%TO.N,/CS0*%
X184460000Y-99820000D03*
%TO.P,J2,38,Pin_38_38*%
%TO.N,/CS1*%
X187000000Y-99820000D03*
%TO.P,J2,39,Pin_39_39*%
%TO.N,unconnected-(J2-Pin_39-Pad39)*%
X184460000Y-102360000D03*
%TO.P,J2,40,Pin_40_40*%
%TO.N,unconnected-(J2-Pin_40-Pad40)*%
X187000000Y-102360000D03*
%TD*%
%TO.P,SW1,1,1_1*%
%TO.N,VCC*%
X95750000Y-67500000D03*
X102250000Y-67500000D03*
%TO.P,SW1,2,2_2*%
%TO.N,Net-(U1-RST)*%
X95750000Y-72000000D03*
X102250000Y-72000000D03*
%TD*%
%TO.P,SW2,1,1_1*%
%TO.N,GND*%
X95750000Y-75250000D03*
X102250000Y-75250000D03*
%TO.P,SW2,2,2_2*%
%TO.N,/USER_BTN*%
X95750000Y-79750000D03*
X102250000Y-79750000D03*
%TD*%
D16*
%TO.P,C3,1*%
%TO.N,VCC*%
X133000000Y-89750000D03*
%TO.P,C3,2*%
%TO.N,GND*%
X133000000Y-87250000D03*
%TD*%
D12*
%TO.P,U4,1,VDD_1*%
%TO.N,VCC*%
X134880000Y-125050000D03*
D13*
%TO.P,U4,2,GP0_2*%
%TO.N,unconnected-(U4-GP0-Pad2)*%
X134880000Y-127590000D03*
%TO.P,U4,3,GP1_3*%
%TO.N,unconnected-(U4-GP1-Pad3)*%
X134880000Y-130130000D03*
%TO.P,U4,4,~{RST}_4*%
%TO.N,Net-(U4-~{RST})*%
X134880000Y-132670000D03*
%TO.P,U4,5,URx_5*%
%TO.N,/TxD*%
X134880000Y-135210000D03*
%TO.P,U4,6,UTx_6*%
%TO.N,/RxD*%
X134880000Y-137750000D03*
%TO.P,U4,7,GP2_7*%
%TO.N,unconnected-(U4-GP2-Pad7)*%
X134880000Y-140290000D03*
%TO.P,U4,8,GP3_8*%
%TO.N,unconnected-(U4-GP3-Pad8)*%
X142500000Y-140290000D03*
%TO.P,U4,9,SDA_9*%
%TO.N,unconnected-(U4-SDA-Pad9)*%
X142500000Y-137750000D03*
%TO.P,U4,10,SCL_10*%
%TO.N,unconnected-(U4-SCL-Pad10)*%
X142500000Y-135210000D03*
%TO.P,U4,11,VUSB_11*%
%TO.N,Net-(U4-VUSB)*%
X142500000Y-132670000D03*
%TO.P,U4,12,D-_12*%
%TO.N,Net-(J4-D-)*%
X142500000Y-130130000D03*
%TO.P,U4,13,D+_13*%
%TO.N,Net-(J4-D+)*%
X142500000Y-127590000D03*
%TO.P,U4,14,VSS_14*%
%TO.N,GND*%
X142500000Y-125050000D03*
%TD*%
D17*
%TO.P,C9,1*%
%TO.N,VCC*%
X183750000Y-112250000D03*
D16*
%TO.P,C9,2*%
%TO.N,GND*%
X185750000Y-112250000D03*
%TD*%
%TO.P,C12,1*%
%TO.N,GND*%
X107750000Y-117500000D03*
%TO.P,C12,2*%
%TO.N,/X1*%
X105250000Y-117500000D03*
%TD*%
%TO.P,C8,1*%
%TO.N,VCC*%
X163000000Y-125000000D03*
%TO.P,C8,2*%
%TO.N,GND*%
X163000000Y-127500000D03*
%TD*%
D18*
%TO.P,J4,1,VBUS_1*%
%TO.N,/VBUS*%
X107860000Y-134500000D03*
D16*
%TO.P,J4,2,D-_2*%
%TO.N,Net-(J4-D-)*%
X107860000Y-132000000D03*
%TO.P,J4,3,D+_3*%
%TO.N,Net-(J4-D+)*%
X105860000Y-132000000D03*
%TO.P,J4,4,GND_4*%
%TO.N,GND*%
X105860000Y-134500000D03*
D19*
%TO.P,J4,SH,Shield_SH*%
X103000000Y-139250000D03*
X103000000Y-127250000D03*
%TD*%
D15*
%TO.P,SW3,1,1_1*%
%TO.N,GND*%
X95750000Y-83000000D03*
X102250000Y-83000000D03*
%TO.P,SW3,2,2_2*%
%TO.N,/IRQ_BTN*%
X95750000Y-87500000D03*
X102250000Y-87500000D03*
%TD*%
D16*
%TO.P,R4,1*%
%TO.N,/USER_LED*%
X108500000Y-98310000D03*
%TO.P,R4,2*%
%TO.N,Net-(D2-A)*%
X108500000Y-90690000D03*
%TD*%
%TO.P,R3,1*%
%TO.N,VCC*%
X104450000Y-98310000D03*
%TO.P,R3,2*%
%TO.N,Net-(D1-A)*%
X104450000Y-90690000D03*
%TD*%
D12*
%TO.P,U3,1,A14_1*%
%TO.N,/A14*%
X156000000Y-65840000D03*
D13*
%TO.P,U3,2,A12_2*%
%TO.N,/A12*%
X156000000Y-68380000D03*
%TO.P,U3,3,A7_3*%
%TO.N,/A7*%
X156000000Y-70920000D03*
%TO.P,U3,4,A6_4*%
%TO.N,/A6*%
X156000000Y-73460000D03*
%TO.P,U3,5,A5_5*%
%TO.N,/A5*%
X156000000Y-76000000D03*
%TO.P,U3,6,A4_6*%
%TO.N,/A4*%
X156000000Y-78540000D03*
%TO.P,U3,7,A3_7*%
%TO.N,/A3*%
X156000000Y-81080000D03*
%TO.P,U3,8,A2_8*%
%TO.N,/A2*%
X156000000Y-83620000D03*
%TO.P,U3,9,A1_9*%
%TO.N,/A1*%
X156000000Y-86160000D03*
%TO.P,U3,10,A0_10*%
%TO.N,/A0*%
X156000000Y-88700000D03*
%TO.P,U3,11,Q0_11*%
%TO.N,/D0*%
X156000000Y-91240000D03*
%TO.P,U3,12,Q1_12*%
%TO.N,/D1*%
X156000000Y-93780000D03*
%TO.P,U3,13,Q2_13*%
%TO.N,/D2*%
X156000000Y-96320000D03*
%TO.P,U3,14,GND_14*%
%TO.N,GND*%
X156000000Y-98860000D03*
%TO.P,U3,15,Q3_15*%
%TO.N,/D3*%
X171240000Y-98860000D03*
%TO.P,U3,16,Q4_16*%
%TO.N,/D4*%
X171240000Y-96320000D03*
%TO.P,U3,17,Q5_17*%
%TO.N,/D5*%
X171240000Y-93780000D03*
%TO.P,U3,18,Q6_18*%
%TO.N,/D6*%
X171240000Y-91240000D03*
%TO.P,U3,19,Q7_19*%
%TO.N,/D7*%
X171240000Y-88700000D03*
%TO.P,U3,20,~{CS}_20*%
%TO.N,Net-(U3-~{CS})*%
X171240000Y-86160000D03*
%TO.P,U3,21,A10_21*%
%TO.N,/A10*%
X171240000Y-83620000D03*
%TO.P,U3,22,~{OE}_22*%
%TO.N,Net-(U3-~{OE})*%
X171240000Y-81080000D03*
%TO.P,U3,23,A11_23*%
%TO.N,/A11*%
X171240000Y-78540000D03*
%TO.P,U3,24,A9_24*%
%TO.N,/A9*%
X171240000Y-76000000D03*
%TO.P,U3,25,A8_25*%
%TO.N,/A8*%
X171240000Y-73460000D03*
%TO.P,U3,26,A13_26*%
%TO.N,/A13*%
X171240000Y-70920000D03*
%TO.P,U3,27,~{WE}_27*%
%TO.N,/WR*%
X171240000Y-68380000D03*
%TO.P,U3,28,VCC_28*%
%TO.N,VCC*%
X171240000Y-65840000D03*
%TD*%
D12*
%TO.P,U2,1,OE_1*%
%TO.N,GND*%
X139000000Y-65470000D03*
D13*
%TO.P,U2,2,D0_2*%
%TO.N,/D0*%
X139000000Y-68010000D03*
%TO.P,U2,3,D1_3*%
%TO.N,/D1*%
X139000000Y-70550000D03*
%TO.P,U2,4,D2_4*%
%TO.N,/D2*%
X139000000Y-73090000D03*
%TO.P,U2,5,D3_5*%
%TO.N,/D3*%
X139000000Y-75630000D03*
%TO.P,U2,6,D4_6*%
%TO.N,/D4*%
X139000000Y-78170000D03*
%TO.P,U2,7,D5_7*%
%TO.N,/D5*%
X139000000Y-80710000D03*
%TO.P,U2,8,D6_8*%
%TO.N,/D6*%
X139000000Y-83250000D03*
%TO.P,U2,9,D7_9*%
%TO.N,/D7*%
X139000000Y-85790000D03*
%TO.P,U2,10,GND_10*%
%TO.N,GND*%
X139000000Y-88330000D03*
%TO.P,U2,11,Load_11*%
%TO.N,/ALE*%
X146620000Y-88330000D03*
%TO.P,U2,12,Q7_12*%
%TO.N,/A7*%
X146620000Y-85790000D03*
%TO.P,U2,13,Q6_13*%
%TO.N,/A6*%
X146620000Y-83250000D03*
%TO.P,U2,14,Q5_14*%
%TO.N,/A5*%
X146620000Y-80710000D03*
%TO.P,U2,15,Q4_15*%
%TO.N,/A4*%
X146620000Y-78170000D03*
%TO.P,U2,16,Q3_16*%
%TO.N,/A3*%
X146620000Y-75630000D03*
%TO.P,U2,17,Q2_17*%
%TO.N,/A2*%
X146620000Y-73090000D03*
%TO.P,U2,18,Q1_18*%
%TO.N,/A1*%
X146620000Y-70550000D03*
%TO.P,U2,19,Q0_19*%
%TO.N,/A0*%
X146620000Y-68010000D03*
%TO.P,U2,20,VCC_20*%
%TO.N,VCC*%
X146620000Y-65470000D03*
%TD*%
D16*
%TO.P,C11,1*%
%TO.N,Net-(U4-VUSB)*%
X145500000Y-132750000D03*
%TO.P,C11,2*%
%TO.N,GND*%
X145500000Y-130250000D03*
%TD*%
%TO.P,C4,1*%
%TO.N,VCC*%
X138000000Y-62500000D03*
%TO.P,C4,2*%
%TO.N,GND*%
X140500000Y-62500000D03*
%TD*%
D12*
%TO.P,U6,1,A0_1*%
%TO.N,/A12*%
X169880000Y-121760000D03*
D13*
%TO.P,U6,2,A1_2*%
%TO.N,/A13*%
X169880000Y-124300000D03*
%TO.P,U6,3,A2_3*%
%TO.N,/A14*%
X169880000Y-126840000D03*
%TO.P,U6,4,~{E0}_4*%
%TO.N,/A15*%
X169880000Y-129380000D03*
%TO.P,U6,5,~{E1}_5*%
%TO.N,GND*%
X169880000Y-131920000D03*
%TO.P,U6,6,E2_6*%
%TO.N,VCC*%
X169880000Y-134460000D03*
%TO.P,U6,7,~{Y7}_7*%
%TO.N,unconnected-(U6-~{Y7}-Pad7)*%
X169880000Y-137000000D03*
%TO.P,U6,8,GND_8*%
%TO.N,GND*%
X169880000Y-139540000D03*
%TO.P,U6,9,~{Y6}_9*%
%TO.N,unconnected-(U6-~{Y6}-Pad9)*%
X177500000Y-139540000D03*
%TO.P,U6,10,~{Y5}_10*%
%TO.N,/CS1*%
X177500000Y-137000000D03*
%TO.P,U6,11,~{Y4}_11*%
%TO.N,/CS0*%
X177500000Y-134460000D03*
%TO.P,U6,12,~{Y3}_12*%
%TO.N,unconnected-(U6-~{Y3}-Pad12)*%
X177500000Y-131920000D03*
%TO.P,U6,13,~{Y2}_13*%
%TO.N,unconnected-(U6-~{Y2}-Pad13)*%
X177500000Y-129380000D03*
%TO.P,U6,14,~{Y1}_14*%
%TO.N,unconnected-(U6-~{Y1}-Pad14)*%
X177500000Y-126840000D03*
%TO.P,U6,15,~{Y0}_15*%
%TO.N,unconnected-(U6-~{Y0}-Pad15)*%
X177500000Y-124300000D03*
%TO.P,U6,16,VCC_16*%
%TO.N,VCC*%
X177500000Y-121760000D03*
%TD*%
D20*
%TO.P,SW4,1,A_1*%
%TO.N,VCC*%
X123705000Y-142295000D03*
D15*
%TO.P,SW4,2,B_2*%
%TO.N,/VBUS*%
X121165000Y-142295000D03*
%TO.P,SW4,3,C_3*%
%TO.N,unconnected-(SW4-C-Pad3)*%
X118625000Y-142295000D03*
%TD*%
D16*
%TO.P,R5,1*%
%TO.N,VCC*%
X105750000Y-79940000D03*
%TO.P,R5,2*%
%TO.N,/IRQ_BTN*%
X105750000Y-87560000D03*
%TD*%
D12*
%TO.P,U5,1*%
%TO.N,/PSEN*%
X152380000Y-125010000D03*
D13*
%TO.P,U5,2*%
%TO.N,/RD*%
X152380000Y-127550000D03*
%TO.P,U5,3*%
%TO.N,Net-(U5-Pad3)*%
X152380000Y-130090000D03*
%TO.P,U5,4*%
X152380000Y-132630000D03*
%TO.P,U5,5*%
X152380000Y-135170000D03*
%TO.P,U5,6*%
%TO.N,Net-(U3-~{OE})*%
X152380000Y-137710000D03*
%TO.P,U5,7,GND_7*%
%TO.N,GND*%
X152380000Y-140250000D03*
%TO.P,U5,8*%
%TO.N,Net-(U3-~{CS})*%
X160000000Y-140250000D03*
%TO.P,U5,9*%
%TO.N,/A15*%
X160000000Y-137710000D03*
%TO.P,U5,10*%
X160000000Y-135170000D03*
%TO.P,U5,11*%
%TO.N,unconnected-(U5-Pad11)*%
X160000000Y-132630000D03*
%TO.P,U5,12*%
%TO.N,GND*%
X160000000Y-130090000D03*
%TO.P,U5,13*%
X160000000Y-127550000D03*
%TO.P,U5,14,VCC_14*%
%TO.N,VCC*%
X160000000Y-125010000D03*
%TD*%
D16*
%TO.P,R1,1*%
%TO.N,VCC*%
X120880000Y-122500000D03*
%TO.P,R1,2*%
%TO.N,Net-(U4-~{RST})*%
X128500000Y-122500000D03*
%TD*%
%TO.P,C2,1*%
%TO.N,VCC*%
X111250000Y-138500000D03*
%TO.P,C2,2*%
%TO.N,GND*%
X113750000Y-138500000D03*
%TD*%
D17*
%TO.P,D3,1,K_1*%
%TO.N,Net-(BZ1--)*%
X123440000Y-51250000D03*
D16*
%TO.P,D3,2,A_2*%
%TO.N,Net-(D3-A)*%
X131060000Y-51250000D03*
%TD*%
D20*
%TO.P,J3,1,Pin_1_1*%
%TO.N,/MCU_PWR*%
X131725000Y-66000000D03*
D15*
%TO.P,J3,2,Pin_2_2*%
%TO.N,VCC*%
X134265000Y-66000000D03*
%TD*%
D21*
%TO.P,D2,1,K_1*%
%TO.N,GND*%
X96725000Y-101470000D03*
D22*
%TO.P,D2,2,A_2*%
%TO.N,Net-(D2-A)*%
X99265000Y-101470000D03*
%TD*%
D16*
%TO.P,R6,1*%
%TO.N,/BUZZER*%
X131060000Y-55750000D03*
%TO.P,R6,2*%
%TO.N,Net-(Q1-B)*%
X123440000Y-55750000D03*
%TD*%
D21*
%TO.P,D1,1,K_1*%
%TO.N,GND*%
X96725000Y-94000000D03*
D22*
%TO.P,D1,2,A_2*%
%TO.N,Net-(D1-A)*%
X99265000Y-94000000D03*
%TD*%
D16*
%TO.P,C7,1*%
%TO.N,VCC*%
X134000000Y-122000000D03*
%TO.P,C7,2*%
%TO.N,GND*%
X136500000Y-122000000D03*
%TD*%
%TO.P,C6,1*%
%TO.N,VCC*%
X167000000Y-135750000D03*
%TO.P,C6,2*%
%TO.N,GND*%
X167000000Y-138250000D03*
%TD*%
%TO.P,C10,1*%
%TO.N,VCC*%
X179250000Y-52500000D03*
%TO.P,C10,2*%
%TO.N,GND*%
X179250000Y-50000000D03*
%TD*%
D23*
%TO.P,Q1,1,B_1*%
%TO.N,Net-(Q1-B)*%
X117270000Y-53500000D03*
D24*
%TO.P,Q1,2,C_2*%
%TO.N,Net-(D3-A)*%
X118540000Y-52230000D03*
%TO.P,Q1,3,E_3*%
%TO.N,GND*%
X119810000Y-53500000D03*
%TD*%
D20*
%TO.P,J1,1,Pin_1_1*%
%TO.N,GND*%
X96250000Y-111055000D03*
D15*
%TO.P,J1,2,Pin_2_2*%
%TO.N,/TxD*%
X96250000Y-113595000D03*
%TO.P,J1,3,Pin_3_3*%
%TO.N,/RxD*%
X96250000Y-116135000D03*
%TD*%
D16*
%TO.P,C13,1*%
%TO.N,GND*%
X107750000Y-102500000D03*
%TO.P,C13,2*%
%TO.N,/X2*%
X105250000Y-102500000D03*
%TD*%
D17*
%TO.P,C1,1*%
%TO.N,VCC*%
X111750000Y-132500000D03*
D16*
%TO.P,C1,2*%
%TO.N,GND*%
X113750000Y-132500000D03*
%TD*%
%TO.P,R2,1*%
%TO.N,GND*%
X105750000Y-64440000D03*
%TO.P,R2,2*%
%TO.N,Net-(U1-RST)*%
X105750000Y-72060000D03*
%TD*%
D25*
%TO.P,Y1,1,1_1*%
%TO.N,/X1*%
X106500000Y-112650000D03*
%TO.P,Y1,2,2_2*%
%TO.N,/X2*%
X106500000Y-107770000D03*
%TD*%
D16*
%TO.P,C5,1*%
%TO.N,VCC*%
X170500000Y-63000000D03*
%TO.P,C5,2*%
%TO.N,GND*%
X173000000Y-63000000D03*
%TD*%
%TO.P,R7,1*%
%TO.N,VCC*%
X171190000Y-57000000D03*
%TO.P,R7,2*%
%TO.N,/RST_IDE*%
X178810000Y-57000000D03*
%TD*%
D26*
%TO.N,/A12*%
X153500000Y-108500000D03*
X156750000Y-108500000D03*
%TO.N,/A13*%
X156750000Y-107500000D03*
X153500000Y-107500000D03*
%TO.N,/A14*%
X158750000Y-84000000D03*
X156750000Y-106550003D03*
X158750000Y-98090000D03*
X153500000Y-106500000D03*
%TO.N,/A15*%
X156750000Y-105750000D03*
X153500000Y-105500000D03*
%TO.N,/A3*%
X162000000Y-72250000D03*
X160250000Y-81000000D03*
%TD*%
%TO.N,Net-(U1-RST)*%
D27*
X102310000Y-72060000D02*
X102250000Y-72000000D01*
X105750000Y-72060000D02*
X102310000Y-72060000D01*
X113010000Y-85890000D02*
X111000000Y-83880000D01*
X111000000Y-77310000D02*
X105750000Y-72060000D01*
X111000000Y-83880000D02*
X111000000Y-77310000D01*
X102250000Y-72000000D02*
X95750000Y-72000000D01*
%TO.N,/RxD*%
X100615000Y-120500000D02*
X96250000Y-116135000D01*
X105850000Y-95590000D02*
X105850000Y-98889899D01*
X97489899Y-107250000D02*
X96500000Y-107250000D01*
X108770101Y-120500000D02*
X100615000Y-120500000D01*
X126020101Y-137750000D02*
X108770101Y-120500000D01*
X94500000Y-114385000D02*
X96250000Y-116135000D01*
X113010000Y-88430000D02*
X105850000Y-95590000D01*
X96500000Y-107250000D02*
X94500000Y-109250000D01*
X105850000Y-98889899D02*
X97489899Y-107250000D01*
X94500000Y-109250000D02*
X94500000Y-114385000D01*
X134880000Y-137750000D02*
X126020101Y-137750000D01*
%TO.N,/TxD*%
X102755000Y-120100000D02*
X108935787Y-120100000D01*
X106250000Y-99055585D02*
X97700000Y-107605585D01*
X113010000Y-90970000D02*
X111035686Y-90970000D01*
X96250000Y-113595000D02*
X102755000Y-120100000D01*
X111035686Y-90970000D02*
X106250000Y-95755686D01*
X124045787Y-135210000D02*
X134880000Y-135210000D01*
X97700000Y-113347081D02*
X97452081Y-113595000D01*
X106250000Y-95755686D02*
X106250000Y-99055585D01*
X97700000Y-107605585D02*
X97700000Y-113347081D01*
X108935787Y-120100000D02*
X124045787Y-135210000D01*
X97452081Y-113595000D02*
X96250000Y-113595000D01*
%TO.N,/IRQ_BTN*%
X113865635Y-87330000D02*
X105980000Y-87330000D01*
X102250000Y-87500000D02*
X95750000Y-87500000D01*
X102310000Y-87560000D02*
X102250000Y-87500000D01*
X114510000Y-87974365D02*
X113865635Y-87330000D01*
X105980000Y-87330000D02*
X105750000Y-87560000D01*
X105750000Y-87560000D02*
X102310000Y-87560000D01*
X113010000Y-93510000D02*
X114510000Y-92010000D01*
X114510000Y-92010000D02*
X114510000Y-87974365D01*
%TO.N,/X2*%
X112030000Y-107770000D02*
X113010000Y-108750000D01*
X106500000Y-107770000D02*
X112030000Y-107770000D01*
%TO.N,/X1*%
X106500000Y-112650000D02*
X111650000Y-112650000D01*
X111650000Y-112650000D02*
X113010000Y-111290000D01*
%TO.N,/A8*%
X131900000Y-117150000D02*
X128580000Y-113830000D01*
X162337256Y-117150000D02*
X131900000Y-117150000D01*
X128580000Y-113830000D02*
X128250000Y-113830000D01*
X176650000Y-102837256D02*
X162337256Y-117150000D01*
X176650000Y-78870000D02*
X176650000Y-102837256D01*
X171240000Y-73460000D02*
X176650000Y-78870000D01*
%TO.N,/A9*%
X162171570Y-116750000D02*
X134250000Y-116750000D01*
X128790000Y-111290000D02*
X128250000Y-111290000D01*
X171240000Y-76000000D02*
X176250000Y-81010000D01*
X176250000Y-102671570D02*
X162171570Y-116750000D01*
X176250000Y-81010000D02*
X176250000Y-102671570D01*
X134250000Y-116750000D02*
X128790000Y-111290000D01*
%TO.N,/A10*%
X136000000Y-108750000D02*
X128250000Y-108750000D01*
X171240000Y-83620000D02*
X175450000Y-87830000D01*
X143200000Y-115950000D02*
X136000000Y-108750000D01*
X161840198Y-115950000D02*
X143200000Y-115950000D01*
X175450000Y-102340198D02*
X161840198Y-115950000D01*
X175450000Y-87830000D02*
X175450000Y-102340198D01*
%TO.N,/A11*%
X126440000Y-110190000D02*
X125500000Y-109250000D01*
X171240000Y-78540000D02*
X175850000Y-83150000D01*
X132340000Y-110190000D02*
X126440000Y-110190000D01*
X126540000Y-106210000D02*
X128250000Y-106210000D01*
X138500000Y-116350000D02*
X132340000Y-110190000D01*
X175850000Y-83150000D02*
X175850000Y-102505884D01*
X125500000Y-107250000D02*
X126540000Y-106210000D01*
X125500000Y-109250000D02*
X125500000Y-107250000D01*
X162005884Y-116350000D02*
X138500000Y-116350000D01*
X175850000Y-102505884D02*
X162005884Y-116350000D01*
%TO.N,/A12*%
X172740000Y-99315635D02*
X168385635Y-103670000D01*
X172740000Y-98404365D02*
X172740000Y-99315635D01*
X157500000Y-69880000D02*
X157500000Y-84535635D01*
X156750000Y-108500000D02*
X153500000Y-108500000D01*
X170724365Y-97760000D02*
X172095635Y-97760000D01*
X156000000Y-68380000D02*
X157500000Y-69880000D01*
X168385635Y-103670000D02*
X128250000Y-103670000D01*
X157500000Y-84535635D02*
X170724365Y-97760000D01*
X172095635Y-97760000D02*
X172740000Y-98404365D01*
%TO.N,/A13*%
X170705686Y-87600000D02*
X172095635Y-87600000D01*
X126750000Y-102630000D02*
X128250000Y-101130000D01*
X156750000Y-107500000D02*
X153500000Y-107500000D01*
X166100000Y-76060000D02*
X166100000Y-82994314D01*
X172095635Y-87600000D02*
X173140000Y-88644365D01*
X173140000Y-88644365D02*
X173140000Y-99481321D01*
X127394365Y-104770000D02*
X126750000Y-104125635D01*
X173140000Y-99481321D02*
X167851321Y-104770000D01*
X126750000Y-104125635D02*
X126750000Y-102630000D01*
X166100000Y-82994314D02*
X170705686Y-87600000D01*
X167851321Y-104770000D02*
X127394365Y-104770000D01*
X171240000Y-70920000D02*
X166100000Y-76060000D01*
%TO.N,/A14*%
X156979899Y-100260000D02*
X129920000Y-100260000D01*
X156750000Y-106550003D02*
X153550003Y-106550003D01*
X153550003Y-106550003D02*
X153500000Y-106500000D01*
X158750000Y-68590000D02*
X158750000Y-84000000D01*
X158750000Y-98489899D02*
X156979899Y-100260000D01*
X156000000Y-65840000D02*
X158750000Y-68590000D01*
X158750000Y-98090000D02*
X158750000Y-98489899D01*
X129920000Y-100260000D02*
X128250000Y-98590000D01*
%TO.N,/A15*%
X156750000Y-105750000D02*
X153750000Y-105750000D01*
X153750000Y-105750000D02*
X153500000Y-105500000D01*
%TO.N,/D7*%
X120450000Y-114502942D02*
X120450000Y-93690000D01*
X165700000Y-65115686D02*
X169365686Y-61450000D01*
X123497058Y-117550000D02*
X120450000Y-114502942D01*
X169365686Y-61450000D02*
X174502942Y-61450000D01*
X177050000Y-63997058D02*
X177050000Y-103002942D01*
X171240000Y-88700000D02*
X165700000Y-83160000D01*
X177050000Y-103002942D02*
X162502942Y-117550000D01*
X138900000Y-85890000D02*
X139000000Y-85790000D01*
X165700000Y-83160000D02*
X165700000Y-65115686D01*
X120450000Y-93690000D02*
X128250000Y-85890000D01*
X162502942Y-117550000D02*
X123497058Y-117550000D01*
X174502942Y-61450000D02*
X177050000Y-63997058D01*
X128250000Y-85890000D02*
X138900000Y-85890000D01*
%TO.N,/D6*%
X120050000Y-114668628D02*
X120050000Y-91550000D01*
X162668628Y-117950000D02*
X123331372Y-117950000D01*
X177450000Y-98000000D02*
X177450000Y-103168628D01*
X123331372Y-117950000D02*
X120050000Y-114668628D01*
X177450000Y-103168628D02*
X162668628Y-117950000D01*
X171240000Y-91240000D02*
X165300000Y-85300000D01*
X169200000Y-61050000D02*
X174668628Y-61050000D01*
X120050000Y-91550000D02*
X128250000Y-83350000D01*
X174668628Y-61050000D02*
X177450000Y-63831372D01*
X128250000Y-83350000D02*
X138900000Y-83350000D01*
X138900000Y-83350000D02*
X139000000Y-83250000D01*
X177450000Y-63831372D02*
X177450000Y-98000000D01*
X165300000Y-64950000D02*
X169200000Y-61050000D01*
X165300000Y-85300000D02*
X165300000Y-64950000D01*
%TO.N,/D5*%
X164900000Y-64415686D02*
X168665686Y-60650000D01*
X171240000Y-93780000D02*
X164900000Y-87440000D01*
X174834314Y-60650000D02*
X177850000Y-63665686D01*
X177850000Y-103334314D02*
X162834314Y-118350000D01*
X138900000Y-80810000D02*
X139000000Y-80710000D01*
X128250000Y-80810000D02*
X138900000Y-80810000D01*
X177850000Y-63665686D02*
X177850000Y-103334314D01*
X164900000Y-87440000D02*
X164900000Y-64415686D01*
X162834314Y-118350000D02*
X123165686Y-118350000D01*
X168665686Y-60650000D02*
X174834314Y-60650000D01*
X119650000Y-89410000D02*
X128250000Y-80810000D01*
X119650000Y-114834314D02*
X119650000Y-89410000D01*
X123165686Y-118350000D02*
X119650000Y-114834314D01*
%TO.N,/D4*%
X178250000Y-103500000D02*
X163000000Y-118750000D01*
X178250000Y-63500000D02*
X178250000Y-103500000D01*
X163000000Y-118750000D02*
X123000000Y-118750000D01*
X123000000Y-118750000D02*
X119250000Y-115000000D01*
X128250000Y-78270000D02*
X138900000Y-78270000D01*
X164500000Y-64250000D02*
X168500000Y-60250000D01*
X138900000Y-78270000D02*
X139000000Y-78170000D01*
X119250000Y-115000000D02*
X119250000Y-87270000D01*
X119250000Y-87270000D02*
X128250000Y-78270000D01*
X164500000Y-89580000D02*
X164500000Y-64250000D01*
X175000000Y-60250000D02*
X178250000Y-63500000D01*
X171240000Y-96320000D02*
X164500000Y-89580000D01*
X168500000Y-60250000D02*
X175000000Y-60250000D01*
%TO.N,/D3*%
X171240000Y-98860000D02*
X169870000Y-97490000D01*
X144477259Y-97490000D02*
X140800000Y-93812741D01*
X169870000Y-97490000D02*
X144477259Y-97490000D01*
X138900000Y-75730000D02*
X139000000Y-75630000D01*
X140800000Y-77430000D02*
X139000000Y-75630000D01*
X140800000Y-93812741D02*
X140800000Y-77430000D01*
X128250000Y-75730000D02*
X138900000Y-75730000D01*
%TO.N,/D2*%
X143872944Y-96320000D02*
X141200000Y-93647056D01*
X138900000Y-73190000D02*
X139000000Y-73090000D01*
X128250000Y-73190000D02*
X138900000Y-73190000D01*
X141200000Y-75290000D02*
X139000000Y-73090000D01*
X141200000Y-93647056D02*
X141200000Y-75290000D01*
X156000000Y-96320000D02*
X143872944Y-96320000D01*
%TO.N,/D1*%
X143418628Y-95300000D02*
X141600000Y-93481371D01*
X156000000Y-93780000D02*
X154480000Y-95300000D01*
X128250000Y-70650000D02*
X138900000Y-70650000D01*
X154480000Y-95300000D02*
X143418628Y-95300000D01*
X141600000Y-93481371D02*
X141600000Y-73150000D01*
X141600000Y-73150000D02*
X139000000Y-70550000D01*
X138900000Y-70650000D02*
X139000000Y-70550000D01*
%TO.N,/D0*%
X152340000Y-94900000D02*
X143584314Y-94900000D01*
X128250000Y-68110000D02*
X138900000Y-68110000D01*
X142000000Y-71010000D02*
X139000000Y-68010000D01*
X156000000Y-91240000D02*
X152340000Y-94900000D01*
X142000000Y-93315686D02*
X142000000Y-71010000D01*
X138900000Y-68110000D02*
X139000000Y-68010000D01*
X143584314Y-94900000D02*
X142000000Y-93315686D01*
%TO.N,/A1*%
X146620000Y-70550000D02*
X142800000Y-74370000D01*
X143915686Y-94100000D02*
X148060000Y-94100000D01*
X148060000Y-94100000D02*
X156000000Y-86160000D01*
X142800000Y-92984314D02*
X143915686Y-94100000D01*
X142800000Y-74370000D02*
X142800000Y-92984314D01*
%TO.N,/A0*%
X142400000Y-93150000D02*
X143750000Y-94500000D01*
X142400000Y-72230000D02*
X142400000Y-93150000D01*
X178650000Y-63334314D02*
X175165686Y-59850000D01*
X154050000Y-88700000D02*
X156000000Y-88700000D01*
X148250000Y-94500000D02*
X154050000Y-88700000D01*
X154780000Y-59850000D02*
X146620000Y-68010000D01*
X178650000Y-91470000D02*
X178650000Y-63334314D01*
X175165686Y-59850000D02*
X154780000Y-59850000D01*
X184460000Y-97280000D02*
X178650000Y-91470000D01*
X146620000Y-68010000D02*
X142400000Y-72230000D01*
X143750000Y-94500000D02*
X148250000Y-94500000D01*
%TO.N,/A2*%
X144200000Y-93700000D02*
X147894314Y-93700000D01*
X146620000Y-73090000D02*
X143200000Y-76510000D01*
X151922157Y-89672157D02*
X151922157Y-87697843D01*
X143200000Y-76510000D02*
X143200000Y-92700000D01*
X147894314Y-93700000D02*
X151922157Y-89672157D01*
X151922157Y-87697843D02*
X156000000Y-83620000D01*
X143200000Y-92700000D02*
X144200000Y-93700000D01*
%TO.N,Net-(U4-~{RST})*%
X128500000Y-126290000D02*
X134880000Y-132670000D01*
X128500000Y-122500000D02*
X128500000Y-126290000D01*
%TO.N,Net-(U4-VUSB)*%
X142500000Y-132670000D02*
X145420000Y-132670000D01*
X145420000Y-132670000D02*
X145500000Y-132750000D01*
%TO.N,Net-(D1-A)*%
X102575000Y-90690000D02*
X99265000Y-94000000D01*
X104450000Y-90690000D02*
X102575000Y-90690000D01*
%TO.N,/A7*%
X144862744Y-92100000D02*
X147231570Y-92100000D01*
X144800000Y-92037256D02*
X144862744Y-92100000D01*
X146620000Y-85790000D02*
X144800000Y-87610000D01*
X150250000Y-76670000D02*
X156000000Y-70920000D01*
X150250000Y-89081570D02*
X150250000Y-76670000D01*
X147231570Y-92100000D02*
X150250000Y-89081570D01*
X144800000Y-87610000D02*
X144800000Y-92037256D01*
%TO.N,/A6*%
X150700000Y-89197256D02*
X150700000Y-78760000D01*
X150700000Y-78760000D02*
X156000000Y-73460000D01*
X144400000Y-92202942D02*
X144697058Y-92500000D01*
X146620000Y-83250000D02*
X144400000Y-85470000D01*
X144697058Y-92500000D02*
X147397256Y-92500000D01*
X147397256Y-92500000D02*
X150700000Y-89197256D01*
X144400000Y-85470000D02*
X144400000Y-92202942D01*
%TO.N,/A5*%
X144531372Y-92900000D02*
X147562942Y-92900000D01*
X144000000Y-83330000D02*
X144000000Y-92368628D01*
X146620000Y-80710000D02*
X144000000Y-83330000D01*
X151100000Y-89362942D02*
X151100000Y-80900000D01*
X144000000Y-92368628D02*
X144531372Y-92900000D01*
X147562942Y-92900000D02*
X151100000Y-89362942D01*
X151100000Y-80900000D02*
X156000000Y-76000000D01*
%TO.N,/A4*%
X143600000Y-92534314D02*
X144365686Y-93300000D01*
X143600000Y-80790000D02*
X143600000Y-92534314D01*
X146620000Y-78170000D02*
X146220000Y-78170000D01*
X144365686Y-93300000D02*
X147728628Y-93300000D01*
X151500000Y-83040000D02*
X156000000Y-78540000D01*
X146220000Y-78170000D02*
X143600000Y-80790000D01*
X147728628Y-93300000D02*
X151500000Y-89528628D01*
X151500000Y-89528628D02*
X151500000Y-83040000D01*
%TO.N,/A3*%
X162000000Y-79250000D02*
X162000000Y-72250000D01*
X160250000Y-81000000D02*
X162000000Y-79250000D01*
%TD*%
M02*
