%TF.GenerationSoftware,KiCad,Pcbnew,10.0.6*%
%TF.CreationDate,2026-10-02T12:35:44-04:00*%
%TF.ProjectId,sbc_89c51,7362635f-3839-4633-9531-2e6b69636164,rev?*%
%TF.SameCoordinates,Original*%
%TF.FileFunction,Copper,L4,Bot*%
%TF.FilePolarity,Positive*%
%FSLAX46Y46*%
G04 Gerber Fmt 4.6, Leading zero omitted, Abs format (unit mm)*
G04 Created by KiCad (PCBNEW 10.0.6) date 2026-10-02 12:35:44*
%MOMM*%
%LPD*%
G01*
G04 APERTURE LIST*
G04 Aperture macros list*
%AMRoundRect*
0 Rectangle with rounded corners*
0 $1 Rounding radius*
0 $2 $3 $4 $5 $6 $7 $8 $9 X,Y pos of 4 corners*
0 Add a 4 corners polygon primitive as box body*
4,1,4,$2,$3,$4,$5,$6,$7,$8,$9,$2,$3,0*
0 Add four circle primitives for the rounded corners*
1,1,$1+$1,$2,$3*
1,1,$1+$1,$4,$5*
1,1,$1+$1,$6,$7*
1,1,$1+$1,$8,$9*
0 Add four rect primitives between the rounded corners*
20,1,$1+$1,$2,$3,$4,$5,0*
20,1,$1+$1,$4,$5,$6,$7,0*
20,1,$1+$1,$6,$7,$8,$9,0*
20,1,$1+$1,$8,$9,$2,$3,0*%
G04 Aperture macros list end*
%TA.AperFunction,ComponentPad*%
%ADD10R,2.000000X2.000000*%
%TD*%
%TA.AperFunction,ComponentPad*%
%ADD11C,2.000000*%
%TD*%
%TA.AperFunction,ComponentPad*%
%ADD12RoundRect,0.250000X-0.950000X-0.550000X0.950000X-0.550000X0.950000X0.550000X-0.950000X0.550000X0*%
%TD*%
%TA.AperFunction,ComponentPad*%
%ADD13O,2.400000X1.600000*%
%TD*%
%TA.AperFunction,ComponentPad*%
%ADD14RoundRect,0.250000X-0.600000X-0.600000X0.600000X-0.600000X0.600000X0.600000X-0.600000X0.600000X0*%
%TD*%
%TA.AperFunction,ComponentPad*%
%ADD15C,1.700000*%
%TD*%
%TA.AperFunction,ComponentPad*%
%ADD16C,1.600000*%
%TD*%
%TA.AperFunction,ComponentPad*%
%ADD17RoundRect,0.250000X-0.550000X-0.550000X0.550000X-0.550000X0.550000X0.550000X-0.550000X0.550000X0*%
%TD*%
%TA.AperFunction,ComponentPad*%
%ADD18RoundRect,0.250000X-0.550000X0.550000X-0.550000X-0.550000X0.550000X-0.550000X0.550000X0.550000X0*%
%TD*%
%TA.AperFunction,ComponentPad*%
%ADD19C,4.000000*%
%TD*%
%TA.AperFunction,ComponentPad*%
%ADD20R,1.700000X1.700000*%
%TD*%
%TA.AperFunction,ComponentPad*%
%ADD21R,1.800000X1.800000*%
%TD*%
%TA.AperFunction,ComponentPad*%
%ADD22C,1.800000*%
%TD*%
%TA.AperFunction,ComponentPad*%
%ADD23R,1.300000X1.300000*%
%TD*%
%TA.AperFunction,ComponentPad*%
%ADD24C,1.300000*%
%TD*%
%TA.AperFunction,ComponentPad*%
%ADD25C,1.500000*%
%TD*%
%TA.AperFunction,ViaPad*%
%ADD26C,0.600000*%
%TD*%
%TA.AperFunction,Conductor*%
%ADD27C,0.200000*%
%TD*%
G04 APERTURE END LIST*
D10*
%TO.P,BZ1,1,+_1*%
%TO.N,VCC*%
X104010000Y-56000000D03*
D11*
%TO.P,BZ1,2,-_2*%
%TO.N,Net-(BZ1--)*%
X111610000Y-56000000D03*
%TD*%
D12*
%TO.P,U1,1,T2/P1.0_1*%
%TO.N,/RST_IDE*%
X113010000Y-65570000D03*
D13*
%TO.P,U1,2,T2EX/P1.1_2*%
%TO.N,/BUZZER*%
X113010000Y-68110000D03*
%TO.P,U1,3,P1.2_3*%
%TO.N,/USER_BTN*%
X113010000Y-70650000D03*
%TO.P,U1,4,P1.3_4*%
%TO.N,/USER_LED*%
X113010000Y-73190000D03*
%TO.P,U1,5,P1.4_5*%
%TO.N,unconnected-(U1-P1.4-Pad5)*%
X113010000Y-75730000D03*
%TO.P,U1,6,P1.5_6*%
%TO.N,unconnected-(U1-P1.5-Pad6)*%
X113010000Y-78270000D03*
%TO.P,U1,7,P1.6_7*%
%TO.N,unconnected-(U1-P1.6-Pad7)*%
X113010000Y-80810000D03*
%TO.P,U1,8,P1.7_8*%
%TO.N,unconnected-(U1-P1.7-Pad8)*%
X113010000Y-83350000D03*
%TO.P,U1,9,RST_9*%
%TO.N,Net-(U1-RST)*%
X113010000Y-85890000D03*
%TO.P,U1,10,P3.0/RxD_10*%
%TO.N,/RxD*%
X113010000Y-88430000D03*
%TO.P,U1,11,P3.1/TxD_11*%
%TO.N,/TxD*%
X113010000Y-90970000D03*
%TO.P,U1,12,P3.2/INT0_12*%
%TO.N,/IRQ_BTN*%
X113010000Y-93510000D03*
%TO.P,U1,13,P3.3/INT1_13*%
%TO.N,unconnected-(U1-P3.3{slash}INT1-Pad13)*%
X113010000Y-96050000D03*
%TO.P,U1,14,P3.4/T0_14*%
%TO.N,unconnected-(U1-P3.4{slash}T0-Pad14)*%
X113010000Y-98590000D03*
%TO.P,U1,15,P3.5/T1_15*%
%TO.N,unconnected-(U1-P3.5{slash}T1-Pad15)*%
X113010000Y-101130000D03*
%TO.P,U1,16,P3.6/WR_16*%
%TO.N,/WR*%
X113010000Y-103670000D03*
%TO.P,U1,17,P3.7/RD_17*%
%TO.N,/RD*%
X113010000Y-106210000D03*
%TO.P,U1,18,XTAL2_18*%
%TO.N,/X2*%
X113010000Y-108750000D03*
%TO.P,U1,19,XTAL1_19*%
%TO.N,/X1*%
X113010000Y-111290000D03*
%TO.P,U1,20,GND_20*%
%TO.N,GND*%
X113010000Y-113830000D03*
%TO.P,U1,21,A8/P2.0_21*%
%TO.N,/A8*%
X128250000Y-113830000D03*
%TO.P,U1,22,A9/P2.1_22*%
%TO.N,/A9*%
X128250000Y-111290000D03*
%TO.P,U1,23,A10/P2.2_23*%
%TO.N,/A10*%
X128250000Y-108750000D03*
%TO.P,U1,24,A11/P2.3_24*%
%TO.N,/A11*%
X128250000Y-106210000D03*
%TO.P,U1,25,A12/P2.4_25*%
%TO.N,/A12*%
X128250000Y-103670000D03*
%TO.P,U1,26,A13/P2.5_26*%
%TO.N,/A13*%
X128250000Y-101130000D03*
%TO.P,U1,27,A14/P2.6_27*%
%TO.N,/A14*%
X128250000Y-98590000D03*
%TO.P,U1,28,A15/P2.7_28*%
%TO.N,/A15*%
X128250000Y-96050000D03*
%TO.P,U1,29,PSEN_29*%
%TO.N,/PSEN*%
X128250000Y-93510000D03*
%TO.P,U1,30,ALE_30*%
%TO.N,/ALE*%
X128250000Y-90970000D03*
%TO.P,U1,31,EA_31*%
%TO.N,VCC*%
X128250000Y-88430000D03*
%TO.P,U1,32,AD7/P0.7_32*%
%TO.N,/D7*%
X128250000Y-85890000D03*
%TO.P,U1,33,AD6/P0.6_33*%
%TO.N,/D6*%
X128250000Y-83350000D03*
%TO.P,U1,34,AD5/P0.5_34*%
%TO.N,/D5*%
X128250000Y-80810000D03*
%TO.P,U1,35,AD4/P0.4_35*%
%TO.N,/D4*%
X128250000Y-78270000D03*
%TO.P,U1,36,AD3/P0.3_36*%
%TO.N,/D3*%
X128250000Y-75730000D03*
%TO.P,U1,37,AD2/P0.2_37*%
%TO.N,/D2*%
X128250000Y-73190000D03*
%TO.P,U1,38,AD1/P0.1_38*%
%TO.N,/D1*%
X128250000Y-70650000D03*
%TO.P,U1,39,AD0/P0.0_39*%
%TO.N,/D0*%
X128250000Y-68110000D03*
%TO.P,U1,40,VCC_40*%
%TO.N,/MCU_PWR*%
X128250000Y-65570000D03*
%TD*%
D14*
%TO.P,J2,1,Pin_1_1*%
%TO.N,/RST_IDE*%
X184460000Y-54100000D03*
D15*
%TO.P,J2,2,Pin_2_2*%
%TO.N,GND*%
X187000000Y-54100000D03*
%TO.P,J2,3,Pin_3_3*%
%TO.N,/D7*%
X184460000Y-56640000D03*
%TO.P,J2,4,Pin_4_4*%
%TO.N,GND*%
X187000000Y-56640000D03*
%TO.P,J2,5,Pin_5_5*%
%TO.N,/D6*%
X184460000Y-59180000D03*
%TO.P,J2,6,Pin_6_6*%
%TO.N,GND*%
X187000000Y-59180000D03*
%TO.P,J2,7,Pin_7_7*%
%TO.N,/D5*%
X184460000Y-61720000D03*
%TO.P,J2,8,Pin_8_8*%
%TO.N,GND*%
X187000000Y-61720000D03*
%TO.P,J2,9,Pin_9_9*%
%TO.N,/D4*%
X184460000Y-64260000D03*
%TO.P,J2,10,Pin_10_10*%
%TO.N,GND*%
X187000000Y-64260000D03*
%TO.P,J2,11,Pin_11_11*%
%TO.N,/D3*%
X184460000Y-66800000D03*
%TO.P,J2,12,Pin_12_12*%
%TO.N,GND*%
X187000000Y-66800000D03*
%TO.P,J2,13,Pin_13_13*%
%TO.N,/D2*%
X184460000Y-69340000D03*
%TO.P,J2,14,Pin_14_14*%
%TO.N,GND*%
X187000000Y-69340000D03*
%TO.P,J2,15,Pin_15_15*%
%TO.N,/D1*%
X184460000Y-71880000D03*
%TO.P,J2,16,Pin_16_16*%
%TO.N,GND*%
X187000000Y-71880000D03*
%TO.P,J2,17,Pin_17_17*%
%TO.N,/D0*%
X184460000Y-74420000D03*
%TO.P,J2,18,Pin_18_18*%
%TO.N,GND*%
X187000000Y-74420000D03*
%TO.P,J2,19,Pin_19_19*%
X184460000Y-76960000D03*
%TO.P,J2,20,Pin_20_20*%
%TO.N,VCC*%
X187000000Y-76960000D03*
%TO.P,J2,21,Pin_21_21*%
%TO.N,unconnected-(J2-Pin_21-Pad21)*%
X184460000Y-79500000D03*
%TO.P,J2,22,Pin_22_22*%
%TO.N,GND*%
X187000000Y-79500000D03*
%TO.P,J2,23,Pin_23_23*%
%TO.N,/WR*%
X184460000Y-82040000D03*
%TO.P,J2,24,Pin_24_24*%
%TO.N,GND*%
X187000000Y-82040000D03*
%TO.P,J2,25,Pin_25_25*%
%TO.N,/RD*%
X184460000Y-84580000D03*
%TO.P,J2,26,Pin_26_26*%
%TO.N,GND*%
X187000000Y-84580000D03*
%TO.P,J2,27,Pin_27_27*%
%TO.N,unconnected-(J2-Pin_27-Pad27)*%
X184460000Y-87120000D03*
%TO.P,J2,28,Pin_28_28*%
%TO.N,unconnected-(J2-Pin_28-Pad28)*%
X187000000Y-87120000D03*
%TO.P,J2,29,Pin_29_29*%
%TO.N,unconnected-(J2-Pin_29-Pad29)*%
X184460000Y-89660000D03*
%TO.P,J2,30,Pin_30_30*%
%TO.N,GND*%
X187000000Y-89660000D03*
%TO.P,J2,31,Pin_31_31*%
%TO.N,unconnected-(J2-Pin_31-Pad31)*%
X184460000Y-92200000D03*
%TO.P,J2,32,Pin_32_32*%
%TO.N,unconnected-(J2-Pin_32-Pad32)*%
X187000000Y-92200000D03*
%TO.P,J2,33,Pin_33_33*%
%TO.N,/A1*%
X184460000Y-94740000D03*
%TO.P,J2,34,Pin_34_34*%
%TO.N,unconnected-(J2-Pin_34-Pad34)*%
X187000000Y-94740000D03*
%TO.P,J2,35,Pin_35_35*%
%TO.N,/A0*%
X184460000Y-97280000D03*
%TO.P,J2,36,Pin_36_36*%
%TO.N,/A2*%
X187000000Y-97280000D03*
%TO.P,J2,37,Pin_37_37*%
%TO.N,/CS0*%
X184460000Y-99820000D03*
%TO.P,J2,38,Pin_38_38*%
%TO.N,/CS1*%
X187000000Y-99820000D03*
%TO.P,J2,39,Pin_39_39*%
%TO.N,unconnected-(J2-Pin_39-Pad39)*%
X184460000Y-102360000D03*
%TO.P,J2,40,Pin_40_40*%
%TO.N,unconnected-(J2-Pin_40-Pad40)*%
X187000000Y-102360000D03*
%TD*%
%TO.P,SW1,1,1_1*%
%TO.N,VCC*%
X95750000Y-67500000D03*
X102250000Y-67500000D03*
%TO.P,SW1,2,2_2*%
%TO.N,Net-(U1-RST)*%
X95750000Y-72000000D03*
X102250000Y-72000000D03*
%TD*%
%TO.P,SW2,1,1_1*%
%TO.N,GND*%
X95750000Y-75250000D03*
X102250000Y-75250000D03*
%TO.P,SW2,2,2_2*%
%TO.N,/USER_BTN*%
X95750000Y-79750000D03*
X102250000Y-79750000D03*
%TD*%
D16*
%TO.P,C3,1*%
%TO.N,VCC*%
X133000000Y-89750000D03*
%TO.P,C3,2*%
%TO.N,GND*%
X133000000Y-87250000D03*
%TD*%
D12*
%TO.P,U4,1,VDD_1*%
%TO.N,VCC*%
X134880000Y-125050000D03*
D13*
%TO.P,U4,2,GP0_2*%
%TO.N,unconnected-(U4-GP0-Pad2)*%
X134880000Y-127590000D03*
%TO.P,U4,3,GP1_3*%
%TO.N,unconnected-(U4-GP1-Pad3)*%
X134880000Y-130130000D03*
%TO.P,U4,4,~{RST}_4*%
%TO.N,Net-(U4-~{RST})*%
X134880000Y-132670000D03*
%TO.P,U4,5,URx_5*%
%TO.N,/TxD*%
X134880000Y-135210000D03*
%TO.P,U4,6,UTx_6*%
%TO.N,/RxD*%
X134880000Y-137750000D03*
%TO.P,U4,7,GP2_7*%
%TO.N,unconnected-(U4-GP2-Pad7)*%
X134880000Y-140290000D03*
%TO.P,U4,8,GP3_8*%
%TO.N,unconnected-(U4-GP3-Pad8)*%
X142500000Y-140290000D03*
%TO.P,U4,9,SDA_9*%
%TO.N,unconnected-(U4-SDA-Pad9)*%
X142500000Y-137750000D03*
%TO.P,U4,10,SCL_10*%
%TO.N,unconnected-(U4-SCL-Pad10)*%
X142500000Y-135210000D03*
%TO.P,U4,11,VUSB_11*%
%TO.N,Net-(U4-VUSB)*%
X142500000Y-132670000D03*
%TO.P,U4,12,D-_12*%
%TO.N,Net-(J4-D-)*%
X142500000Y-130130000D03*
%TO.P,U4,13,D+_13*%
%TO.N,Net-(J4-D+)*%
X142500000Y-127590000D03*
%TO.P,U4,14,VSS_14*%
%TO.N,GND*%
X142500000Y-125050000D03*
%TD*%
D17*
%TO.P,C9,1*%
%TO.N,VCC*%
X183750000Y-112250000D03*
D16*
%TO.P,C9,2*%
%TO.N,GND*%
X185750000Y-112250000D03*
%TD*%
%TO.P,C12,1*%
%TO.N,GND*%
X107750000Y-117500000D03*
%TO.P,C12,2*%
%TO.N,/X1*%
X105250000Y-117500000D03*
%TD*%
%TO.P,C8,1*%
%TO.N,VCC*%
X163000000Y-125000000D03*
%TO.P,C8,2*%
%TO.N,GND*%
X163000000Y-127500000D03*
%TD*%
D18*
%TO.P,J4,1,VBUS_1*%
%TO.N,/VBUS*%
X107860000Y-134500000D03*
D16*
%TO.P,J4,2,D-_2*%
%TO.N,Net-(J4-D-)*%
X107860000Y-132000000D03*
%TO.P,J4,3,D+_3*%
%TO.N,Net-(J4-D+)*%
X105860000Y-132000000D03*
%TO.P,J4,4,GND_4*%
%TO.N,GND*%
X105860000Y-134500000D03*
D19*
%TO.P,J4,SH,Shield_SH*%
X103000000Y-139250000D03*
X103000000Y-127250000D03*
%TD*%
D15*
%TO.P,SW3,1,1_1*%
%TO.N,GND*%
X95750000Y-83000000D03*
X102250000Y-83000000D03*
%TO.P,SW3,2,2_2*%
%TO.N,/IRQ_BTN*%
X95750000Y-87500000D03*
X102250000Y-87500000D03*
%TD*%
D16*
%TO.P,R4,1*%
%TO.N,/USER_LED*%
X108500000Y-98310000D03*
%TO.P,R4,2*%
%TO.N,Net-(D2-A)*%
X108500000Y-90690000D03*
%TD*%
%TO.P,R3,1*%
%TO.N,VCC*%
X104450000Y-98310000D03*
%TO.P,R3,2*%
%TO.N,Net-(D1-A)*%
X104450000Y-90690000D03*
%TD*%
D12*
%TO.P,U3,1,A14_1*%
%TO.N,/A14*%
X156000000Y-65840000D03*
D13*
%TO.P,U3,2,A12_2*%
%TO.N,/A12*%
X156000000Y-68380000D03*
%TO.P,U3,3,A7_3*%
%TO.N,/A7*%
X156000000Y-70920000D03*
%TO.P,U3,4,A6_4*%
%TO.N,/A6*%
X156000000Y-73460000D03*
%TO.P,U3,5,A5_5*%
%TO.N,/A5*%
X156000000Y-76000000D03*
%TO.P,U3,6,A4_6*%
%TO.N,/A4*%
X156000000Y-78540000D03*
%TO.P,U3,7,A3_7*%
%TO.N,/A3*%
X156000000Y-81080000D03*
%TO.P,U3,8,A2_8*%
%TO.N,/A2*%
X156000000Y-83620000D03*
%TO.P,U3,9,A1_9*%
%TO.N,/A1*%
X156000000Y-86160000D03*
%TO.P,U3,10,A0_10*%
%TO.N,/A0*%
X156000000Y-88700000D03*
%TO.P,U3,11,Q0_11*%
%TO.N,/D0*%
X156000000Y-91240000D03*
%TO.P,U3,12,Q1_12*%
%TO.N,/D1*%
X156000000Y-93780000D03*
%TO.P,U3,13,Q2_13*%
%TO.N,/D2*%
X156000000Y-96320000D03*
%TO.P,U3,14,GND_14*%
%TO.N,GND*%
X156000000Y-98860000D03*
%TO.P,U3,15,Q3_15*%
%TO.N,/D3*%
X171240000Y-98860000D03*
%TO.P,U3,16,Q4_16*%
%TO.N,/D4*%
X171240000Y-96320000D03*
%TO.P,U3,17,Q5_17*%
%TO.N,/D5*%
X171240000Y-93780000D03*
%TO.P,U3,18,Q6_18*%
%TO.N,/D6*%
X171240000Y-91240000D03*
%TO.P,U3,19,Q7_19*%
%TO.N,/D7*%
X171240000Y-88700000D03*
%TO.P,U3,20,~{CS}_20*%
%TO.N,Net-(U3-~{CS})*%
X171240000Y-86160000D03*
%TO.P,U3,21,A10_21*%
%TO.N,/A10*%
X171240000Y-83620000D03*
%TO.P,U3,22,~{OE}_22*%
%TO.N,Net-(U3-~{OE})*%
X171240000Y-81080000D03*
%TO.P,U3,23,A11_23*%
%TO.N,/A11*%
X171240000Y-78540000D03*
%TO.P,U3,24,A9_24*%
%TO.N,/A9*%
X171240000Y-76000000D03*
%TO.P,U3,25,A8_25*%
%TO.N,/A8*%
X171240000Y-73460000D03*
%TO.P,U3,26,A13_26*%
%TO.N,/A13*%
X171240000Y-70920000D03*
%TO.P,U3,27,~{WE}_27*%
%TO.N,/WR*%
X171240000Y-68380000D03*
%TO.P,U3,28,VCC_28*%
%TO.N,VCC*%
X171240000Y-65840000D03*
%TD*%
D12*
%TO.P,U2,1,OE_1*%
%TO.N,GND*%
X139000000Y-65470000D03*
D13*
%TO.P,U2,2,D0_2*%
%TO.N,/D0*%
X139000000Y-68010000D03*
%TO.P,U2,3,D1_3*%
%TO.N,/D1*%
X139000000Y-70550000D03*
%TO.P,U2,4,D2_4*%
%TO.N,/D2*%
X139000000Y-73090000D03*
%TO.P,U2,5,D3_5*%
%TO.N,/D3*%
X139000000Y-75630000D03*
%TO.P,U2,6,D4_6*%
%TO.N,/D4*%
X139000000Y-78170000D03*
%TO.P,U2,7,D5_7*%
%TO.N,/D5*%
X139000000Y-80710000D03*
%TO.P,U2,8,D6_8*%
%TO.N,/D6*%
X139000000Y-83250000D03*
%TO.P,U2,9,D7_9*%
%TO.N,/D7*%
X139000000Y-85790000D03*
%TO.P,U2,10,GND_10*%
%TO.N,GND*%
X139000000Y-88330000D03*
%TO.P,U2,11,Load_11*%
%TO.N,/ALE*%
X146620000Y-88330000D03*
%TO.P,U2,12,Q7_12*%
%TO.N,/A7*%
X146620000Y-85790000D03*
%TO.P,U2,13,Q6_13*%
%TO.N,/A6*%
X146620000Y-83250000D03*
%TO.P,U2,14,Q5_14*%
%TO.N,/A5*%
X146620000Y-80710000D03*
%TO.P,U2,15,Q4_15*%
%TO.N,/A4*%
X146620000Y-78170000D03*
%TO.P,U2,16,Q3_16*%
%TO.N,/A3*%
X146620000Y-75630000D03*
%TO.P,U2,17,Q2_17*%
%TO.N,/A2*%
X146620000Y-73090000D03*
%TO.P,U2,18,Q1_18*%
%TO.N,/A1*%
X146620000Y-70550000D03*
%TO.P,U2,19,Q0_19*%
%TO.N,/A0*%
X146620000Y-68010000D03*
%TO.P,U2,20,VCC_20*%
%TO.N,VCC*%
X146620000Y-65470000D03*
%TD*%
D16*
%TO.P,C11,1*%
%TO.N,Net-(U4-VUSB)*%
X145500000Y-132750000D03*
%TO.P,C11,2*%
%TO.N,GND*%
X145500000Y-130250000D03*
%TD*%
%TO.P,C4,1*%
%TO.N,VCC*%
X138000000Y-62500000D03*
%TO.P,C4,2*%
%TO.N,GND*%
X140500000Y-62500000D03*
%TD*%
D12*
%TO.P,U6,1,A0_1*%
%TO.N,/A12*%
X169880000Y-121760000D03*
D13*
%TO.P,U6,2,A1_2*%
%TO.N,/A13*%
X169880000Y-124300000D03*
%TO.P,U6,3,A2_3*%
%TO.N,/A14*%
X169880000Y-126840000D03*
%TO.P,U6,4,~{E0}_4*%
%TO.N,/A15*%
X169880000Y-129380000D03*
%TO.P,U6,5,~{E1}_5*%
%TO.N,GND*%
X169880000Y-131920000D03*
%TO.P,U6,6,E2_6*%
%TO.N,VCC*%
X169880000Y-134460000D03*
%TO.P,U6,7,~{Y7}_7*%
%TO.N,unconnected-(U6-~{Y7}-Pad7)*%
X169880000Y-137000000D03*
%TO.P,U6,8,GND_8*%
%TO.N,GND*%
X169880000Y-139540000D03*
%TO.P,U6,9,~{Y6}_9*%
%TO.N,unconnected-(U6-~{Y6}-Pad9)*%
X177500000Y-139540000D03*
%TO.P,U6,10,~{Y5}_10*%
%TO.N,/CS1*%
X177500000Y-137000000D03*
%TO.P,U6,11,~{Y4}_11*%
%TO.N,/CS0*%
X177500000Y-134460000D03*
%TO.P,U6,12,~{Y3}_12*%
%TO.N,unconnected-(U6-~{Y3}-Pad12)*%
X177500000Y-131920000D03*
%TO.P,U6,13,~{Y2}_13*%
%TO.N,unconnected-(U6-~{Y2}-Pad13)*%
X177500000Y-129380000D03*
%TO.P,U6,14,~{Y1}_14*%
%TO.N,unconnected-(U6-~{Y1}-Pad14)*%
X177500000Y-126840000D03*
%TO.P,U6,15,~{Y0}_15*%
%TO.N,unconnected-(U6-~{Y0}-Pad15)*%
X177500000Y-124300000D03*
%TO.P,U6,16,VCC_16*%
%TO.N,VCC*%
X177500000Y-121760000D03*
%TD*%
D20*
%TO.P,SW4,1,A_1*%
%TO.N,VCC*%
X123705000Y-142295000D03*
D15*
%TO.P,SW4,2,B_2*%
%TO.N,/VBUS*%
X121165000Y-142295000D03*
%TO.P,SW4,3,C_3*%
%TO.N,unconnected-(SW4-C-Pad3)*%
X118625000Y-142295000D03*
%TD*%
D16*
%TO.P,R5,1*%
%TO.N,VCC*%
X105750000Y-79940000D03*
%TO.P,R5,2*%
%TO.N,/IRQ_BTN*%
X105750000Y-87560000D03*
%TD*%
D12*
%TO.P,U5,1*%
%TO.N,/PSEN*%
X152380000Y-125010000D03*
D13*
%TO.P,U5,2*%
%TO.N,/RD*%
X152380000Y-127550000D03*
%TO.P,U5,3*%
%TO.N,Net-(U5-Pad3)*%
X152380000Y-130090000D03*
%TO.P,U5,4*%
X152380000Y-132630000D03*
%TO.P,U5,5*%
X152380000Y-135170000D03*
%TO.P,U5,6*%
%TO.N,Net-(U3-~{OE})*%
X152380000Y-137710000D03*
%TO.P,U5,7,GND_7*%
%TO.N,GND*%
X152380000Y-140250000D03*
%TO.P,U5,8*%
%TO.N,Net-(U3-~{CS})*%
X160000000Y-140250000D03*
%TO.P,U5,9*%
%TO.N,/A15*%
X160000000Y-137710000D03*
%TO.P,U5,10*%
X160000000Y-135170000D03*
%TO.P,U5,11*%
%TO.N,unconnected-(U5-Pad11)*%
X160000000Y-132630000D03*
%TO.P,U5,12*%
%TO.N,GND*%
X160000000Y-130090000D03*
%TO.P,U5,13*%
X160000000Y-127550000D03*
%TO.P,U5,14,VCC_14*%
%TO.N,VCC*%
X160000000Y-125010000D03*
%TD*%
D16*
%TO.P,R1,1*%
%TO.N,VCC*%
X120880000Y-122500000D03*
%TO.P,R1,2*%
%TO.N,Net-(U4-~{RST})*%
X128500000Y-122500000D03*
%TD*%
%TO.P,C2,1*%
%TO.N,VCC*%
X111250000Y-138500000D03*
%TO.P,C2,2*%
%TO.N,GND*%
X113750000Y-138500000D03*
%TD*%
D17*
%TO.P,D3,1,K_1*%
%TO.N,Net-(BZ1--)*%
X123440000Y-51250000D03*
D16*
%TO.P,D3,2,A_2*%
%TO.N,Net-(D3-A)*%
X131060000Y-51250000D03*
%TD*%
D20*
%TO.P,J3,1,Pin_1_1*%
%TO.N,/MCU_PWR*%
X131725000Y-66000000D03*
D15*
%TO.P,J3,2,Pin_2_2*%
%TO.N,VCC*%
X134265000Y-66000000D03*
%TD*%
D21*
%TO.P,D2,1,K_1*%
%TO.N,GND*%
X96725000Y-101470000D03*
D22*
%TO.P,D2,2,A_2*%
%TO.N,Net-(D2-A)*%
X99265000Y-101470000D03*
%TD*%
D16*
%TO.P,R6,1*%
%TO.N,/BUZZER*%
X131060000Y-55750000D03*
%TO.P,R6,2*%
%TO.N,Net-(Q1-B)*%
X123440000Y-55750000D03*
%TD*%
D21*
%TO.P,D1,1,K_1*%
%TO.N,GND*%
X96725000Y-94000000D03*
D22*
%TO.P,D1,2,A_2*%
%TO.N,Net-(D1-A)*%
X99265000Y-94000000D03*
%TD*%
D16*
%TO.P,C7,1*%
%TO.N,VCC*%
X134000000Y-122000000D03*
%TO.P,C7,2*%
%TO.N,GND*%
X136500000Y-122000000D03*
%TD*%
%TO.P,C6,1*%
%TO.N,VCC*%
X167000000Y-135750000D03*
%TO.P,C6,2*%
%TO.N,GND*%
X167000000Y-138250000D03*
%TD*%
%TO.P,C10,1*%
%TO.N,VCC*%
X179250000Y-52500000D03*
%TO.P,C10,2*%
%TO.N,GND*%
X179250000Y-50000000D03*
%TD*%
D23*
%TO.P,Q1,1,B_1*%
%TO.N,Net-(Q1-B)*%
X117270000Y-53500000D03*
D24*
%TO.P,Q1,2,C_2*%
%TO.N,Net-(D3-A)*%
X118540000Y-52230000D03*
%TO.P,Q1,3,E_3*%
%TO.N,GND*%
X119810000Y-53500000D03*
%TD*%
D20*
%TO.P,J1,1,Pin_1_1*%
%TO.N,GND*%
X96250000Y-111055000D03*
D15*
%TO.P,J1,2,Pin_2_2*%
%TO.N,/TxD*%
X96250000Y-113595000D03*
%TO.P,J1,3,Pin_3_3*%
%TO.N,/RxD*%
X96250000Y-116135000D03*
%TD*%
D16*
%TO.P,C13,1*%
%TO.N,GND*%
X107750000Y-102500000D03*
%TO.P,C13,2*%
%TO.N,/X2*%
X105250000Y-102500000D03*
%TD*%
D17*
%TO.P,C1,1*%
%TO.N,VCC*%
X111750000Y-132500000D03*
D16*
%TO.P,C1,2*%
%TO.N,GND*%
X113750000Y-132500000D03*
%TD*%
%TO.P,R2,1*%
%TO.N,GND*%
X105750000Y-64440000D03*
%TO.P,R2,2*%
%TO.N,Net-(U1-RST)*%
X105750000Y-72060000D03*
%TD*%
D25*
%TO.P,Y1,1,1_1*%
%TO.N,/X1*%
X106500000Y-112650000D03*
%TO.P,Y1,2,2_2*%
%TO.N,/X2*%
X106500000Y-107770000D03*
%TD*%
D16*
%TO.P,C5,1*%
%TO.N,VCC*%
X170500000Y-63000000D03*
%TO.P,C5,2*%
%TO.N,GND*%
X173000000Y-63000000D03*
%TD*%
%TO.P,R7,1*%
%TO.N,VCC*%
X171190000Y-57000000D03*
%TO.P,R7,2*%
%TO.N,/RST_IDE*%
X178810000Y-57000000D03*
%TD*%
D26*
%TO.N,/A12*%
X153500000Y-108500000D03*
X156750000Y-108500000D03*
%TO.N,/A13*%
X156750000Y-107500000D03*
X153500000Y-107500000D03*
%TO.N,/A14*%
X158750000Y-84000000D03*
X156750000Y-106550003D03*
X158750000Y-98090000D03*
X153500000Y-106500000D03*
%TO.N,/A15*%
X156750000Y-105750000D03*
X153500000Y-105500000D03*
%TO.N,/A3*%
X162000000Y-72250000D03*
X160250000Y-81000000D03*
%TD*%
%TO.N,Net-(BZ1--)*%
D27*
X116360000Y-51250000D02*
X123440000Y-51250000D01*
X111610000Y-56000000D02*
X116360000Y-51250000D01*
%TO.N,/RST_IDE*%
X178810000Y-57000000D02*
X181560000Y-57000000D01*
X121060000Y-59500000D02*
X114990000Y-65570000D01*
X134000000Y-58750000D02*
X133250000Y-59500000D01*
X184460000Y-54100000D02*
X179810000Y-58750000D01*
X114990000Y-65570000D02*
X113010000Y-65570000D01*
X133250000Y-59500000D02*
X121060000Y-59500000D01*
X179810000Y-58750000D02*
X134000000Y-58750000D01*
X181560000Y-57000000D02*
X184460000Y-54100000D01*
%TO.N,/BUZZER*%
X110500000Y-65600000D02*
X110500000Y-64785256D01*
X110500000Y-64785256D02*
X117535256Y-57750000D01*
X129060000Y-57750000D02*
X131060000Y-55750000D01*
X117535256Y-57750000D02*
X129060000Y-57750000D01*
X113010000Y-68110000D02*
X110500000Y-65600000D01*
%TO.N,/USER_BTN*%
X113010000Y-70650000D02*
X111350000Y-70650000D01*
X95750000Y-79750000D02*
X102250000Y-79750000D01*
X111350000Y-70650000D02*
X102250000Y-79750000D01*
%TO.N,/USER_LED*%
X110000000Y-96810000D02*
X108500000Y-98310000D01*
X113010000Y-73190000D02*
X110000000Y-76200000D01*
X110000000Y-76200000D02*
X110000000Y-96810000D01*
%TO.N,/WR*%
X184936346Y-55490000D02*
X183983654Y-55490000D01*
X184460000Y-82040000D02*
X185610000Y-80890000D01*
X152100000Y-77944365D02*
X155484365Y-74560000D01*
X183983654Y-55490000D02*
X171240000Y-68233654D01*
X124610000Y-92070000D02*
X147180000Y-92070000D01*
X152100000Y-87150000D02*
X152100000Y-77944365D01*
X185610000Y-77577767D02*
X185750000Y-77437767D01*
X185750000Y-56303654D02*
X184936346Y-55490000D01*
X165060000Y-74560000D02*
X171240000Y-68380000D01*
X113010000Y-103670000D02*
X124610000Y-92070000D01*
X185750000Y-77437767D02*
X185750000Y-56303654D01*
X171240000Y-68233654D02*
X171240000Y-68380000D01*
X185610000Y-80890000D02*
X185610000Y-77577767D01*
X147180000Y-92070000D02*
X152100000Y-87150000D01*
X155484365Y-74560000D02*
X165060000Y-74560000D01*
%TO.N,/RD*%
X152250000Y-144250000D02*
X148250000Y-140250000D01*
X148250000Y-140250000D02*
X148250000Y-131680000D01*
X184460000Y-84580000D02*
X185850000Y-85970000D01*
X180000000Y-144250000D02*
X152250000Y-144250000D01*
X113010000Y-106210000D02*
X114110000Y-107310000D01*
X189250000Y-87743654D02*
X189250000Y-135000000D01*
X148250000Y-131680000D02*
X152380000Y-127550000D01*
X132140000Y-107310000D02*
X152380000Y-127550000D01*
X187476346Y-85970000D02*
X189250000Y-87743654D01*
X185850000Y-85970000D02*
X187476346Y-85970000D01*
X114110000Y-107310000D02*
X132140000Y-107310000D01*
X189250000Y-135000000D02*
X180000000Y-144250000D01*
%TO.N,/X2*%
X106500000Y-107770000D02*
X106500000Y-103750000D01*
X106500000Y-103750000D02*
X105250000Y-102500000D01*
%TO.N,/X1*%
X106500000Y-112650000D02*
X106500000Y-116250000D01*
X106500000Y-116250000D02*
X105250000Y-117500000D01*
%TO.N,/A12*%
X169880000Y-121760000D02*
X156750000Y-108630000D01*
X148170000Y-103670000D02*
X128250000Y-103670000D01*
X156750000Y-108630000D02*
X156750000Y-108500000D01*
X153000000Y-108500000D02*
X148170000Y-103670000D01*
X153500000Y-108500000D02*
X153000000Y-108500000D01*
%TO.N,/A13*%
X153500000Y-107500000D02*
X152750000Y-107500000D01*
X173950000Y-116750000D02*
X164700000Y-107500000D01*
X146380000Y-101130000D02*
X128250000Y-101130000D01*
X173950000Y-120230000D02*
X173950000Y-116750000D01*
X164700000Y-107500000D02*
X156750000Y-107500000D01*
X169880000Y-124300000D02*
X173950000Y-120230000D01*
X152750000Y-107500000D02*
X146380000Y-101130000D01*
%TO.N,/A14*%
X153500000Y-106500000D02*
X153250000Y-106500000D01*
X174350000Y-115415686D02*
X165484317Y-106550003D01*
X158750000Y-84000000D02*
X158750000Y-98090000D01*
X165484317Y-106550003D02*
X156750000Y-106550003D01*
X174350000Y-122370000D02*
X174350000Y-115415686D01*
X169880000Y-126840000D02*
X174350000Y-122370000D01*
X145340000Y-98590000D02*
X128250000Y-98590000D01*
X153250000Y-106500000D02*
X145340000Y-98590000D01*
%TO.N,/A15*%
X164090000Y-135170000D02*
X169880000Y-129380000D01*
X174750000Y-124510000D02*
X174750000Y-115250000D01*
X160000000Y-135170000D02*
X160000000Y-137710000D01*
X144050000Y-96050000D02*
X128250000Y-96050000D01*
X153500000Y-105500000D02*
X144050000Y-96050000D01*
X165250000Y-105750000D02*
X156750000Y-105750000D01*
X174750000Y-115250000D02*
X165250000Y-105750000D01*
X169880000Y-129380000D02*
X174750000Y-124510000D01*
X160000000Y-135170000D02*
X164090000Y-135170000D01*
%TO.N,/PSEN*%
X126750000Y-104125635D02*
X127394365Y-104770000D01*
X127394365Y-104770000D02*
X132140000Y-104770000D01*
X132140000Y-104770000D02*
X152380000Y-125010000D01*
X126750000Y-95010000D02*
X126750000Y-104125635D01*
X128250000Y-93510000D02*
X126750000Y-95010000D01*
%TO.N,/ALE*%
X146620000Y-88330000D02*
X143980000Y-90970000D01*
X143980000Y-90970000D02*
X128250000Y-90970000D01*
%TO.N,/D7*%
X176000000Y-83940000D02*
X176000000Y-65100000D01*
X171240000Y-88700000D02*
X176000000Y-83940000D01*
X176000000Y-65100000D02*
X184460000Y-56640000D01*
%TO.N,/D6*%
X171240000Y-91240000D02*
X176400000Y-86080000D01*
X176400000Y-86080000D02*
X176400000Y-67240000D01*
X176400000Y-67240000D02*
X184460000Y-59180000D01*
%TO.N,/D5*%
X176800000Y-69380000D02*
X184460000Y-61720000D01*
X171240000Y-93780000D02*
X176800000Y-88220000D01*
X176800000Y-88220000D02*
X176800000Y-69380000D01*
%TO.N,/D4*%
X177200000Y-71520000D02*
X184460000Y-64260000D01*
X171240000Y-96320000D02*
X177200000Y-90360000D01*
X177200000Y-90360000D02*
X177200000Y-71520000D01*
%TO.N,/D3*%
X177600000Y-92500000D02*
X177600000Y-73660000D01*
X177600000Y-73660000D02*
X184460000Y-66800000D01*
X171240000Y-98860000D02*
X177600000Y-92500000D01*
%TO.N,/D2*%
X159640000Y-99960000D02*
X156000000Y-96320000D01*
X178000000Y-94055635D02*
X172095635Y-99960000D01*
X184460000Y-69340000D02*
X178000000Y-75800000D01*
X178000000Y-75800000D02*
X178000000Y-94055635D01*
X172095635Y-99960000D02*
X159640000Y-99960000D01*
%TO.N,/D1*%
X171621321Y-101000000D02*
X156184365Y-101000000D01*
X178400000Y-77940000D02*
X178400000Y-94221321D01*
X178400000Y-94221321D02*
X171621321Y-101000000D01*
X154500000Y-99315635D02*
X154500000Y-95280000D01*
X156184365Y-101000000D02*
X154500000Y-99315635D01*
X184460000Y-71880000D02*
X178400000Y-77940000D01*
X154500000Y-95280000D02*
X156000000Y-93780000D01*
%TO.N,/D0*%
X154100000Y-93140000D02*
X156000000Y-91240000D01*
X171787006Y-101400000D02*
X156018679Y-101400000D01*
X178800000Y-94387007D02*
X171787006Y-101400000D01*
X178800000Y-80080000D02*
X178800000Y-94387007D01*
X156018679Y-101400000D02*
X154100000Y-99481320D01*
X154100000Y-99481320D02*
X154100000Y-93140000D01*
X184460000Y-74420000D02*
X178800000Y-80080000D01*
%TO.N,/A1*%
X153300000Y-99812690D02*
X153300000Y-84364365D01*
X187476346Y-98430000D02*
X175888378Y-98430000D01*
X172118376Y-102200000D02*
X155687307Y-102200000D01*
X153300000Y-84364365D02*
X155144365Y-82520000D01*
X157500000Y-84660000D02*
X156000000Y-86160000D01*
X188150000Y-96803654D02*
X188150000Y-97756346D01*
X155687307Y-102200000D02*
X153300000Y-99812690D01*
X175888378Y-98430000D02*
X172118376Y-102200000D01*
X186523654Y-96130000D02*
X187476346Y-96130000D01*
X185133654Y-94740000D02*
X186523654Y-96130000D01*
X188150000Y-97756346D02*
X187476346Y-98430000D01*
X155144365Y-82520000D02*
X156855635Y-82520000D01*
X157500000Y-83164365D02*
X157500000Y-84660000D01*
X187476346Y-96130000D02*
X188150000Y-96803654D01*
X184460000Y-94740000D02*
X185133654Y-94740000D01*
X156855635Y-82520000D02*
X157500000Y-83164365D01*
%TO.N,/A2*%
X155852993Y-101800000D02*
X153700000Y-99647005D01*
X171952691Y-101800000D02*
X155852993Y-101800000D01*
X153700000Y-85920000D02*
X156000000Y-83620000D01*
X177622693Y-96130000D02*
X171952691Y-101800000D01*
X187000000Y-97280000D02*
X185850000Y-96130000D01*
X185850000Y-96130000D02*
X177622693Y-96130000D01*
X153700000Y-99647005D02*
X153700000Y-85920000D01*
%TO.N,/CS0*%
X181750000Y-130210000D02*
X177500000Y-134460000D01*
X181750000Y-102530000D02*
X181750000Y-130210000D01*
X184460000Y-99820000D02*
X181750000Y-102530000D01*
%TO.N,/CS1*%
X187000000Y-99820000D02*
X185610000Y-101210000D01*
X182150000Y-132350000D02*
X177500000Y-137000000D01*
X185610000Y-101210000D02*
X183635686Y-101210000D01*
X182150000Y-102695686D02*
X182150000Y-132350000D01*
X183635686Y-101210000D02*
X182150000Y-102695686D01*
%TO.N,Net-(J4-D-)*%
X139640000Y-131230000D02*
X141620000Y-129250000D01*
X107860000Y-132000000D02*
X110430000Y-129430000D01*
X141620000Y-129250000D02*
X142500000Y-130130000D01*
X134024365Y-131230000D02*
X139640000Y-131230000D01*
X110430000Y-129430000D02*
X132224365Y-129430000D01*
X132224365Y-129430000D02*
X134024365Y-131230000D01*
%TO.N,Net-(J4-D+)*%
X105860000Y-132000000D02*
X108830000Y-129030000D01*
X108830000Y-129030000D02*
X141060000Y-129030000D01*
X141060000Y-129030000D02*
X142500000Y-127590000D01*
%TO.N,Net-(D2-A)*%
X108500000Y-92235000D02*
X99265000Y-101470000D01*
X108500000Y-90690000D02*
X108500000Y-92235000D01*
%TO.N,/A3*%
X160170000Y-81080000D02*
X160250000Y-81000000D01*
X154250000Y-69500000D02*
X148120000Y-75630000D01*
X159250000Y-69500000D02*
X154250000Y-69500000D01*
X156000000Y-81080000D02*
X160170000Y-81080000D01*
X148120000Y-75630000D02*
X146620000Y-75630000D01*
X162000000Y-72250000D02*
X159250000Y-69500000D01*
%TO.N,Net-(U3-~{CS})*%
X152914314Y-136610000D02*
X155121621Y-134402693D01*
X151524365Y-136610000D02*
X152914314Y-136610000D01*
X150880000Y-138165635D02*
X150880000Y-137254365D01*
X155121621Y-134402693D02*
X155121621Y-102765685D01*
X168165686Y-77440000D02*
X170705686Y-79980000D01*
X152500000Y-80084365D02*
X155144365Y-77440000D01*
X170705686Y-79980000D02*
X172095635Y-79980000D01*
X155121621Y-102765685D02*
X152500000Y-100144060D01*
X172740000Y-84660000D02*
X171240000Y-86160000D01*
X152500000Y-100144060D02*
X152500000Y-80084365D01*
X155144365Y-77440000D02*
X168165686Y-77440000D01*
X150880000Y-137254365D02*
X151524365Y-136610000D01*
X172095635Y-79980000D02*
X172740000Y-80624365D01*
X172740000Y-80624365D02*
X172740000Y-84660000D01*
X151524365Y-138810000D02*
X150880000Y-138165635D01*
X158560000Y-138810000D02*
X151524365Y-138810000D01*
X160000000Y-140250000D02*
X158560000Y-138810000D01*
%TO.N,Net-(U3-~{OE})*%
X152380000Y-137710000D02*
X155521621Y-134568379D01*
X155144365Y-79980000D02*
X170140000Y-79980000D01*
X155521621Y-102600000D02*
X152900000Y-99978375D01*
X170140000Y-79980000D02*
X171240000Y-81080000D01*
X155521621Y-134568379D02*
X155521621Y-102600000D01*
X152900000Y-99978375D02*
X152900000Y-82224365D01*
X152900000Y-82224365D02*
X155144365Y-79980000D01*
%TO.N,Net-(U5-Pad3)*%
X152380000Y-132630000D02*
X152380000Y-135170000D01*
X152380000Y-130090000D02*
X152380000Y-132630000D01*
%TO.N,Net-(D3-A)*%
X129960000Y-52350000D02*
X131060000Y-51250000D01*
X118540000Y-52230000D02*
X118660000Y-52350000D01*
X118660000Y-52350000D02*
X129960000Y-52350000D01*
%TO.N,Net-(Q1-B)*%
X119520000Y-55750000D02*
X117270000Y-53500000D01*
X123440000Y-55750000D02*
X119520000Y-55750000D01*
%TD*%
M02*
